{"glyphs":{"0":{"ha":783,"x_min":72,"x_max":725,"o":"m 725 408 q 662 164 725 286 q 495 -37 599 42 q 281 -115 392 -115 q 126 -40 181 -115 q 72 154 72 35 q 108 444 72 297 q 203 708 143 590 q 182 717 192 708 q 172 738 172 725 q 194 771 172 756 q 244 793 215 786 q 254 805 247 796 q 274 814 261 814 q 300 809 288 814 q 315 799 313 804 q 394 806 354 806 q 564 754 489 806 q 682 612 639 703 q 725 408 725 521 m 661 406 q 624 563 661 490 q 527 678 588 636 q 400 721 467 721 q 315 713 368 721 l 286 708 q 187 440 222 594 q 151 156 151 286 q 185 12 151 68 q 293 -44 219 -44 q 464 27 378 -44 q 606 204 550 99 q 661 406 661 310 z "},"1":{"ha":611,"x_min":0,"x_max":460,"o":"m 422 63 q 446 -43 429 26 q 455 -83 450 -60 q 460 -111 460 -106 q 442 -140 460 -126 q 404 -153 425 -153 q 379 -128 392 -153 q 361 -67 367 -104 q 317 385 336 79 l 297 681 q 74 497 189 572 q 31 478 43 478 q 8 487 17 478 q 0 504 0 496 q 32 543 0 522 q 159 640 103 589 q 272 750 215 692 l 292 769 l 292 771 l 292 792 l 292 806 q 296 818 292 815 q 301 821 299 821 q 321 825 310 825 q 365 817 349 825 q 382 792 382 808 q 365 753 382 775 q 374 686 372 719 q 394 370 376 604 q 422 63 413 136 z "},"2":{"ha":954,"x_min":101,"x_max":942,"o":"m 942 17 q 924 -15 942 -1 q 878 -35 907 -28 q 711 -57 826 -40 q 575 -76 611 -72 l 465 -93 q 323 -113 378 -107 q 203 -119 268 -119 q 159 -103 179 -119 q 139 -56 139 -86 q 144 -29 139 -39 q 163 -6 150 -19 q 301 139 243 75 q 443 304 358 203 q 572 482 529 408 q 614 635 614 556 q 572 747 614 707 q 461 786 529 786 q 371 772 410 786 q 263 717 332 757 q 226 692 246 708 q 201 672 207 676 q 163 643 182 656 q 135 631 144 631 q 101 668 101 631 q 138 725 101 700 q 197 760 146 731 q 246 786 228 775 q 358 838 310 822 q 472 853 406 853 q 627 793 568 853 q 686 642 686 733 q 655 502 686 572 q 585 379 624 432 q 492 263 546 326 q 344 100 463 228 l 272 21 q 249 -3 268 17 q 231 -32 231 -24 q 264 -49 231 -49 q 381 -36 308 -49 q 468 -21 454 -24 l 589 0 q 726 18 617 4 q 847 36 824 31 q 886 58 865 47 q 914 68 907 68 q 942 17 942 68 z "},"3":{"ha":965,"x_min":88,"x_max":844,"o":"m 371 -161 q 314 -168 336 -168 q 278 -156 289 -168 q 268 -126 268 -143 q 326 -90 268 -99 q 644 20 517 -62 q 771 243 771 103 q 583 401 771 401 q 470 392 524 401 q 340 365 417 383 q 239 311 264 322 q 193 300 214 300 q 171 313 181 300 q 161 343 161 326 q 185 379 161 368 q 257 408 228 399 q 349 447 303 424 q 540 576 468 510 q 613 715 613 643 q 572 799 613 776 q 457 822 531 822 q 242 758 344 822 q 192 719 213 740 q 164 683 171 697 q 131 665 151 665 q 88 703 88 665 q 143 776 88 728 q 288 860 199 824 q 479 896 378 896 q 633 853 578 896 q 688 729 688 811 q 616 581 688 661 q 456 447 544 501 l 461 446 q 532 461 506 457 q 607 465 558 465 q 777 408 710 465 q 844 250 844 351 q 719 -8 844 93 q 371 -161 593 -108 z "},"4":{"ha":969,"x_min":33,"x_max":950,"o":"m 754 -54 q 738 -83 754 -69 q 701 -96 722 -96 q 658 3 672 -96 q 632 271 643 101 q 514 247 597 265 q 360 210 431 228 q 78 147 110 147 q 51 163 68 147 q 33 192 33 178 q 51 224 33 207 q 172 350 75 244 q 328 515 257 444 q 550 775 400 588 q 614 853 600 838 q 642 891 633 875 q 654 913 650 907 q 668 918 658 918 q 704 901 685 918 q 724 867 724 885 q 715 849 724 863 q 704 803 706 829 q 701 422 701 757 q 703 340 701 365 l 731 346 q 868 369 814 363 q 887 388 879 371 q 903 404 894 404 q 934 387 918 404 q 950 351 950 369 q 931 319 950 328 q 857 304 911 310 l 749 292 l 707 286 q 744 13 717 143 q 754 -54 754 -42 m 629 763 q 531 653 604 735 q 374 481 458 572 q 147 232 246 343 l 242 253 q 346 274 318 267 q 540 314 429 293 l 628 332 q 624 417 624 386 q 626 621 624 508 q 629 763 628 733 z "},"5":{"ha":768,"x_min":76,"x_max":700,"o":"m 431 -36 q 332 -96 364 -79 q 295 -112 311 -106 q 268 -118 279 -118 q 236 -101 249 -118 q 224 -69 224 -85 q 249 -43 224 -49 l 278 -35 q 358 -5 325 -19 q 440 42 390 10 q 579 172 535 103 q 624 319 624 240 q 599 397 624 375 q 526 419 575 419 q 404 403 469 419 q 254 358 339 386 q 182 336 190 339 q 160 325 172 333 q 138 311 147 317 q 115 303 125 303 q 101 304 107 303 q 76 338 76 308 q 89 407 76 342 q 118 569 107 501 q 129 683 129 638 q 119 713 119 696 q 169 765 119 738 q 325 826 218 792 q 498 872 407 854 q 664 889 589 889 q 683 883 675 889 q 690 867 690 876 q 665 839 690 843 q 393 779 497 810 q 285 743 324 760 q 203 701 246 726 q 157 397 203 617 q 227 422 157 399 q 384 465 297 446 q 546 485 471 485 q 661 446 622 485 q 700 338 700 407 q 642 149 700 238 q 471 -11 583 61 l 431 -36 z "},"6":{"ha":810,"x_min":89,"x_max":778,"o":"m 778 381 q 736 244 778 313 q 611 115 694 175 q 407 17 528 56 q 426 -44 413 -18 q 447 -69 432 -56 q 461 -85 461 -82 q 445 -110 461 -97 q 413 -122 429 -122 q 368 -90 388 -122 q 350 -45 357 -71 q 342 0 343 -19 q 332 -1 339 0 q 311 -1 325 -1 q 148 88 207 -1 q 89 317 89 178 q 184 660 89 497 q 439 915 279 824 q 465 928 450 924 q 488 932 479 932 q 514 923 501 932 q 526 899 526 914 q 490 851 526 872 q 233 617 310 747 q 156 313 156 486 q 199 140 156 211 q 342 68 242 68 q 399 306 354 206 q 510 457 444 406 q 650 508 576 508 q 745 472 713 508 q 778 381 778 436 m 715 368 q 646 443 715 443 q 492 348 557 443 q 406 78 426 253 q 560 148 489 99 q 673 257 631 197 q 715 368 715 317 z "},"7":{"ha":815,"x_min":54,"x_max":717,"o":"m 717 406 q 709 380 717 394 q 690 357 701 365 q 645 342 681 350 q 571 329 610 335 l 533 322 q 489 -64 497 164 q 472 -122 488 -97 q 438 -147 457 -147 q 417 -131 426 -147 q 400 -94 408 -114 q 389 -67 392 -75 q 367 4 367 -14 q 382 24 367 24 q 402 15 389 24 q 421 3 415 7 q 464 317 439 193 q 311 297 347 297 q 284 307 294 297 q 274 332 274 317 q 286 347 274 342 q 329 357 299 353 q 478 378 449 374 q 544 590 501 476 q 625 776 588 704 q 524 764 613 775 q 353 736 435 753 l 231 711 q 184 701 218 708 q 115 694 150 694 q 72 705 90 694 q 54 732 54 715 q 81 767 54 767 q 197 776 138 767 q 364 807 256 785 q 529 833 453 825 q 650 842 606 842 q 700 835 683 842 q 717 806 717 828 q 713 788 717 793 q 697 774 708 782 q 615 593 657 697 q 547 386 574 489 q 675 411 606 393 q 704 418 699 418 q 713 414 708 418 q 717 406 717 410 z "},"8":{"ha":963,"x_min":53,"x_max":904,"o":"m 904 278 q 835 81 904 176 q 656 -76 767 -15 q 429 -136 546 -136 q 222 -71 300 -136 q 144 106 144 -6 q 183 252 144 181 q 275 364 221 324 q 207 357 242 357 q 99 402 146 357 q 53 517 53 447 q 117 740 53 643 q 279 894 182 836 q 326 918 310 913 q 360 924 343 924 q 377 918 369 924 q 385 904 385 913 q 401 910 389 906 q 428 915 413 914 q 463 917 443 917 q 591 870 539 917 q 643 736 643 824 q 618 638 643 683 q 562 558 593 592 q 531 528 531 525 q 553 531 533 528 q 613 533 572 533 q 757 503 690 533 q 864 414 824 472 q 904 278 904 356 m 572 739 q 537 824 572 793 q 446 854 501 854 q 385 843 410 854 q 376 828 385 836 q 357 821 367 821 q 296 814 329 821 q 208 751 249 797 q 144 645 168 706 q 119 522 119 585 q 147 449 119 475 q 226 424 174 424 q 383 472 301 424 q 518 593 464 519 q 572 739 572 667 m 838 274 q 768 420 838 367 q 593 474 699 474 q 456 450 515 474 q 278 298 344 386 q 213 114 213 210 q 270 -26 213 19 q 431 -71 328 -71 q 620 -23 525 -71 q 776 105 715 25 q 838 274 838 185 z "},"9":{"ha":867,"x_min":56,"x_max":775,"o":"m 775 729 q 744 667 775 715 q 725 631 725 638 q 735 235 725 526 q 743 -58 743 21 q 726 -101 743 -82 q 692 -119 708 -119 q 664 -113 672 -119 q 656 -93 656 -107 l 658 -51 q 667 85 667 18 q 663 407 667 124 l 661 529 q 529 344 589 418 q 393 219 469 269 q 229 168 317 168 q 100 220 144 168 q 56 357 56 272 q 133 611 56 481 q 330 826 210 742 q 572 911 450 911 q 677 872 635 911 q 732 772 719 832 q 762 758 749 769 q 775 729 775 747 m 244 244 q 380 297 314 244 q 503 424 446 349 q 638 621 560 500 q 668 667 649 636 l 668 668 q 672 704 672 683 q 638 801 672 764 q 538 839 604 839 q 356 765 453 839 q 194 577 260 690 q 129 356 129 464 q 160 278 129 311 q 244 244 190 244 z "},"\u0000":{"ha":0,"x_min":0,"x_max":0,"o":""},"\r":{"ha":399,"x_min":0,"x_max":0,"o":""}," ":{"ha":399,"x_min":0,"x_max":0,"o":""},"A":{"ha":864,"x_min":3,"x_max":814,"o":"m 814 433 q 809 413 814 424 q 796 396 804 401 q 756 381 786 388 q 714 374 725 375 q 725 322 725 321 q 746 226 735 288 q 797 -12 771 86 q 804 -50 804 -44 q 793 -74 804 -64 q 767 -83 782 -83 q 742 -69 753 -83 q 726 -43 731 -54 q 703 63 714 4 q 679 203 693 121 q 661 292 674 239 q 644 363 649 346 q 363 318 563 351 l 282 304 l 253 222 l 214 111 q 144 -122 165 -40 q 128 -155 140 -142 q 97 -168 115 -168 q 72 -160 82 -168 q 61 -136 61 -151 q 78 -72 61 -121 q 97 -12 94 -22 q 119 51 103 1 q 166 183 138 106 q 204 285 194 260 q 99 258 133 268 q 33 244 46 244 q 10 256 18 244 q 3 282 3 268 q 11 305 3 299 q 39 317 19 311 q 151 342 92 329 q 232 358 210 354 q 253 426 246 399 q 267 472 258 444 q 288 539 276 499 l 308 610 q 369 822 361 796 q 383 853 376 842 q 400 864 389 864 q 450 856 428 864 q 459 867 453 858 q 473 880 465 876 q 493 883 481 883 q 551 826 518 883 q 614 692 583 769 q 660 555 632 646 q 696 435 688 464 q 731 442 717 438 q 750 449 746 447 q 765 458 757 451 q 781 469 774 465 q 796 468 788 472 q 814 433 814 460 m 632 424 q 603 528 625 449 q 561 658 581 608 q 511 764 542 710 q 460 832 481 818 l 444 796 q 404 700 418 743 q 299 369 371 600 l 461 397 l 594 418 l 632 424 z "},"Á":{"ha":864,"x_min":3,"x_max":814,"o":"m 814 433 q 809 413 814 424 q 796 396 804 401 q 756 381 786 388 q 714 374 725 375 q 725 322 725 321 q 746 226 735 288 q 797 -12 771 86 q 804 -50 804 -44 q 793 -74 804 -64 q 767 -83 782 -83 q 742 -69 753 -83 q 726 -43 731 -54 q 703 63 714 4 q 679 203 693 121 q 661 292 674 239 q 644 363 649 346 q 363 318 563 351 l 282 304 l 253 222 l 214 111 q 144 -122 165 -40 q 128 -155 140 -142 q 97 -168 115 -168 q 72 -160 82 -168 q 61 -136 61 -151 q 78 -72 61 -121 q 97 -12 94 -22 q 119 51 103 1 q 166 183 138 106 q 204 285 194 260 q 99 258 133 268 q 33 244 46 244 q 10 256 18 244 q 3 282 3 268 q 11 305 3 299 q 39 317 19 311 q 151 342 92 329 q 232 358 210 354 q 253 426 246 399 q 267 472 258 444 q 288 539 276 499 l 308 610 q 369 822 361 796 q 383 853 376 842 q 400 864 389 864 q 450 856 428 864 q 459 867 453 858 q 473 880 465 876 q 493 883 481 883 q 551 826 518 883 q 614 692 583 769 q 660 555 632 646 q 696 435 688 464 q 731 442 717 438 q 750 449 746 447 q 765 458 757 451 q 781 469 774 465 q 796 468 788 472 q 814 433 814 460 m 632 424 q 603 528 625 449 q 561 658 581 608 q 511 764 542 710 q 460 832 481 818 l 444 796 q 404 700 418 743 q 299 369 371 600 l 461 397 l 594 418 l 632 424 m 639 1154 q 594 1088 639 1136 q 498 999 550 1040 q 428 957 446 957 q 408 964 415 957 q 400 982 400 971 q 446 1032 400 989 q 524 1111 499 1079 q 557 1161 544 1140 q 578 1192 572 1185 q 594 1199 585 1199 q 624 1183 608 1199 q 639 1154 639 1168 z "},"Â":{"ha":864,"x_min":3,"x_max":814,"o":"m 814 433 q 809 413 814 424 q 796 396 804 401 q 756 381 786 388 q 714 374 725 375 q 725 322 725 321 q 746 226 735 288 q 797 -12 771 86 q 804 -50 804 -44 q 793 -74 804 -64 q 767 -83 782 -83 q 742 -69 753 -83 q 726 -43 731 -54 q 703 63 714 4 q 679 203 693 121 q 661 292 674 239 q 644 363 649 346 q 363 318 563 351 l 282 304 l 253 222 l 214 111 q 144 -122 165 -40 q 128 -155 140 -142 q 97 -168 115 -168 q 72 -160 82 -168 q 61 -136 61 -151 q 78 -72 61 -121 q 97 -12 94 -22 q 119 51 103 1 q 166 183 138 106 q 204 285 194 260 q 99 258 133 268 q 33 244 46 244 q 10 256 18 244 q 3 282 3 268 q 11 305 3 299 q 39 317 19 311 q 151 342 92 329 q 232 358 210 354 q 253 426 246 399 q 267 472 258 444 q 288 539 276 499 l 308 610 q 369 822 361 796 q 383 853 376 842 q 400 864 389 864 q 450 856 428 864 q 459 867 453 858 q 473 880 465 876 q 493 883 481 883 q 551 826 518 883 q 614 692 583 769 q 660 555 632 646 q 696 435 688 464 q 731 442 717 438 q 750 449 746 447 q 765 458 757 451 q 781 469 774 465 q 796 468 788 472 q 814 433 814 460 m 632 424 q 603 528 625 449 q 561 658 581 608 q 511 764 542 710 q 460 832 481 818 l 444 796 q 404 700 418 743 q 299 369 371 600 l 461 397 l 594 418 l 632 424 m 424 1139 q 443 1151 432 1151 q 462 1138 449 1151 q 479 1118 475 1124 q 651 967 571 1018 q 672 952 664 958 q 679 939 679 946 q 670 917 679 929 q 647 906 661 906 q 589 932 622 906 q 532 982 556 958 l 500 1015 l 443 1071 l 422 1046 q 327 935 360 969 q 274 900 294 900 q 256 908 263 900 q 250 922 250 915 q 308 996 250 933 q 406 1111 367 1064 l 424 1139 z "},"Ä":{"ha":864,"x_min":3,"x_max":814,"o":"m 814 433 q 809 413 814 424 q 796 396 804 401 q 756 381 786 388 q 714 374 725 375 q 725 322 725 321 q 746 226 735 288 q 797 -12 771 86 q 804 -50 804 -44 q 793 -74 804 -64 q 767 -83 782 -83 q 742 -69 753 -83 q 726 -43 731 -54 q 703 63 714 4 q 679 203 693 121 q 661 292 674 239 q 644 363 649 346 q 363 318 563 351 l 282 304 l 253 222 l 214 111 q 144 -122 165 -40 q 128 -155 140 -142 q 97 -168 115 -168 q 72 -160 82 -168 q 61 -136 61 -151 q 78 -72 61 -121 q 97 -12 94 -22 q 119 51 103 1 q 166 183 138 106 q 204 285 194 260 q 99 258 133 268 q 33 244 46 244 q 10 256 18 244 q 3 282 3 268 q 11 305 3 299 q 39 317 19 311 q 151 342 92 329 q 232 358 210 354 q 253 426 246 399 q 267 472 258 444 q 288 539 276 499 l 308 610 q 369 822 361 796 q 383 853 376 842 q 400 864 389 864 q 450 856 428 864 q 459 867 453 858 q 473 880 465 876 q 493 883 481 883 q 551 826 518 883 q 614 692 583 769 q 660 555 632 646 q 696 435 688 464 q 731 442 717 438 q 750 449 746 447 q 765 458 757 451 q 781 469 774 465 q 796 468 788 472 q 814 433 814 460 m 632 424 q 603 528 625 449 q 561 658 581 608 q 511 764 542 710 q 460 832 481 818 l 444 796 q 404 700 418 743 q 299 369 371 600 l 461 397 l 594 418 l 632 424 m 614 969 q 599 947 614 957 q 569 936 583 936 q 522 969 546 936 q 499 1028 499 1003 q 517 1056 499 1043 q 549 1069 535 1069 q 576 1049 561 1069 q 603 1004 592 1029 q 614 969 614 979 m 354 953 q 318 936 354 936 q 279 956 297 936 q 250 999 261 975 q 239 1032 239 1024 q 252 1051 239 1043 q 281 1060 265 1060 q 329 1022 304 1060 q 354 953 354 983 z "},"À":{"ha":864,"x_min":3,"x_max":814,"o":"m 814 433 q 809 413 814 424 q 796 396 804 401 q 756 381 786 388 q 714 374 725 375 q 725 322 725 321 q 746 226 735 288 q 797 -12 771 86 q 804 -50 804 -44 q 793 -74 804 -64 q 767 -83 782 -83 q 742 -69 753 -83 q 726 -43 731 -54 q 703 63 714 4 q 679 203 693 121 q 661 292 674 239 q 644 363 649 346 q 363 318 563 351 l 282 304 l 253 222 l 214 111 q 144 -122 165 -40 q 128 -155 140 -142 q 97 -168 115 -168 q 72 -160 82 -168 q 61 -136 61 -151 q 78 -72 61 -121 q 97 -12 94 -22 q 119 51 103 1 q 166 183 138 106 q 204 285 194 260 q 99 258 133 268 q 33 244 46 244 q 10 256 18 244 q 3 282 3 268 q 11 305 3 299 q 39 317 19 311 q 151 342 92 329 q 232 358 210 354 q 253 426 246 399 q 267 472 258 444 q 288 539 276 499 l 308 610 q 369 822 361 796 q 383 853 376 842 q 400 864 389 864 q 450 856 428 864 q 459 867 453 858 q 473 880 465 876 q 493 883 481 883 q 551 826 518 883 q 614 692 583 769 q 660 555 632 646 q 696 435 688 464 q 731 442 717 438 q 750 449 746 447 q 765 458 757 451 q 781 469 774 465 q 796 468 788 472 q 814 433 814 460 m 632 424 q 603 528 625 449 q 561 658 581 608 q 511 764 542 710 q 460 832 481 818 l 444 796 q 404 700 418 743 q 299 369 371 600 l 461 397 l 594 418 l 632 424 m 492 964 q 484 946 492 953 q 464 939 476 939 q 394 981 446 939 q 297 1070 342 1022 q 253 1136 253 1118 q 268 1165 253 1150 q 297 1181 283 1181 q 313 1174 307 1181 q 335 1143 319 1167 q 368 1093 347 1122 q 446 1014 393 1061 q 492 964 492 971 z "},"Å":{"ha":864,"x_min":3,"x_max":814,"o":"m 633 1028 q 605 939 633 992 q 531 854 576 886 q 614 692 565 810 q 660 555 632 646 q 696 435 688 464 q 731 442 717 438 q 750 449 746 447 q 765 458 757 451 q 781 469 774 465 q 796 468 788 472 q 814 433 814 460 q 809 413 814 424 q 796 396 804 401 q 756 381 786 388 q 714 374 725 375 q 725 322 725 321 q 746 226 735 288 q 797 -12 771 86 q 804 -50 804 -44 q 793 -74 804 -64 q 767 -83 782 -83 q 742 -69 753 -83 q 726 -43 731 -54 q 703 63 714 4 q 679 203 693 121 q 661 292 674 239 q 644 363 649 346 q 433 328 550 349 q 279 301 315 308 q 214 111 244 206 q 144 -122 165 -40 q 128 -155 140 -142 q 97 -168 115 -168 q 72 -160 82 -168 q 61 -136 61 -151 q 78 -72 61 -121 q 97 -12 94 -22 q 119 51 103 1 q 167 183 136 106 q 207 285 197 261 q 103 260 186 281 q 33 244 50 244 q 10 256 18 244 q 3 282 3 268 q 11 305 3 299 q 39 317 19 311 q 151 342 92 329 q 232 358 210 354 q 253 426 246 399 q 267 472 258 444 q 288 539 276 499 l 308 610 q 369 822 361 796 l 372 833 q 322 867 340 844 q 304 919 304 889 q 328 1023 304 968 q 392 1118 353 1078 q 475 1164 431 1158 q 503 1167 481 1167 q 520 1164 510 1167 q 539 1158 531 1161 q 602 1109 571 1147 q 633 1028 633 1071 m 476 1121 q 394 1043 425 1096 q 363 933 363 990 q 383 893 363 908 q 443 878 404 878 q 511 903 481 878 q 559 963 542 929 q 576 1022 576 997 q 556 1074 576 1051 q 508 1108 536 1097 q 476 1121 483 1118 m 632 424 q 603 528 625 449 q 561 658 581 608 q 515 756 543 706 q 467 826 488 806 q 457 825 463 825 l 444 796 q 404 700 418 743 q 299 369 371 600 l 461 397 l 594 418 l 632 424 z "},"Ã":{"ha":864,"x_min":3,"x_max":814,"o":"m 814 433 q 809 413 814 424 q 796 396 804 401 q 756 381 786 388 q 714 374 725 375 q 725 322 725 321 q 746 226 735 288 q 797 -12 771 86 q 804 -50 804 -44 q 793 -74 804 -64 q 767 -83 782 -83 q 742 -69 753 -83 q 726 -43 731 -54 q 703 63 714 4 q 679 203 693 121 q 661 292 674 239 q 644 363 649 346 q 363 318 563 351 l 282 304 l 253 222 l 214 111 q 144 -122 165 -40 q 128 -155 140 -142 q 97 -168 115 -168 q 72 -160 82 -168 q 61 -136 61 -151 q 78 -72 61 -121 q 97 -12 94 -22 q 119 51 103 1 q 166 183 138 106 q 204 285 194 260 q 99 258 133 268 q 33 244 46 244 q 10 256 18 244 q 3 282 3 268 q 11 305 3 299 q 39 317 19 311 q 151 342 92 329 q 232 358 210 354 q 253 426 246 399 q 267 472 258 444 q 288 539 276 499 l 308 610 q 369 822 361 796 q 383 853 376 842 q 400 864 389 864 q 450 856 428 864 q 459 867 453 858 q 473 880 465 876 q 493 883 481 883 q 551 826 518 883 q 614 692 583 769 q 660 555 632 646 q 696 435 688 464 q 731 442 717 438 q 750 449 746 447 q 765 458 757 451 q 781 469 774 465 q 796 468 788 472 q 814 433 814 460 m 632 424 q 603 528 625 449 q 561 658 581 608 q 511 764 542 710 q 460 832 481 818 l 444 796 q 404 700 418 743 q 299 369 371 600 l 461 397 l 594 418 l 632 424 m 689 1081 q 672 1013 689 1047 q 626 957 654 979 q 567 935 597 935 q 510 951 535 935 q 451 997 486 967 q 407 1033 424 1022 q 372 1044 390 1044 q 269 965 308 1044 q 265 951 267 960 q 259 937 263 942 q 250 932 256 932 q 231 940 240 932 q 222 958 222 947 q 240 1015 222 986 q 303 1081 265 1056 q 382 1106 340 1106 q 426 1092 407 1106 q 476 1050 446 1079 q 526 1006 506 1021 q 574 992 547 992 q 608 1006 597 992 q 626 1038 619 1021 q 633 1060 632 1054 q 663 1093 647 1093 q 681 1090 672 1093 q 689 1081 689 1086 z "},"Æ":{"ha":1278,"x_min":61,"x_max":1283,"o":"m 1057 411 q 1049 381 1057 392 q 1029 369 1042 369 q 999 380 1025 369 q 940 390 974 390 q 714 374 872 390 q 725 322 725 321 q 746 226 735 288 q 789 17 760 147 q 983 70 868 43 q 1200 97 1099 97 q 1265 82 1246 97 q 1283 50 1283 67 q 1273 17 1283 29 q 1242 4 1263 4 q 1197 13 1228 4 q 1144 21 1164 21 q 1017 3 1100 21 q 804 -44 935 -14 l 804 -50 q 793 -74 804 -64 q 767 -83 782 -83 q 733 -57 749 -83 q 714 -47 722 -54 q 706 -31 706 -39 q 719 -14 706 -24 q 699 94 713 14 q 679 203 683 185 q 659 299 669 253 q 644 363 649 346 q 426 329 539 350 q 279 301 313 308 q 214 111 244 206 q 144 -122 165 -40 q 128 -155 140 -142 q 97 -168 115 -168 q 72 -160 82 -168 q 61 -136 61 -151 q 78 -72 61 -121 q 97 -12 94 -22 q 119 51 103 1 q 282 522 178 228 l 318 624 q 413 853 388 824 q 447 874 422 865 q 493 883 472 883 q 549 844 518 883 q 983 874 914 874 q 1036 853 1036 874 q 1025 805 1036 826 q 997 783 1014 783 q 986 790 992 783 q 978 797 981 796 q 890 803 965 803 q 759 795 865 803 q 588 779 653 788 q 651 617 621 711 q 696 435 681 522 l 736 439 q 938 457 917 457 q 1021 444 985 457 q 1057 411 1057 432 m 632 424 q 580 625 610 536 q 521 766 550 714 q 471 825 492 818 q 446 783 461 817 q 418 715 431 749 l 407 688 q 359 553 390 646 q 299 369 328 460 q 428 393 328 375 q 632 424 529 411 z "},"B":{"ha":958,"x_min":-33,"x_max":897,"o":"m 897 431 q 849 297 897 364 q 715 144 800 229 q 568 22 653 82 q 459 -44 513 -17 q 378 -72 406 -72 q 353 -65 364 -72 q 343 -42 343 -57 q 360 -3 343 -19 q 404 22 376 13 q 443 33 418 28 q 500 51 475 39 q 610 124 547 75 q 710 213 674 174 q 801 326 769 276 q 832 428 832 375 q 804 470 832 457 q 736 483 776 483 q 549 447 633 483 q 497 424 511 431 q 415 389 447 401 q 346 365 379 375 q 301 350 313 354 l 304 297 q 306 231 304 276 q 308 144 308 185 q 294 -11 308 49 q 282 -39 289 -31 q 256 -47 275 -47 q 232 -39 243 -47 q 221 -18 221 -31 q 233 29 221 -14 q 246 106 246 72 q 236 382 246 214 l 232 446 q 224 590 224 538 q 229 692 224 631 q 238 774 235 754 q 103 724 185 760 q 42 689 79 714 q -6 667 7 667 q -25 676 -17 667 q -33 700 -33 686 q 60 768 -33 726 q 263 842 153 810 q 438 885 361 871 q 594 899 514 899 q 717 870 668 899 q 767 790 767 842 q 633 538 767 668 q 742 546 693 546 q 851 519 806 546 q 897 431 897 493 m 701 772 q 669 823 701 806 q 583 840 638 840 q 440 827 526 840 q 307 799 354 814 q 283 640 283 704 q 292 413 283 550 q 337 424 306 414 q 394 444 368 433 q 614 589 526 500 q 701 772 701 678 z "},"C":{"ha":761,"x_min":117,"x_max":799,"o":"m 799 249 q 774 199 799 235 q 617 45 715 119 q 400 -29 518 -29 q 196 42 275 -29 q 117 254 117 114 q 150 471 117 350 q 228 681 183 592 q 334 831 274 771 q 456 890 394 890 q 548 847 515 890 q 581 740 581 804 q 572 692 581 717 q 551 651 563 668 q 535 635 540 635 q 524 647 524 635 q 528 666 524 651 q 533 690 533 681 q 525 756 533 725 q 497 799 518 782 q 451 817 476 817 q 264 624 351 817 q 206 449 229 546 q 182 261 182 351 q 208 147 182 199 q 281 65 233 96 q 393 35 329 35 q 577 83 494 35 q 740 208 660 132 q 760 240 743 211 q 785 268 776 268 q 796 264 793 268 q 799 249 799 260 z "},"Ç":{"ha":761,"x_min":117,"x_max":799,"o":"m 799 249 q 774 199 799 235 q 617 45 715 119 q 400 -29 518 -29 q 196 42 275 -29 q 117 254 117 114 q 150 471 117 350 q 228 681 183 592 q 334 831 274 771 q 456 890 394 890 q 548 847 515 890 q 581 740 581 804 q 572 692 581 717 q 551 651 563 668 q 535 635 540 635 q 524 647 524 635 q 528 666 524 651 q 533 690 533 681 q 525 756 533 725 q 497 799 518 782 q 451 817 476 817 q 264 624 351 817 q 206 449 229 546 q 182 261 182 351 q 208 147 182 199 q 281 65 233 96 q 393 35 329 35 q 577 83 494 35 q 740 208 660 132 q 760 240 743 211 q 785 268 776 268 q 796 264 793 268 q 799 249 799 260 m 481 -121 q 460 -195 481 -164 q 411 -243 440 -226 q 354 -260 382 -260 q 331 -252 340 -260 q 322 -232 322 -244 q 333 -219 322 -226 q 344 -211 343 -212 q 387 -179 371 -196 q 403 -132 403 -162 q 394 -92 403 -110 q 369 -50 385 -74 q 356 -22 356 -29 q 367 -15 356 -18 q 389 -11 378 -11 q 422 -31 400 -11 q 463 -77 444 -51 q 481 -121 481 -103 z "},"D":{"ha":908,"x_min":-18,"x_max":874,"o":"m 874 646 q 811 440 874 538 q 608 219 749 343 q 434 78 524 144 q 285 -17 344 11 q 272 -40 281 -32 q 247 -47 264 -47 q 229 -42 235 -47 q 224 -25 224 -37 q 230 44 224 -17 q 236 188 236 106 q 232 439 236 326 q 229 622 229 569 q 246 757 229 704 q 290 790 258 790 q 310 786 301 790 q 319 774 319 782 q 305 725 318 767 q 292 646 292 683 q 296 418 292 542 q 299 199 299 260 q 297 74 299 94 q 433 154 347 93 q 576 265 518 215 q 753 460 697 374 q 808 639 808 546 q 667 793 808 751 q 299 835 526 835 q 113 818 229 835 q 43 804 90 817 q 14 797 22 797 q -8 815 3 797 q -18 851 -18 833 q -8 865 -18 858 q 22 874 1 871 q 165 890 106 885 q 303 896 224 896 q 715 839 556 896 q 874 646 874 782 z "},"Ð":{"ha":958,"x_min":-18,"x_max":874,"o":"m 303 896 q 715 839 556 896 q 874 646 874 782 q 811 440 874 538 q 608 219 749 343 q 434 78 524 144 q 285 -17 344 11 q 272 -40 281 -32 q 247 -47 264 -47 q 229 -42 235 -47 q 224 -25 224 -37 q 230 44 224 -17 q 236 188 236 106 q 232 426 236 318 q 56 403 76 403 q 31 413 42 403 q 19 436 19 422 q 44 472 19 471 q 231 490 121 476 l 229 622 q 246 757 229 704 q 290 790 258 790 q 310 786 301 790 q 319 774 319 782 q 305 725 318 767 q 292 646 292 683 l 293 499 q 367 510 335 504 q 424 519 400 515 q 511 533 471 528 q 572 539 551 539 q 600 514 600 539 q 592 474 600 494 q 567 454 583 454 q 549 455 556 454 q 539 456 543 456 q 486 458 519 458 q 372 446 472 458 l 294 436 q 299 199 299 307 q 297 74 299 94 q 433 154 347 93 q 576 265 518 215 q 753 460 697 374 q 808 639 808 546 q 667 793 808 751 q 299 835 526 835 q 113 818 229 835 q 43 804 90 817 q 14 797 22 797 q -8 815 3 797 q -18 851 -18 833 q -8 865 -18 858 q 22 874 1 871 q 165 890 106 885 q 303 896 224 896 z "},"E":{"ha":822,"x_min":53,"x_max":790,"o":"m 790 886 q 767 857 790 869 q 649 813 729 836 q 518 779 569 789 q 356 755 438 764 q 251 744 275 746 q 256 578 253 664 q 260 461 258 493 q 422 488 314 468 l 475 496 q 610 551 563 511 q 646 571 635 571 q 662 560 656 571 q 668 539 668 550 q 612 484 668 514 q 488 440 556 454 q 360 417 431 428 q 267 403 289 406 q 315 50 275 165 q 394 30 356 36 q 494 24 433 24 q 611 40 556 24 q 701 79 667 56 q 735 124 735 103 q 731 145 735 135 q 719 167 726 156 q 710 180 717 171 q 704 194 704 189 q 735 208 704 208 q 773 190 757 208 q 789 149 789 171 q 749 61 789 104 q 641 -9 710 18 q 489 -36 572 -36 q 350 -27 404 -36 q 268 8 296 -18 q 222 139 235 46 q 199 388 208 232 q 140 376 172 381 q 90 371 107 371 q 63 381 74 371 q 53 407 53 392 q 56 424 53 417 q 67 432 60 431 q 133 439 113 438 l 193 446 q 182 738 188 625 q 149 736 161 738 l 85 735 q 65 742 72 735 q 58 757 58 749 q 103 801 58 790 q 145 808 119 804 q 179 811 171 811 q 238 840 206 840 q 247 831 243 840 q 250 818 250 822 q 468 839 342 822 q 725 892 551 850 l 776 903 q 790 886 790 903 z "},"É":{"ha":822,"x_min":53,"x_max":790,"o":"m 790 886 q 767 857 790 869 q 649 813 729 836 q 518 779 569 789 q 356 755 438 764 q 251 744 275 746 q 256 578 253 664 q 260 461 258 493 q 422 488 314 468 l 475 496 q 610 551 563 511 q 646 571 635 571 q 662 560 656 571 q 668 539 668 550 q 612 484 668 514 q 488 440 556 454 q 360 417 431 428 q 267 403 289 406 q 315 50 275 165 q 394 30 356 36 q 494 24 433 24 q 611 40 556 24 q 701 79 667 56 q 735 124 735 103 q 731 145 735 135 q 719 167 726 156 q 710 180 717 171 q 704 194 704 189 q 735 208 704 208 q 773 190 757 208 q 789 149 789 171 q 749 61 789 104 q 641 -9 710 18 q 489 -36 572 -36 q 350 -27 404 -36 q 268 8 296 -18 q 222 139 235 46 q 199 388 208 232 q 140 376 172 381 q 90 371 107 371 q 63 381 74 371 q 53 407 53 392 q 56 424 53 417 q 67 432 60 431 q 133 439 113 438 l 193 446 q 182 738 188 625 q 149 736 161 738 l 85 735 q 65 742 72 735 q 58 757 58 749 q 103 801 58 790 q 145 808 119 804 q 179 811 171 811 q 238 840 206 840 q 247 831 243 840 q 250 818 250 822 q 468 839 342 822 q 725 892 551 850 l 776 903 q 790 886 790 903 m 575 1082 q 531 1016 575 1064 q 434 926 486 968 q 364 885 382 885 q 344 892 351 885 q 336 910 336 899 q 382 960 336 917 q 460 1039 435 1007 q 493 1089 481 1068 q 515 1119 508 1113 q 531 1126 521 1126 q 560 1111 544 1126 q 575 1082 575 1096 z "},"Ê":{"ha":822,"x_min":53,"x_max":790,"o":"m 790 886 q 767 857 790 869 q 649 813 729 836 q 518 779 569 789 q 356 755 438 764 q 251 744 275 746 q 256 578 253 664 q 260 461 258 493 q 422 488 314 468 l 475 496 q 610 551 563 511 q 646 571 635 571 q 662 560 656 571 q 668 539 668 550 q 612 484 668 514 q 488 440 556 454 q 360 417 431 428 q 267 403 289 406 q 315 50 275 165 q 394 30 356 36 q 494 24 433 24 q 611 40 556 24 q 701 79 667 56 q 735 124 735 103 q 731 145 735 135 q 719 167 726 156 q 710 180 717 171 q 704 194 704 189 q 735 208 704 208 q 773 190 757 208 q 789 149 789 171 q 749 61 789 104 q 641 -9 710 18 q 489 -36 572 -36 q 350 -27 404 -36 q 268 8 296 -18 q 222 139 235 46 q 199 388 208 232 q 140 376 172 381 q 90 371 107 371 q 63 381 74 371 q 53 407 53 392 q 56 424 53 417 q 67 432 60 431 q 133 439 113 438 l 193 446 q 182 738 188 625 q 149 736 161 738 l 85 735 q 65 742 72 735 q 58 757 58 749 q 103 801 58 790 q 145 808 119 804 q 179 811 171 811 q 238 840 206 840 q 247 831 243 840 q 250 818 250 822 q 468 839 342 822 q 725 892 551 850 l 776 903 q 790 886 790 903 m 368 1136 q 388 1149 376 1149 q 406 1135 393 1149 q 424 1115 419 1121 q 596 964 515 1015 q 616 949 608 956 q 624 936 624 943 q 615 915 624 926 q 592 903 606 903 q 533 929 567 903 q 476 979 500 956 l 444 1013 l 388 1068 l 367 1043 q 272 932 304 967 q 218 897 239 897 q 201 905 207 897 q 194 919 194 913 q 253 993 194 931 q 350 1108 311 1061 l 368 1136 z "},"Ë":{"ha":822,"x_min":53,"x_max":790,"o":"m 790 886 q 767 857 790 869 q 649 813 729 836 q 518 779 569 789 q 356 755 438 764 q 251 744 275 746 q 256 578 253 664 q 260 461 258 493 q 422 488 314 468 l 475 496 q 610 551 563 511 q 646 571 635 571 q 662 560 656 571 q 668 539 668 550 q 612 484 668 514 q 488 440 556 454 q 360 417 431 428 q 267 403 289 406 q 315 50 275 165 q 394 30 356 36 q 494 24 433 24 q 611 40 556 24 q 701 79 667 56 q 735 124 735 103 q 731 145 735 135 q 719 167 726 156 q 710 180 717 171 q 704 194 704 189 q 735 208 704 208 q 773 190 757 208 q 789 149 789 171 q 749 61 789 104 q 641 -9 710 18 q 489 -36 572 -36 q 350 -27 404 -36 q 268 8 296 -18 q 222 139 235 46 q 199 388 208 232 q 140 376 172 381 q 90 371 107 371 q 63 381 74 371 q 53 407 53 392 q 56 424 53 417 q 67 432 60 431 q 133 439 113 438 l 193 446 q 182 738 188 625 q 149 736 161 738 l 85 735 q 65 742 72 735 q 58 757 58 749 q 103 801 58 790 q 145 808 119 804 q 179 811 171 811 q 238 840 206 840 q 247 831 243 840 q 250 818 250 822 q 468 839 342 822 q 725 892 551 850 l 776 903 q 790 886 790 903 m 583 947 q 568 924 583 935 q 539 914 553 914 q 492 947 515 914 q 468 1006 468 981 q 486 1034 468 1021 q 518 1047 504 1047 q 546 1027 531 1047 q 572 982 561 1007 q 583 947 583 957 m 324 931 q 288 914 324 914 q 249 933 267 914 q 219 977 231 953 q 208 1010 208 1001 q 222 1029 208 1021 q 250 1038 235 1038 q 299 999 274 1038 q 324 931 324 961 z "},"È":{"ha":822,"x_min":53,"x_max":790,"o":"m 790 886 q 767 857 790 869 q 649 813 729 836 q 518 779 569 789 q 356 755 438 764 q 251 744 275 746 q 256 578 253 664 q 260 461 258 493 q 422 488 314 468 l 475 496 q 610 551 563 511 q 646 571 635 571 q 662 560 656 571 q 668 539 668 550 q 612 484 668 514 q 488 440 556 454 q 360 417 431 428 q 267 403 289 406 q 315 50 275 165 q 394 30 356 36 q 494 24 433 24 q 611 40 556 24 q 701 79 667 56 q 735 124 735 103 q 731 145 735 135 q 719 167 726 156 q 710 180 717 171 q 704 194 704 189 q 735 208 704 208 q 773 190 757 208 q 789 149 789 171 q 749 61 789 104 q 641 -9 710 18 q 489 -36 572 -36 q 350 -27 404 -36 q 268 8 296 -18 q 222 139 235 46 q 199 388 208 232 q 140 376 172 381 q 90 371 107 371 q 63 381 74 371 q 53 407 53 392 q 56 424 53 417 q 67 432 60 431 q 133 439 113 438 l 193 446 q 182 738 188 625 q 149 736 161 738 l 85 735 q 65 742 72 735 q 58 757 58 749 q 103 801 58 790 q 145 808 119 804 q 179 811 171 811 q 238 840 206 840 q 247 831 243 840 q 250 818 250 822 q 468 839 342 822 q 725 892 551 850 l 776 903 q 790 886 790 903 m 493 915 q 485 897 493 904 q 465 890 478 890 q 395 932 447 890 q 299 1022 343 974 q 254 1088 254 1069 q 269 1117 254 1101 q 299 1132 285 1132 q 315 1125 308 1132 q 336 1094 321 1118 q 369 1044 349 1074 q 447 965 394 1013 q 493 915 493 922 z "},"F":{"ha":821,"x_min":-1,"x_max":761,"o":"m 751 488 q 721 440 751 444 q 537 405 682 436 q 324 356 392 374 q 324 227 324 325 q 328 61 325 129 q 334 3 329 35 q 340 -43 339 -29 q 349 -103 349 -93 q 334 -148 349 -118 q 310 -178 319 -178 q 292 -168 300 -178 q 281 -144 283 -158 q 261 58 267 -82 q 254 325 254 229 q 227 320 246 324 q 194 315 208 317 q 165 322 181 315 q 150 339 150 329 q 158 356 150 350 q 175 365 165 361 q 189 369 185 368 q 256 396 239 390 l 244 706 q 93 689 142 689 q 18 715 39 689 q -1 764 -1 742 q 17 776 -1 776 q 49 767 19 776 q 101 757 79 757 q 243 771 146 757 q 244 792 243 774 q 257 826 246 811 q 269 843 264 839 q 282 847 275 847 q 308 789 308 847 q 397 806 328 793 q 554 829 465 818 q 708 840 643 840 q 761 819 761 840 q 749 776 761 803 q 722 750 738 750 q 711 756 717 750 q 703 764 706 763 q 667 769 690 769 q 495 751 624 769 q 310 721 367 733 l 319 419 q 550 472 394 439 q 732 506 706 506 q 747 502 743 506 q 751 488 751 499 z "},"G":{"ha":1007,"x_min":47,"x_max":949,"o":"m 915 -131 q 925 -198 918 -178 q 940 -227 932 -218 q 949 -243 949 -236 q 938 -258 949 -253 q 915 -264 928 -264 q 865 -247 885 -264 q 844 -196 844 -229 q 847 90 844 -21 l 850 214 q 854 407 854 343 q 582 -60 715 97 q 283 -218 449 -218 q 104 -143 161 -218 q 47 90 47 -68 q 143 506 47 303 q 390 838 239 710 q 694 965 540 965 q 760 935 743 965 q 778 871 778 904 q 772 816 778 836 q 757 796 765 796 q 747 808 750 796 q 739 853 743 821 q 725 898 735 883 q 690 913 715 913 q 427 788 563 913 q 202 472 292 663 q 113 99 113 281 q 151 -81 113 -17 q 289 -146 189 -146 q 490 -61 397 -146 q 656 148 583 24 q 829 478 729 272 q 631 422 758 464 q 576 404 576 404 l 525 388 q 442 360 474 369 q 389 351 410 351 q 367 365 375 351 q 360 393 360 378 q 417 433 360 413 q 588 478 474 453 q 715 511 632 488 q 799 533 729 515 q 897 551 869 551 q 913 551 900 551 q 932 541 926 551 q 938 508 938 531 q 921 486 938 496 l 919 379 q 915 143 915 271 l 915 -54 l 915 -131 z "},"H":{"ha":950,"x_min":-25,"x_max":871,"o":"m 871 378 q 839 346 871 356 q 778 335 814 338 q 732 333 743 333 q 726 238 731 290 q 719 150 722 185 l 715 107 l 713 63 l 704 -44 q 658 -115 699 -115 q 628 -80 643 -115 q 614 -22 614 -44 q 625 0 614 -17 q 639 42 636 17 q 651 171 644 81 q 661 322 658 261 q 544 310 607 318 q 419 297 517 307 q 267 285 322 288 q 254 61 261 193 q 247 -100 247 -71 q 251 -129 247 -111 q 254 -157 254 -147 q 235 -182 254 -169 q 206 -194 217 -194 q 183 -176 192 -194 q 174 -135 174 -158 q 176 -94 174 -122 q 181 -44 179 -65 q 188 17 186 -7 q 199 175 194 99 q 204 278 203 251 q 39 263 117 263 q -6 276 13 263 q -25 314 -25 289 q -16 341 -25 332 q 21 350 -7 350 l 94 349 q 211 346 167 346 q 218 535 218 464 q 215 824 218 696 l 215 875 q 231 909 215 896 q 268 922 247 922 q 289 899 283 922 q 294 846 294 875 q 288 721 294 815 q 279 550 279 560 l 272 351 q 668 388 389 354 q 688 599 674 428 q 697 731 693 689 l 706 839 q 724 1094 724 1043 q 738 1124 724 1113 q 769 1135 751 1135 q 794 1086 794 1135 q 781 924 794 1056 q 764 732 765 751 q 748 528 756 625 q 738 397 740 431 q 782 410 763 401 q 821 418 807 418 q 853 401 835 418 q 871 378 871 385 z "},"I":{"ha":921,"x_min":28,"x_max":854,"o":"m 854 886 q 828 849 854 860 q 750 828 801 838 q 606 806 693 817 q 464 793 518 796 q 453 449 460 733 q 444 28 446 164 q 642 38 519 29 q 757 43 744 43 q 802 32 782 43 q 822 -3 822 21 q 816 -31 822 -22 q 789 -39 810 -39 q 743 -35 781 -39 q 696 -29 715 -29 q 435 -37 631 -29 q 419 -52 428 -47 q 403 -57 410 -57 q 386 -53 394 -57 q 376 -40 378 -49 l 314 -47 q 153 -61 206 -61 q 83 -42 107 -61 q 71 -1 71 -31 q 80 19 71 7 q 99 32 89 32 q 120 24 101 32 q 156 17 139 17 q 307 22 207 17 l 371 26 l 379 231 q 382 288 381 263 q 383 332 383 314 l 397 786 q 260 776 253 776 q 93 765 118 765 q 49 781 69 765 q 28 819 28 796 q 37 846 28 836 q 61 856 46 856 q 83 854 72 856 q 106 851 94 853 q 172 844 140 844 q 289 849 203 844 q 404 856 375 854 q 417 885 406 874 q 446 897 428 897 q 460 886 454 897 q 465 861 465 875 q 756 897 546 864 q 792 913 772 900 q 815 925 813 925 q 842 914 829 925 q 854 886 854 903 z "},"Í":{"ha":921,"x_min":28,"x_max":854,"o":"m 854 886 q 828 849 854 860 q 750 828 801 838 q 606 806 693 817 q 464 793 518 796 q 453 449 460 733 q 444 28 446 164 q 642 38 519 29 q 757 43 744 43 q 802 32 782 43 q 822 -3 822 21 q 816 -31 822 -22 q 789 -39 810 -39 q 743 -35 781 -39 q 696 -29 715 -29 q 435 -37 631 -29 q 419 -52 428 -47 q 403 -57 410 -57 q 386 -53 394 -57 q 376 -40 378 -49 l 314 -47 q 153 -61 206 -61 q 83 -42 107 -61 q 71 -1 71 -31 q 80 19 71 7 q 99 32 89 32 q 120 24 101 32 q 156 17 139 17 q 307 22 207 17 l 371 26 l 379 231 q 382 288 381 263 q 383 332 383 314 l 397 786 q 260 776 253 776 q 93 765 118 765 q 49 781 69 765 q 28 819 28 796 q 37 846 28 836 q 61 856 46 856 q 83 854 72 856 q 106 851 94 853 q 172 844 140 844 q 289 849 203 844 q 404 856 375 854 q 417 885 406 874 q 446 897 428 897 q 460 886 454 897 q 465 861 465 875 q 756 897 546 864 q 792 913 772 900 q 815 925 813 925 q 842 914 829 925 q 854 886 854 903 m 599 1131 q 554 1065 599 1113 q 458 975 510 1017 q 388 933 406 933 q 367 940 375 933 q 360 958 360 947 q 406 1008 360 965 q 483 1088 458 1056 q 517 1138 504 1117 q 538 1168 532 1161 q 554 1175 544 1175 q 583 1160 568 1175 q 599 1131 599 1144 z "},"Î":{"ha":921,"x_min":28,"x_max":854,"o":"m 854 886 q 828 849 854 860 q 750 828 801 838 q 606 806 693 817 q 464 793 518 796 q 453 449 460 733 q 444 28 446 164 q 642 38 519 29 q 757 43 744 43 q 802 32 782 43 q 822 -3 822 21 q 816 -31 822 -22 q 789 -39 810 -39 q 743 -35 781 -39 q 696 -29 715 -29 q 435 -37 631 -29 q 419 -52 428 -47 q 403 -57 410 -57 q 386 -53 394 -57 q 376 -40 378 -49 l 314 -47 q 153 -61 206 -61 q 83 -42 107 -61 q 71 -1 71 -31 q 80 19 71 7 q 99 32 89 32 q 120 24 101 32 q 156 17 139 17 q 307 22 207 17 l 371 26 l 379 231 q 382 288 381 263 q 383 332 383 314 l 397 786 q 260 776 253 776 q 93 765 118 765 q 49 781 69 765 q 28 819 28 796 q 37 846 28 836 q 61 856 46 856 q 83 854 72 856 q 106 851 94 853 q 172 844 140 844 q 289 849 203 844 q 404 856 375 854 q 417 885 406 874 q 446 897 428 897 q 460 886 454 897 q 465 861 465 875 q 756 897 546 864 q 792 913 772 900 q 815 925 813 925 q 842 914 829 925 q 854 886 854 903 m 411 1158 q 431 1171 419 1171 q 449 1157 436 1171 q 467 1138 463 1143 q 639 986 558 1038 q 659 972 651 978 q 667 958 667 965 q 658 937 667 949 q 635 925 649 925 q 576 951 610 925 q 519 1001 543 978 l 488 1035 l 431 1090 l 410 1065 q 315 954 347 989 q 261 919 282 919 q 244 927 250 919 q 238 942 238 935 q 296 1015 238 953 q 393 1131 354 1083 l 411 1158 z "},"Ï":{"ha":921,"x_min":28,"x_max":854,"o":"m 854 886 q 828 849 854 860 q 750 828 801 838 q 606 806 693 817 q 464 793 518 796 q 453 449 460 733 q 444 28 446 164 q 642 38 519 29 q 757 43 744 43 q 802 32 782 43 q 822 -3 822 21 q 816 -31 822 -22 q 789 -39 810 -39 q 743 -35 781 -39 q 696 -29 715 -29 q 435 -37 631 -29 q 419 -52 428 -47 q 403 -57 410 -57 q 386 -53 394 -57 q 376 -40 378 -49 l 314 -47 q 153 -61 206 -61 q 83 -42 107 -61 q 71 -1 71 -31 q 80 19 71 7 q 99 32 89 32 q 120 24 101 32 q 156 17 139 17 q 307 22 207 17 l 371 26 l 379 231 q 382 288 381 263 q 383 332 383 314 l 397 786 q 260 776 253 776 q 93 765 118 765 q 49 781 69 765 q 28 819 28 796 q 37 846 28 836 q 61 856 46 856 q 83 854 72 856 q 106 851 94 853 q 172 844 140 844 q 289 849 203 844 q 404 856 375 854 q 417 885 406 874 q 446 897 428 897 q 460 886 454 897 q 465 861 465 875 q 756 897 546 864 q 792 913 772 900 q 815 925 813 925 q 842 914 829 925 q 854 886 854 903 m 619 974 q 604 951 619 961 q 575 940 589 940 q 528 974 551 940 q 504 1032 504 1007 q 522 1060 504 1047 q 554 1074 540 1074 q 582 1053 567 1074 q 608 1008 597 1033 q 619 974 619 983 m 360 957 q 324 940 360 940 q 285 960 303 940 q 256 1003 267 979 q 244 1036 244 1028 q 258 1056 244 1047 q 286 1064 271 1064 q 335 1026 310 1064 q 360 957 360 988 z "},"Ì":{"ha":921,"x_min":28,"x_max":854,"o":"m 854 886 q 828 849 854 860 q 750 828 801 838 q 606 806 693 817 q 464 793 518 796 q 453 449 460 733 q 444 28 446 164 q 642 38 519 29 q 757 43 744 43 q 802 32 782 43 q 822 -3 822 21 q 816 -31 822 -22 q 789 -39 810 -39 q 743 -35 781 -39 q 696 -29 715 -29 q 435 -37 631 -29 q 419 -52 428 -47 q 403 -57 410 -57 q 386 -53 394 -57 q 376 -40 378 -49 l 314 -47 q 153 -61 206 -61 q 83 -42 107 -61 q 71 -1 71 -31 q 80 19 71 7 q 99 32 89 32 q 120 24 101 32 q 156 17 139 17 q 307 22 207 17 l 371 26 l 379 231 q 382 288 381 263 q 383 332 383 314 l 397 786 q 260 776 253 776 q 93 765 118 765 q 49 781 69 765 q 28 819 28 796 q 37 846 28 836 q 61 856 46 856 q 83 854 72 856 q 106 851 94 853 q 172 844 140 844 q 289 849 203 844 q 404 856 375 854 q 417 885 406 874 q 446 897 428 897 q 460 886 454 897 q 465 861 465 875 q 756 897 546 864 q 792 913 772 900 q 815 925 813 925 q 842 914 829 925 q 854 886 854 903 m 517 963 q 509 944 517 951 q 489 938 501 938 q 419 979 471 938 q 322 1069 367 1021 q 278 1135 278 1117 q 293 1164 278 1149 q 322 1179 308 1179 q 338 1172 332 1179 q 360 1142 344 1165 q 393 1092 372 1121 q 471 1013 418 1060 q 517 963 517 969 z "},"J":{"ha":808,"x_min":-14,"x_max":839,"o":"m 839 851 q 822 815 839 832 q 785 794 806 799 q 614 776 710 778 l 619 733 q 655 443 640 581 q 669 179 669 306 q 613 -33 669 29 q 429 -94 556 -94 q 243 -57 349 -94 q 62 36 138 -19 q -14 139 -14 92 q 7 179 -14 160 q 54 213 28 199 q 92 226 81 226 q 115 217 110 226 q 122 200 122 206 q 113 188 122 193 q 82 169 90 176 q 74 149 74 163 q 130 74 74 115 q 268 2 186 32 q 421 -28 350 -28 q 519 -14 482 -28 q 578 45 557 0 q 599 181 599 90 q 551 676 599 332 q 544 734 547 708 q 539 778 540 760 q 388 779 444 778 q 210 792 282 782 q 176 808 189 794 q 163 840 163 821 q 171 857 163 849 q 190 865 179 865 q 254 861 218 865 q 471 851 354 851 l 526 851 q 522 903 521 888 q 538 926 524 915 q 568 938 553 938 q 594 913 585 938 q 608 851 599 901 q 712 856 674 851 q 756 863 750 861 q 807 868 794 868 q 830 864 821 868 q 839 851 839 860 z "},"K":{"ha":799,"x_min":151,"x_max":825,"o":"m 825 121 q 817 89 825 103 q 799 75 808 75 q 508 168 731 75 l 471 185 q 348 235 392 218 q 264 263 304 251 q 256 21 264 90 q 215 -35 240 -35 q 192 -28 203 -35 q 182 -10 182 -21 q 186 58 182 15 q 194 211 194 147 l 194 269 q 174 287 181 279 q 168 304 168 294 q 176 327 168 317 q 193 347 183 338 q 207 361 203 356 q 208 463 208 390 q 157 844 208 643 l 151 872 q 167 903 151 892 q 204 914 183 914 q 235 854 219 914 q 261 702 251 794 q 271 517 271 610 l 271 424 q 358 519 290 444 q 492 669 426 594 q 661 900 601 799 q 699 972 676 928 q 725 1015 719 1015 q 740 982 740 1015 q 728 905 740 942 q 692 826 715 868 q 602 692 653 758 q 474 543 551 626 q 422 490 444 513 q 383 450 400 468 q 268 329 311 378 q 352 299 286 322 q 524 239 418 275 q 649 197 599 213 q 735 168 699 181 q 754 162 743 165 q 778 154 765 158 q 825 121 825 139 z "},"L":{"ha":799,"x_min":176,"x_max":750,"o":"m 750 103 q 734 74 750 85 q 696 61 718 63 l 457 43 l 292 29 l 206 22 q 185 36 194 22 q 176 63 176 50 q 183 77 176 72 q 197 84 189 82 q 207 88 204 86 q 208 438 208 163 q 192 752 208 640 q 176 872 176 864 q 191 903 176 892 q 221 914 206 914 q 236 906 231 914 q 244 882 242 899 q 266 708 258 835 q 274 444 274 582 q 272 228 274 328 q 271 93 271 128 q 340 98 289 94 q 446 106 392 101 q 628 135 526 115 q 726 150 710 150 q 746 136 742 150 q 750 103 750 122 z "},"M":{"ha":1122,"x_min":93,"x_max":1078,"o":"m 1078 74 q 1062 52 1078 64 q 1026 40 1046 40 q 1000 42 1010 40 q 986 54 990 44 q 957 178 974 75 q 925 414 940 281 q 874 829 892 821 q 826 703 858 796 q 753 463 794 611 q 683 242 707 303 q 642 168 660 182 q 615 149 631 158 q 588 140 599 140 q 569 144 574 140 q 560 165 565 147 q 533 295 554 186 q 501 492 513 404 l 493 550 q 461 751 469 731 q 411 647 435 728 q 357 417 388 565 q 286 42 328 301 q 265 14 285 26 q 231 1 246 1 q 206 44 208 1 q 187 231 204 88 q 156 482 169 374 q 103 768 136 636 q 93 815 93 810 q 113 849 93 836 q 157 863 133 863 q 181 776 168 863 q 207 560 193 690 l 211 514 q 224 418 217 468 q 253 151 250 206 q 315 475 281 313 l 328 536 q 394 759 358 683 q 488 835 431 835 q 528 741 506 835 q 563 522 550 647 q 588 349 572 433 q 615 231 603 264 q 649 335 624 254 q 697 488 675 415 q 842 903 765 719 q 869 945 856 932 q 915 958 882 958 q 954 800 933 958 q 989 433 975 642 q 1057 113 1026 139 q 1078 74 1078 94 z "},"N":{"ha":958,"x_min":169,"x_max":811,"o":"m 811 10 q 757 -7 811 -7 q 627 142 747 -7 q 429 397 507 292 q 358 499 418 413 q 250 653 271 626 l 247 546 l 246 442 q 244 228 246 343 q 239 44 242 113 q 224 14 238 28 q 197 0 211 0 q 176 9 182 0 q 169 44 169 18 q 175 147 169 61 q 188 415 188 307 q 190 578 188 501 q 193 674 193 656 l 194 714 l 194 718 q 199 742 194 733 q 219 751 204 751 l 226 751 q 287 697 242 751 q 401 547 332 642 q 431 509 417 528 q 457 474 444 490 q 540 367 536 372 q 756 81 738 115 q 746 132 753 92 q 733 238 739 172 q 726 372 726 303 q 703 699 726 496 q 696 781 696 765 q 756 833 696 833 q 776 805 769 833 q 786 685 783 776 q 789 392 789 593 q 794 267 789 328 q 803 158 799 206 q 810 60 810 93 l 811 10 z "},"Ñ":{"ha":958,"x_min":169,"x_max":811,"o":"m 811 10 q 757 -7 811 -7 q 627 142 747 -7 q 429 397 507 292 q 358 499 418 413 q 250 653 271 626 l 247 546 l 246 442 q 244 228 246 343 q 239 44 242 113 q 224 14 238 28 q 197 0 211 0 q 176 9 182 0 q 169 44 169 18 q 175 147 169 61 q 188 415 188 307 q 190 578 188 501 q 193 674 193 656 l 194 714 l 194 718 q 199 742 194 733 q 219 751 204 751 l 226 751 q 287 697 242 751 q 401 547 332 642 q 431 509 417 528 q 457 474 444 490 q 540 367 536 372 q 756 81 738 115 q 746 132 753 92 q 733 238 739 172 q 726 372 726 303 q 703 699 726 496 q 696 781 696 765 q 756 833 696 833 q 776 805 769 833 q 786 685 783 776 q 789 392 789 593 q 794 267 789 328 q 803 158 799 206 q 810 60 810 93 l 811 10 m 693 1003 q 676 935 693 969 q 630 879 658 901 q 571 857 601 857 q 515 873 539 857 q 456 919 490 889 q 411 956 428 944 q 376 967 394 967 q 274 888 313 967 q 269 873 271 882 q 263 859 267 864 q 254 854 260 854 q 235 862 244 854 q 226 881 226 869 q 244 938 226 908 q 307 1003 269 978 q 386 1028 344 1028 q 431 1015 411 1028 q 481 972 450 1001 q 531 928 510 943 q 578 914 551 914 q 613 928 601 914 q 630 960 624 943 q 638 982 636 976 q 667 1015 651 1015 q 685 1012 676 1015 q 693 1003 693 1008 z "},"O":{"ha":994,"x_min":83,"x_max":918,"o":"m 918 569 q 838 296 918 426 q 631 85 757 165 q 375 4 504 4 q 233 35 300 4 q 125 128 167 67 q 83 275 83 189 q 160 580 83 422 q 372 876 236 738 q 399 893 386 889 q 428 897 411 897 q 455 890 442 897 q 468 874 468 883 q 463 858 468 868 q 457 844 458 847 q 477 847 465 844 q 524 849 489 849 q 633 835 564 849 q 733 808 701 822 q 871 705 824 768 q 918 569 918 642 m 858 540 q 821 672 858 621 q 710 756 783 722 q 608 774 669 774 q 556 771 589 774 l 504 769 q 438 797 438 769 q 439 815 438 807 q 442 826 440 824 q 394 810 413 826 q 219 558 281 692 q 157 299 157 425 q 216 127 157 181 q 378 74 275 74 q 606 140 494 74 q 788 315 718 207 q 858 540 858 424 z "},"Ó":{"ha":1040,"x_min":83,"x_max":918,"o":"m 918 569 q 838 296 918 426 q 631 85 757 165 q 375 4 504 4 q 233 35 300 4 q 125 128 167 67 q 83 275 83 189 q 160 580 83 422 q 372 876 236 738 q 399 893 386 889 q 428 897 411 897 q 455 890 442 897 q 468 874 468 883 q 463 858 468 868 q 457 844 458 847 q 477 847 465 844 q 524 849 489 849 q 633 835 564 849 q 733 808 701 822 q 871 705 824 768 q 918 569 918 642 m 858 540 q 821 672 858 621 q 710 756 783 722 q 608 774 669 774 q 556 771 589 774 l 504 769 q 438 797 438 769 q 439 815 438 807 q 442 826 440 824 q 394 810 413 826 q 219 558 281 692 q 157 299 157 425 q 216 127 157 181 q 378 74 275 74 q 606 140 494 74 q 788 315 718 207 q 858 540 858 424 m 699 1143 q 654 1077 699 1125 q 558 988 610 1029 q 488 946 506 946 q 467 953 475 946 q 460 971 460 960 q 506 1021 460 978 q 583 1100 558 1068 q 617 1150 604 1129 q 638 1181 632 1174 q 654 1188 644 1188 q 683 1172 668 1188 q 699 1143 699 1157 z "},"Ô":{"ha":1040,"x_min":83,"x_max":918,"o":"m 918 569 q 838 296 918 426 q 631 85 757 165 q 375 4 504 4 q 233 35 300 4 q 125 128 167 67 q 83 275 83 189 q 160 580 83 422 q 372 876 236 738 q 399 893 386 889 q 428 897 411 897 q 455 890 442 897 q 468 874 468 883 q 463 858 468 868 q 457 844 458 847 q 477 847 465 844 q 524 849 489 849 q 633 835 564 849 q 733 808 701 822 q 871 705 824 768 q 918 569 918 642 m 858 540 q 821 672 858 621 q 710 756 783 722 q 608 774 669 774 q 556 771 589 774 l 504 769 q 438 797 438 769 q 439 815 438 807 q 442 826 440 824 q 394 810 413 826 q 219 558 281 692 q 157 299 157 425 q 216 127 157 181 q 378 74 275 74 q 606 140 494 74 q 788 315 718 207 q 858 540 858 424 m 461 1160 q 481 1172 469 1172 q 499 1158 486 1172 q 517 1139 513 1144 q 689 988 608 1039 q 709 973 701 979 q 717 960 717 967 q 708 938 717 950 q 685 926 699 926 q 626 953 660 926 q 569 1003 593 979 l 538 1036 l 481 1092 l 460 1067 q 365 956 397 990 q 311 921 332 921 q 294 928 300 921 q 288 943 288 936 q 346 1017 288 954 q 443 1132 404 1085 l 461 1160 z "},"Ö":{"ha":1040,"x_min":83,"x_max":918,"o":"m 918 569 q 838 296 918 426 q 631 85 757 165 q 375 4 504 4 q 233 35 300 4 q 125 128 167 67 q 83 275 83 189 q 160 580 83 422 q 372 876 236 738 q 399 893 386 889 q 428 897 411 897 q 455 890 442 897 q 468 874 468 883 q 463 858 468 868 q 457 844 458 847 q 477 847 465 844 q 524 849 489 849 q 633 835 564 849 q 733 808 701 822 q 871 705 824 768 q 918 569 918 642 m 858 540 q 821 672 858 621 q 710 756 783 722 q 608 774 669 774 q 556 771 589 774 l 504 769 q 438 797 438 769 q 439 815 438 807 q 442 826 440 824 q 394 810 413 826 q 219 558 281 692 q 157 299 157 425 q 216 127 157 181 q 378 74 275 74 q 606 140 494 74 q 788 315 718 207 q 858 540 858 424 m 660 982 q 644 959 660 969 q 615 949 629 949 q 568 982 592 949 q 544 1040 544 1015 q 563 1069 544 1056 q 594 1082 581 1082 q 622 1062 607 1082 q 649 1017 638 1042 q 660 982 660 992 m 400 965 q 364 949 400 949 q 325 968 343 949 q 296 1012 307 988 q 285 1044 285 1036 q 298 1064 285 1056 q 326 1072 311 1072 q 375 1034 350 1072 q 400 965 400 996 z "},"Ò":{"ha":1040,"x_min":83,"x_max":918,"o":"m 918 569 q 838 296 918 426 q 631 85 757 165 q 375 4 504 4 q 233 35 300 4 q 125 128 167 67 q 83 275 83 189 q 160 580 83 422 q 372 876 236 738 q 399 893 386 889 q 428 897 411 897 q 455 890 442 897 q 468 874 468 883 q 463 858 468 868 q 457 844 458 847 q 477 847 465 844 q 524 849 489 849 q 633 835 564 849 q 733 808 701 822 q 871 705 824 768 q 918 569 918 642 m 858 540 q 821 672 858 621 q 710 756 783 722 q 608 774 669 774 q 556 771 589 774 l 504 769 q 438 797 438 769 q 439 815 438 807 q 442 826 440 824 q 394 810 413 826 q 219 558 281 692 q 157 299 157 425 q 216 127 157 181 q 378 74 275 74 q 606 140 494 74 q 788 315 718 207 q 858 540 858 424 m 594 961 q 587 943 594 950 q 567 936 579 936 q 497 978 549 936 q 400 1067 444 1019 q 356 1133 356 1115 q 371 1163 356 1147 q 400 1178 386 1178 q 416 1171 410 1178 q 438 1140 422 1164 q 471 1090 450 1119 q 549 1011 496 1058 q 594 961 594 968 z "},"Ø":{"ha":1040,"x_min":74,"x_max":964,"o":"m 685 993 q 676 952 685 972 q 664 921 668 932 l 640 842 q 719 827 681 836 q 779 808 758 818 q 917 705 869 768 q 964 569 964 642 q 925 372 964 456 q 803 208 886 288 q 404 6 600 21 q 385 -121 390 -60 l 381 -157 q 369 -180 379 -172 q 344 -187 358 -187 q 333 -186 338 -187 q 320 -174 324 -185 q 317 -142 317 -164 q 339 6 317 -111 q 211 41 272 11 q 112 115 150 71 q 74 206 74 158 q 117 398 74 276 q 238 650 160 519 q 418 876 317 781 q 444 893 432 889 q 474 897 457 897 q 501 890 488 897 q 514 874 514 883 q 509 858 514 868 q 503 844 504 847 q 523 847 511 844 q 569 849 535 850 l 576 849 q 588 888 586 882 q 620 985 599 932 q 661 1038 642 1038 q 672 1036 668 1038 q 683 1026 681 1033 q 685 1008 685 1018 q 685 993 685 997 m 353 74 q 392 226 369 150 q 450 408 415 301 q 517 624 500 560 q 560 785 531 669 q 500 788 517 786 q 483 800 483 790 q 485 816 483 808 q 488 826 486 824 q 440 810 458 826 q 287 613 354 726 q 183 393 219 499 q 147 229 147 288 q 206 123 147 168 q 353 74 265 78 m 624 782 q 467 251 511 403 q 419 76 439 158 q 590 122 515 85 q 750 232 664 160 q 863 376 821 293 q 904 540 904 460 q 867 672 904 621 q 756 756 829 722 q 624 782 710 776 z "},"Õ":{"ha":1040,"x_min":83,"x_max":918,"o":"m 918 569 q 838 296 918 426 q 631 85 757 165 q 375 4 504 4 q 233 35 300 4 q 125 128 167 67 q 83 275 83 189 q 160 580 83 422 q 372 876 236 738 q 399 893 386 889 q 428 897 411 897 q 455 890 442 897 q 468 874 468 883 q 463 858 468 868 q 457 844 458 847 q 477 847 465 844 q 524 849 489 849 q 633 835 564 849 q 733 808 701 822 q 871 705 824 768 q 918 569 918 642 m 858 540 q 821 672 858 621 q 710 756 783 722 q 608 774 669 774 q 556 771 589 774 l 504 769 q 438 797 438 769 q 439 815 438 807 q 442 826 440 824 q 394 810 413 826 q 219 558 281 692 q 157 299 157 425 q 216 127 157 181 q 378 74 275 74 q 606 140 494 74 q 788 315 718 207 q 858 540 858 424 m 781 1100 q 763 1033 781 1067 q 717 976 746 999 q 658 954 689 954 q 602 970 626 954 q 543 1017 578 986 q 499 1053 515 1042 q 464 1064 482 1064 q 361 985 400 1064 q 356 970 358 979 q 351 956 354 961 q 342 951 347 951 q 323 959 332 951 q 314 978 314 967 q 332 1035 314 1006 q 394 1100 357 1075 q 474 1125 432 1125 q 518 1112 499 1125 q 568 1069 538 1099 q 618 1026 597 1040 q 665 1011 639 1011 q 700 1026 689 1011 q 717 1057 711 1040 q 725 1079 724 1074 q 754 1113 739 1113 q 772 1109 764 1113 q 781 1100 781 1106 z "},"Œ":{"ha":1453,"x_min":79,"x_max":1417,"o":"m 838 361 q 747 194 810 276 q 596 58 685 113 q 404 4 507 4 q 253 38 329 4 q 128 137 178 72 q 79 288 79 201 q 147 576 79 418 q 364 876 215 735 q 390 893 378 889 q 419 897 403 897 q 447 890 433 897 q 460 874 460 883 q 455 858 460 868 q 449 844 450 847 q 469 847 457 844 q 515 849 481 849 q 608 836 553 849 q 696 808 663 824 q 807 735 765 778 l 806 776 q 864 806 832 806 q 873 797 869 806 q 876 783 876 788 q 1094 804 968 788 q 1351 857 1178 815 l 1403 868 q 1417 851 1417 868 q 1319 790 1417 822 q 1097 736 1221 758 q 973 719 1046 726 q 878 710 900 711 q 882 587 879 653 q 886 494 885 521 q 951 503 896 497 q 1002 510 963 504 q 1067 524 1042 515 q 1159 566 1124 543 q 1221 624 1194 589 q 1249 647 1236 647 q 1269 627 1258 647 q 1281 590 1281 607 q 1226 531 1281 564 q 1108 476 1172 499 q 1022 453 1069 464 q 938 438 974 443 q 893 432 903 433 q 917 290 899 360 q 968 179 936 219 q 1040 110 1004 133 q 1131 86 1076 86 q 1235 115 1185 86 q 1318 188 1286 144 q 1350 267 1350 231 q 1342 308 1350 286 q 1334 325 1339 317 q 1329 338 1329 333 q 1344 351 1329 351 q 1369 340 1358 351 q 1390 292 1390 319 q 1354 163 1390 226 q 1258 58 1318 99 q 1129 18 1199 18 q 951 85 1014 18 q 876 207 901 138 q 838 361 850 276 m 815 599 q 767 692 803 654 q 672 756 732 729 q 593 778 633 772 q 499 785 553 783 q 444 788 458 786 q 429 800 429 790 q 431 816 429 808 q 433 826 432 824 q 386 810 404 826 q 206 551 260 690 q 153 297 153 411 q 190 181 153 232 q 285 102 226 131 q 407 74 344 74 q 599 138 510 74 q 746 304 688 203 q 819 511 804 406 l 815 599 z "},"P":{"ha":772,"x_min":-28,"x_max":731,"o":"m 731 672 q 664 531 731 590 q 478 419 597 472 q 390 383 435 400 q 332 363 346 367 q 339 74 339 193 q 348 10 339 35 q 357 -21 357 -14 q 342 -47 357 -36 q 310 -57 326 -57 q 283 -28 289 -57 q 280 -3 283 -25 q 276 60 276 19 q 268 415 276 168 q 264 593 264 540 q 265 676 264 638 q 267 728 267 714 q 115 679 179 704 q 57 647 94 669 q 24 629 40 638 q 0 621 8 621 q -19 631 -11 621 q -28 654 -28 640 q 25 699 -28 672 q 153 751 78 726 q 293 789 229 776 q 460 803 368 803 q 658 770 586 803 q 731 672 731 738 m 667 661 q 607 728 667 708 q 460 747 547 747 q 329 739 396 747 q 326 688 328 728 q 324 611 324 647 l 325 510 q 326 425 326 476 q 450 467 356 428 q 604 556 542 507 q 667 661 667 606 z "},"Þ":{"ha":676,"x_min":168,"x_max":638,"o":"m 231 665 q 281 674 244 669 q 353 678 317 678 q 554 647 471 678 q 638 563 638 615 q 601 450 638 499 q 507 366 564 401 q 357 283 450 331 q 290 256 331 269 q 236 238 249 242 q 253 67 238 185 q 261 -21 261 -14 q 246 -47 261 -36 q 214 -57 231 -57 q 188 -28 193 -57 q 172 209 176 56 q 168 468 168 363 q 172 660 168 561 q 182 811 175 758 q 199 890 189 860 q 243 921 210 921 q 263 904 263 921 q 248 833 261 894 q 231 665 235 772 m 571 549 q 505 603 571 583 q 342 622 439 622 q 229 614 296 622 l 228 486 l 229 385 q 231 300 231 351 q 274 311 244 301 q 329 332 303 321 q 503 433 435 376 q 571 549 571 489 z "},"Q":{"ha":979,"x_min":71,"x_max":911,"o":"m 911 617 q 861 367 911 469 q 717 167 811 264 l 693 144 q 699 116 696 129 q 704 90 701 103 q 739 -17 719 33 q 769 -68 758 -68 q 808 -12 786 -68 q 820 6 814 1 q 835 10 826 10 q 846 7 840 10 q 851 0 851 4 q 838 -50 851 -7 q 806 -129 824 -93 q 771 -165 788 -165 q 732 -146 746 -165 q 710 -106 718 -126 q 700 -79 703 -86 q 651 58 682 -42 l 639 99 q 492 16 551 38 q 351 -6 432 -6 q 205 38 268 -6 q 106 162 142 81 q 71 356 71 243 q 142 645 71 503 q 317 906 213 788 q 336 929 321 911 q 370 958 351 947 q 410 969 389 969 q 453 965 432 969 q 467 980 461 976 q 488 983 474 983 q 692 945 596 983 q 850 824 789 907 q 911 617 911 742 m 851 604 q 801 781 851 711 q 667 882 750 850 q 483 914 583 914 q 470 885 483 897 q 436 872 457 872 q 382 878 418 872 q 206 637 271 771 q 140 344 140 503 q 198 132 140 204 q 354 60 256 60 q 490 81 438 60 q 625 161 543 101 l 607 254 q 571 444 571 432 q 582 474 571 463 q 618 486 593 486 q 641 435 629 486 q 669 282 653 383 l 682 208 q 806 383 761 294 q 851 604 851 472 z "},"R":{"ha":868,"x_min":-231,"x_max":881,"o":"m 881 103 q 867 63 881 86 q 838 39 853 39 q 811 44 824 39 q 774 63 799 49 q 544 163 686 114 q 397 206 482 183 q 263 240 311 229 l 272 61 q 282 -2 274 24 q 290 -35 290 -28 q 275 -60 290 -50 q 243 -71 260 -71 q 217 -42 222 -71 q 213 -17 217 -39 q 210 46 210 6 q 204 158 210 72 q 201 215 203 188 q 200 263 200 242 q 190 272 196 267 q 179 288 183 278 q 172 314 175 300 q 169 335 169 328 q 175 350 169 344 q 192 363 181 356 q 183 760 183 710 q 185 842 183 804 q 186 892 186 879 q 136 885 178 890 q 69 874 94 879 q -66 834 -19 853 q -156 792 -112 815 q -180 778 -168 783 q -203 774 -192 774 q -222 784 -214 774 q -231 810 -231 794 q -142 871 -231 836 q 51 928 -53 906 q 200 949 110 940 q 368 958 290 958 q 595 929 501 958 q 737 847 689 900 q 785 726 785 794 q 735 576 785 639 q 602 468 685 514 q 378 364 519 422 q 306 333 342 347 q 258 314 271 319 q 260 301 258 306 q 556 225 410 268 l 585 217 q 808 145 736 171 q 881 103 881 119 m 715 726 q 675 811 715 772 q 553 874 635 850 q 357 899 472 899 q 249 896 271 899 q 245 850 247 886 q 243 778 243 814 l 249 556 l 254 383 q 303 397 267 385 q 365 419 340 408 q 628 562 542 490 q 715 726 715 633 z "},"S":{"ha":764,"x_min":50,"x_max":710,"o":"m 710 243 q 663 106 710 174 q 533 -3 617 39 q 342 -46 449 -46 q 199 -31 251 -46 q 146 10 146 -17 q 166 56 146 24 q 197 89 186 89 q 214 82 214 89 q 209 72 214 78 q 204 61 204 67 q 222 49 204 57 q 275 33 239 40 q 363 26 311 26 q 506 58 444 26 q 601 139 568 90 q 635 233 635 188 q 577 336 635 293 q 392 418 519 379 q 201 485 268 458 q 92 552 133 513 q 50 649 50 592 q 136 799 50 725 q 349 920 222 874 q 583 967 475 967 q 643 944 639 967 q 647 894 647 922 q 632 874 647 874 q 616 878 625 874 q 600 886 607 883 q 581 892 592 889 q 549 894 569 894 q 375 857 476 894 q 199 764 274 819 q 125 657 125 708 q 159 585 125 615 q 250 533 193 554 q 411 479 307 511 q 637 379 564 435 q 710 243 710 324 z "},"Š":{"ha":764,"x_min":50,"x_max":710,"o":"m 710 243 q 663 106 710 174 q 533 -3 617 39 q 342 -46 449 -46 q 199 -31 251 -46 q 146 10 146 -17 q 166 56 146 24 q 197 89 186 89 q 214 82 214 89 q 209 72 214 78 q 204 61 204 67 q 222 49 204 57 q 275 33 239 40 q 363 26 311 26 q 506 58 444 26 q 601 139 568 90 q 635 233 635 188 q 577 336 635 293 q 392 418 519 379 q 201 485 268 458 q 92 552 133 513 q 50 649 50 592 q 136 799 50 725 q 349 920 222 874 q 583 967 475 967 q 643 944 639 967 q 647 894 647 922 q 632 874 647 874 q 616 878 625 874 q 600 886 607 883 q 581 892 592 889 q 549 894 569 894 q 375 857 476 894 q 199 764 274 819 q 125 657 125 708 q 159 585 125 615 q 250 533 193 554 q 411 479 307 511 q 637 379 564 435 q 710 243 710 324 m 388 1018 q 368 1006 379 1006 q 349 1019 363 1006 q 332 1039 336 1033 q 160 1190 244 1136 q 140 1205 147 1199 q 132 1218 132 1211 q 141 1240 132 1228 q 164 1251 150 1251 q 222 1225 189 1251 q 279 1175 256 1199 l 368 1086 l 389 1111 q 484 1222 451 1188 q 538 1257 517 1257 q 555 1250 549 1257 q 561 1235 561 1243 q 503 1161 561 1224 q 406 1046 444 1093 l 388 1018 z "},"T":{"ha":979,"x_min":0,"x_max":951,"o":"m 951 849 q 942 826 951 838 q 917 814 932 814 q 888 822 913 814 q 843 829 864 829 q 692 822 776 829 q 551 803 607 815 q 559 592 556 736 q 563 290 563 449 q 560 142 563 224 q 554 40 558 60 q 535 15 551 25 q 503 6 519 6 q 486 14 493 6 q 479 33 479 22 l 481 82 q 489 349 489 190 q 486 609 489 463 q 481 790 483 756 q 110 733 203 760 q 72 728 93 728 q 24 746 47 728 q 0 785 0 764 q 8 805 0 799 q 29 811 17 811 q 163 819 108 815 q 474 854 286 831 q 476 915 474 897 q 485 933 478 933 q 532 913 511 933 q 539 891 536 908 q 542 868 542 874 q 642 882 572 869 q 847 906 792 906 q 936 889 914 906 q 951 849 951 878 z "},"U":{"ha":900,"x_min":106,"x_max":874,"o":"m 874 17 q 860 -12 874 0 q 825 -24 846 -24 q 774 35 797 -24 q 746 156 751 93 q 735 401 740 208 q 731 501 732 482 q 512 92 635 268 q 281 -85 389 -85 q 187 -19 226 -85 q 126 156 147 46 q 106 399 106 267 q 118 641 106 506 q 149 836 131 776 q 165 863 154 853 q 189 874 175 874 q 224 847 224 874 q 197 747 224 843 q 171 389 171 651 q 203 103 171 215 q 296 -8 236 -8 q 435 87 354 -8 q 588 314 515 182 q 694 546 661 446 q 724 767 717 619 q 731 826 728 824 q 764 840 742 840 q 789 772 789 840 q 794 461 789 690 q 806 171 799 232 q 826 90 811 119 q 857 42 840 61 q 874 17 874 22 z "},"Ú":{"ha":900,"x_min":106,"x_max":874,"o":"m 874 17 q 860 -12 874 0 q 825 -24 846 -24 q 774 35 797 -24 q 746 156 751 93 q 735 401 740 208 q 731 501 732 482 q 512 92 635 268 q 281 -85 389 -85 q 187 -19 226 -85 q 126 156 147 46 q 106 399 106 267 q 118 641 106 506 q 149 836 131 776 q 165 863 154 853 q 189 874 175 874 q 224 847 224 874 q 197 747 224 843 q 171 389 171 651 q 203 103 171 215 q 296 -8 236 -8 q 435 87 354 -8 q 588 314 515 182 q 694 546 661 446 q 724 767 717 619 q 731 826 728 824 q 764 840 742 840 q 789 772 789 840 q 794 461 789 690 q 806 171 799 232 q 826 90 811 119 q 857 42 840 61 q 874 17 874 22 m 631 1067 q 586 1001 631 1049 q 490 911 542 953 q 419 869 438 869 q 399 876 407 869 q 392 894 392 883 q 438 944 392 901 q 515 1024 490 992 q 549 1074 536 1053 q 570 1104 564 1097 q 586 1111 576 1111 q 615 1096 600 1111 q 631 1067 631 1081 z "},"Û":{"ha":900,"x_min":106,"x_max":874,"o":"m 874 17 q 860 -12 874 0 q 825 -24 846 -24 q 774 35 797 -24 q 746 156 751 93 q 735 401 740 208 q 731 501 732 482 q 512 92 635 268 q 281 -85 389 -85 q 187 -19 226 -85 q 126 156 147 46 q 106 399 106 267 q 118 641 106 506 q 149 836 131 776 q 165 863 154 853 q 189 874 175 874 q 224 847 224 874 q 197 747 224 843 q 171 389 171 651 q 203 103 171 215 q 296 -8 236 -8 q 435 87 354 -8 q 588 314 515 182 q 694 546 661 446 q 724 767 717 619 q 731 826 728 824 q 764 840 742 840 q 789 772 789 840 q 794 461 789 690 q 806 171 799 232 q 826 90 811 119 q 857 42 840 61 q 874 17 874 22 m 456 1161 q 475 1174 464 1174 q 494 1160 481 1174 q 511 1140 507 1146 q 683 989 603 1040 q 703 974 696 981 q 711 961 711 968 q 702 940 711 951 q 679 928 693 928 q 621 954 654 928 q 564 1004 588 981 l 532 1038 l 475 1093 l 454 1068 q 359 957 392 992 q 306 922 326 922 q 288 930 294 922 q 282 944 282 938 q 340 1018 282 956 q 438 1133 399 1086 l 456 1161 z "},"Ü":{"ha":900,"x_min":106,"x_max":874,"o":"m 874 17 q 860 -12 874 0 q 825 -24 846 -24 q 774 35 797 -24 q 746 156 751 93 q 735 401 740 208 q 731 501 732 482 q 512 92 635 268 q 281 -85 389 -85 q 187 -19 226 -85 q 126 156 147 46 q 106 399 106 267 q 118 641 106 506 q 149 836 131 776 q 165 863 154 853 q 189 874 175 874 q 224 847 224 874 q 197 747 224 843 q 171 389 171 651 q 203 103 171 215 q 296 -8 236 -8 q 435 87 354 -8 q 588 314 515 182 q 694 546 661 446 q 724 767 717 619 q 731 826 728 824 q 764 840 742 840 q 789 772 789 840 q 794 461 789 690 q 806 171 799 232 q 826 90 811 119 q 857 42 840 61 q 874 17 874 22 m 669 942 q 654 919 669 929 q 625 908 639 908 q 578 942 601 908 q 554 1000 554 975 q 572 1028 554 1015 q 604 1042 590 1042 q 632 1022 617 1042 q 658 976 647 1001 q 669 942 669 951 m 410 925 q 374 908 410 908 q 335 928 353 908 q 306 972 317 947 q 294 1004 294 996 q 308 1024 294 1015 q 336 1032 321 1032 q 385 994 360 1032 q 410 925 410 956 z "},"Ù":{"ha":900,"x_min":106,"x_max":874,"o":"m 874 17 q 860 -12 874 0 q 825 -24 846 -24 q 774 35 797 -24 q 746 156 751 93 q 735 401 740 208 q 731 501 732 482 q 512 92 635 268 q 281 -85 389 -85 q 187 -19 226 -85 q 126 156 147 46 q 106 399 106 267 q 118 641 106 506 q 149 836 131 776 q 165 863 154 853 q 189 874 175 874 q 224 847 224 874 q 197 747 224 843 q 171 389 171 651 q 203 103 171 215 q 296 -8 236 -8 q 435 87 354 -8 q 588 314 515 182 q 694 546 661 446 q 724 767 717 619 q 731 826 728 824 q 764 840 742 840 q 789 772 789 840 q 794 461 789 690 q 806 171 799 232 q 826 90 811 119 q 857 42 840 61 q 874 17 874 22 m 553 892 q 545 874 553 881 q 525 867 538 867 q 455 908 507 867 q 358 998 403 950 q 314 1064 314 1046 q 329 1093 314 1078 q 358 1108 344 1108 q 374 1101 368 1108 q 396 1071 381 1094 q 429 1021 408 1050 q 507 942 454 989 q 553 892 553 899 z "},"V":{"ha":761,"x_min":7,"x_max":747,"o":"m 747 849 q 725 825 747 844 q 686 771 703 806 q 649 671 668 733 q 596 483 631 608 l 557 340 q 469 -22 486 83 q 447 -62 465 -46 q 393 -78 429 -78 q 334 40 385 -78 q 201 353 283 157 q 100 570 151 469 q 31 686 49 671 q 7 725 7 704 q 26 751 7 735 q 64 768 44 768 q 82 763 76 768 q 97 744 88 758 q 157 630 115 718 q 242 438 199 542 l 356 161 q 418 11 410 33 q 444 136 421 38 q 499 358 467 235 q 576 641 546 538 q 632 806 606 744 q 672 879 656 860 q 710 899 689 899 q 732 877 717 899 q 747 849 747 856 z "},"W":{"ha":985,"x_min":35,"x_max":893,"o":"m 893 801 q 885 588 893 701 q 867 386 876 474 q 840 221 860 311 q 793 66 821 131 q 736 1 765 1 q 694 64 718 1 q 633 247 671 126 l 610 325 q 554 488 585 406 q 507 606 524 571 l 447 401 q 328 17 365 121 q 320 -3 326 14 q 299 -30 314 -21 q 258 -39 283 -39 q 235 33 253 -39 q 200 193 218 106 q 151 403 154 392 q 97 607 118 539 q 58 689 75 675 q 35 728 35 707 q 49 749 35 738 q 83 761 64 761 q 110 759 100 761 q 125 747 119 757 q 200 478 144 715 q 214 424 206 460 q 263 215 243 303 q 281 135 274 171 q 294 82 289 100 q 322 179 296 94 q 393 419 368 321 q 442 585 419 519 q 476 668 464 651 q 499 685 485 678 q 528 693 514 693 q 543 687 538 693 q 553 671 549 681 q 561 654 557 661 q 606 538 575 626 q 663 363 638 449 l 682 299 q 747 93 726 144 q 814 418 796 190 q 824 661 824 504 l 822 801 q 826 827 822 819 q 846 835 831 835 q 878 824 863 835 q 893 801 893 814 z "},"X":{"ha":539,"x_min":-7,"x_max":533,"o":"m 529 192 q 516 130 529 176 q 485 46 503 83 q 453 8 468 8 q 355 133 429 8 q 244 347 281 257 q 171 197 207 278 q 135 94 135 117 q 139 83 135 90 q 149 74 143 76 q 157 69 150 72 q 164 60 164 65 q 153 40 164 53 q 140 22 143 26 q 131 10 136 17 q 118 -8 125 3 q 93 -48 113 -17 q 65 -79 74 -79 q 39 -67 49 -79 q 29 -33 29 -54 q 88 158 29 14 q 206 425 146 303 q 65 735 101 663 l 35 794 q 6 850 18 825 q -7 882 -7 875 q 7 901 -7 901 q 48 872 19 901 q 101 794 76 842 q 175 648 129 743 q 244 494 221 553 q 408 794 390 768 q 443 833 429 824 q 493 843 457 843 q 522 839 510 843 q 533 829 533 835 q 508 800 533 822 q 465 754 476 771 q 400 646 449 732 q 311 483 351 560 l 281 428 q 390 215 335 308 q 464 122 444 122 q 478 133 472 122 q 493 171 483 143 q 501 195 496 178 q 513 213 506 213 q 526 209 522 213 q 529 192 529 206 z "},"Y":{"ha":675,"x_min":19,"x_max":632,"o":"m 632 892 q 624 842 632 868 q 596 764 615 815 q 557 660 581 728 q 464 264 496 481 q 456 186 460 228 q 451 115 451 144 q 462 83 451 99 q 472 64 472 68 q 454 34 472 56 q 414 -6 436 13 q 378 -24 392 -24 q 350 0 350 -24 q 385 209 350 31 q 443 483 419 388 q 383 425 410 446 q 318 404 357 404 q 206 492 263 404 q 92 704 149 581 l 78 732 q 39 801 58 772 q 19 835 19 831 q 30 845 19 842 q 53 849 40 849 q 135 761 99 849 q 234 555 185 642 q 336 468 283 468 q 397 492 371 468 q 440 547 424 515 q 477 631 456 576 q 510 719 499 685 q 558 874 554 853 q 571 915 565 903 q 589 926 576 926 q 618 916 604 926 q 632 892 632 906 z "},"Ý":{"ha":675,"x_min":19,"x_max":632,"o":"m 632 892 q 624 842 632 868 q 596 764 615 815 q 557 660 581 728 q 464 264 496 481 q 456 186 460 228 q 451 115 451 144 q 462 83 451 99 q 472 64 472 68 q 454 34 472 56 q 414 -6 436 13 q 378 -24 392 -24 q 350 0 350 -24 q 385 209 350 31 q 443 483 419 388 q 383 425 410 446 q 318 404 357 404 q 206 492 263 404 q 92 704 149 581 l 78 732 q 39 801 58 772 q 19 835 19 831 q 30 845 19 842 q 53 849 40 849 q 135 761 99 849 q 234 555 185 642 q 336 468 283 468 q 397 492 371 468 q 440 547 424 515 q 477 631 456 576 q 510 719 499 685 q 558 874 554 853 q 571 915 565 903 q 589 926 576 926 q 618 916 604 926 q 632 892 632 906 m 504 1132 q 460 1066 504 1114 q 363 976 415 1018 q 293 935 311 935 q 273 942 281 935 q 265 960 265 949 q 311 1010 265 967 q 389 1089 364 1057 q 422 1139 410 1118 q 444 1169 438 1163 q 460 1176 450 1176 q 489 1161 474 1176 q 504 1132 504 1146 z "},"Ÿ":{"ha":675,"x_min":19,"x_max":632,"o":"m 632 892 q 624 842 632 868 q 596 764 615 815 q 557 660 581 728 q 464 264 496 481 q 456 186 460 228 q 451 115 451 144 q 462 83 451 99 q 472 64 472 68 q 454 34 472 56 q 414 -6 436 13 q 378 -24 392 -24 q 350 0 350 -24 q 385 209 350 31 q 443 483 419 388 q 383 425 410 446 q 318 404 357 404 q 206 492 263 404 q 92 704 149 581 l 78 732 q 39 801 58 772 q 19 835 19 831 q 30 845 19 842 q 53 849 40 849 q 135 761 99 849 q 234 555 185 642 q 336 468 283 468 q 397 492 371 468 q 440 547 424 515 q 477 631 456 576 q 510 719 499 685 q 558 874 554 853 q 571 915 565 903 q 589 926 576 926 q 618 916 604 926 q 632 892 632 906 m 481 1014 q 465 991 481 1001 q 436 981 450 981 q 389 1014 413 981 q 365 1072 365 1047 q 383 1101 365 1088 q 415 1114 401 1114 q 443 1094 428 1114 q 469 1049 458 1074 q 481 1014 481 1024 m 221 997 q 185 981 221 981 q 146 1000 164 981 q 117 1044 128 1019 q 106 1076 106 1068 q 119 1096 106 1088 q 147 1104 132 1104 q 196 1066 171 1104 q 221 997 221 1028 z "},"Z":{"ha":831,"x_min":129,"x_max":785,"o":"m 649 638 q 640 612 649 626 q 622 589 632 597 q 566 562 603 571 q 444 538 529 553 q 333 316 413 485 q 254 126 254 147 q 333 90 254 103 q 482 76 411 76 q 592 81 531 76 q 669 90 654 86 q 741 124 715 103 q 772 144 767 144 q 782 135 779 144 q 785 100 785 126 q 492 8 785 8 q 282 35 382 8 q 182 106 182 61 q 245 272 182 138 q 374 529 308 406 q 311 515 343 525 q 272 501 279 504 q 231 486 251 494 q 206 478 210 478 q 174 496 189 478 q 158 531 158 514 q 170 545 158 540 q 214 556 182 550 l 410 589 q 494 748 457 671 q 532 846 532 825 q 510 854 532 854 q 393 840 488 854 l 342 833 q 158 808 182 808 q 129 819 129 808 q 148 847 129 833 q 201 868 167 861 l 236 875 q 351 896 331 893 q 458 911 446 908 q 542 921 526 921 q 587 913 567 921 q 607 890 607 904 q 566 777 607 872 q 478 596 525 682 q 608 640 544 611 q 636 650 633 650 q 644 646 640 650 q 649 638 649 642 z "},"Ž":{"ha":831,"x_min":129,"x_max":785,"o":"m 649 638 q 640 612 649 626 q 622 589 632 597 q 566 562 603 571 q 444 538 529 553 q 333 316 413 485 q 254 126 254 147 q 333 90 254 103 q 482 76 411 76 q 592 81 531 76 q 669 90 654 86 q 741 124 715 103 q 772 144 767 144 q 782 135 779 144 q 785 100 785 126 q 492 8 785 8 q 282 35 382 8 q 182 106 182 61 q 245 272 182 138 q 374 529 308 406 q 311 515 343 525 q 272 501 279 504 q 231 486 251 494 q 206 478 210 478 q 174 496 189 478 q 158 531 158 514 q 170 545 158 540 q 214 556 182 550 l 410 589 q 494 748 457 671 q 532 846 532 825 q 510 854 532 854 q 393 840 488 854 l 342 833 q 158 808 182 808 q 129 819 129 808 q 148 847 129 833 q 201 868 167 861 l 236 875 q 351 896 331 893 q 458 911 446 908 q 542 921 526 921 q 587 913 567 921 q 607 890 607 904 q 566 777 607 872 q 478 596 525 682 q 608 640 544 611 q 636 650 633 650 q 644 646 640 650 q 649 638 649 642 m 428 968 q 408 956 419 956 q 390 969 403 956 q 372 989 376 983 q 200 1140 285 1086 q 180 1155 188 1149 q 172 1168 172 1161 q 181 1190 172 1178 q 204 1201 190 1201 q 263 1175 229 1201 q 319 1125 296 1149 l 408 1036 l 429 1061 q 524 1172 492 1138 q 578 1207 557 1207 q 595 1200 589 1207 q 601 1185 601 1193 q 543 1111 601 1174 q 446 996 485 1043 l 428 968 z "},"a":{"ha":735,"x_min":43,"x_max":667,"o":"m 646 89 q 657 69 647 79 q 667 51 667 58 q 653 13 667 35 q 625 -8 639 -8 q 589 21 601 -8 q 576 89 576 50 q 581 289 576 122 l 582 342 q 565 388 582 374 q 449 204 503 282 q 311 58 394 126 q 136 -11 228 -11 q 67 17 92 -11 q 43 89 43 44 q 93 241 43 144 q 221 437 143 338 q 376 600 299 536 q 458 656 428 642 q 513 671 489 671 q 558 657 535 671 q 599 618 582 643 q 615 561 615 593 q 592 479 615 518 l 615 486 q 633 449 631 486 q 637 358 635 426 q 640 246 639 290 q 643 157 642 200 q 646 89 644 114 m 156 64 q 300 119 231 64 q 424 252 369 175 q 546 442 479 329 q 563 532 563 483 q 545 583 563 561 q 499 604 528 604 q 410 557 464 604 q 278 416 347 504 q 163 242 208 328 q 117 106 117 156 q 156 64 117 64 z "},"á":{"ha":735,"x_min":43,"x_max":667,"o":"m 646 89 q 657 69 647 79 q 667 51 667 58 q 653 13 667 35 q 625 -8 639 -8 q 589 21 601 -8 q 576 89 576 50 q 581 289 576 122 l 582 342 q 565 388 582 374 q 449 204 503 282 q 311 58 394 126 q 136 -11 228 -11 q 67 17 92 -11 q 43 89 43 44 q 93 241 43 144 q 221 437 143 338 q 376 600 299 536 q 458 656 428 642 q 513 671 489 671 q 558 657 535 671 q 599 618 582 643 q 615 561 615 593 q 592 479 615 518 l 615 486 q 633 449 631 486 q 637 358 635 426 q 640 246 639 290 q 643 157 642 200 q 646 89 644 114 m 156 64 q 300 119 231 64 q 424 252 369 175 q 546 442 479 329 q 563 532 563 483 q 545 583 563 561 q 499 604 528 604 q 410 557 464 604 q 278 416 347 504 q 163 242 208 328 q 117 106 117 156 q 156 64 117 64 m 615 935 q 571 869 615 917 q 474 779 526 821 q 404 738 422 738 q 384 744 392 738 q 376 763 376 751 q 422 813 376 769 q 500 892 475 860 q 533 942 521 921 q 555 972 549 965 q 571 979 561 979 q 600 964 585 979 q 615 935 615 949 z "},"â":{"ha":735,"x_min":43,"x_max":667,"o":"m 646 89 q 657 69 647 79 q 667 51 667 58 q 653 13 667 35 q 625 -8 639 -8 q 589 21 601 -8 q 576 89 576 50 q 581 289 576 122 l 582 342 q 565 388 582 374 q 449 204 503 282 q 311 58 394 126 q 136 -11 228 -11 q 67 17 92 -11 q 43 89 43 44 q 93 241 43 144 q 221 437 143 338 q 376 600 299 536 q 458 656 428 642 q 513 671 489 671 q 558 657 535 671 q 599 618 582 643 q 615 561 615 593 q 592 479 615 518 l 615 486 q 633 449 631 486 q 637 358 635 426 q 640 246 639 290 q 643 157 642 200 q 646 89 644 114 m 156 64 q 300 119 231 64 q 424 252 369 175 q 546 442 479 329 q 563 532 563 483 q 545 583 563 561 q 499 604 528 604 q 410 557 464 604 q 278 416 347 504 q 163 242 208 328 q 117 106 117 156 q 156 64 117 64 m 364 979 q 383 992 372 992 q 402 978 389 992 q 419 958 415 964 q 592 807 511 858 q 612 792 604 799 q 619 779 619 786 q 610 758 619 769 q 588 746 601 746 q 529 772 563 746 q 472 822 496 799 l 440 856 l 383 911 l 363 886 q 267 775 300 810 q 214 740 235 740 q 197 748 203 740 q 190 763 190 756 q 249 836 190 774 q 346 951 307 904 l 364 979 z "},"ä":{"ha":735,"x_min":43,"x_max":667,"o":"m 646 89 q 657 69 647 79 q 667 51 667 58 q 653 13 667 35 q 625 -8 639 -8 q 589 21 601 -8 q 576 89 576 50 q 581 289 576 122 l 582 342 q 565 388 582 374 q 449 204 503 282 q 311 58 394 126 q 136 -11 228 -11 q 67 17 92 -11 q 43 89 43 44 q 93 241 43 144 q 221 437 143 338 q 376 600 299 536 q 458 656 428 642 q 513 671 489 671 q 558 657 535 671 q 599 618 582 643 q 615 561 615 593 q 592 479 615 518 l 615 486 q 633 449 631 486 q 637 358 635 426 q 640 246 639 290 q 643 157 642 200 q 646 89 644 114 m 156 64 q 300 119 231 64 q 424 252 369 175 q 546 442 479 329 q 563 532 563 483 q 545 583 563 561 q 499 604 528 604 q 410 557 464 604 q 278 416 347 504 q 163 242 208 328 q 117 106 117 156 q 156 64 117 64 m 585 800 q 569 777 585 788 q 540 767 554 767 q 493 800 517 767 q 469 858 469 833 q 488 887 469 874 q 519 900 506 900 q 547 880 532 900 q 574 835 563 860 q 585 800 585 810 m 325 783 q 289 767 325 767 q 250 786 268 767 q 221 830 232 806 q 210 863 210 854 q 223 882 210 874 q 251 890 236 890 q 300 852 275 890 q 325 783 325 814 z "},"à":{"ha":735,"x_min":43,"x_max":667,"o":"m 646 89 q 657 69 647 79 q 667 51 667 58 q 653 13 667 35 q 625 -8 639 -8 q 589 21 601 -8 q 576 89 576 50 q 581 289 576 122 l 582 342 q 565 388 582 374 q 449 204 503 282 q 311 58 394 126 q 136 -11 228 -11 q 67 17 92 -11 q 43 89 43 44 q 93 241 43 144 q 221 437 143 338 q 376 600 299 536 q 458 656 428 642 q 513 671 489 671 q 558 657 535 671 q 599 618 582 643 q 615 561 615 593 q 592 479 615 518 l 615 486 q 633 449 631 486 q 637 358 635 426 q 640 246 639 290 q 643 157 642 200 q 646 89 644 114 m 156 64 q 300 119 231 64 q 424 252 369 175 q 546 442 479 329 q 563 532 563 483 q 545 583 563 561 q 499 604 528 604 q 410 557 464 604 q 278 416 347 504 q 163 242 208 328 q 117 106 117 156 q 156 64 117 64 m 528 763 q 520 744 528 751 q 500 738 513 738 q 430 779 482 738 q 333 869 378 821 q 289 935 289 917 q 304 964 289 949 q 333 979 319 979 q 349 972 343 979 q 371 942 356 965 q 404 892 383 921 q 482 813 429 860 q 528 763 528 769 z "},"å":{"ha":735,"x_min":43,"x_max":667,"o":"m 646 89 q 657 69 647 79 q 667 51 667 58 q 653 13 667 35 q 625 -8 639 -8 q 589 21 601 -8 q 576 89 576 50 q 581 289 576 122 l 582 342 q 565 388 582 374 q 449 204 503 282 q 311 58 394 126 q 136 -11 228 -11 q 67 17 92 -11 q 43 89 43 44 q 93 241 43 144 q 221 437 143 338 q 376 600 299 536 q 458 656 428 642 q 513 671 489 671 q 558 657 535 671 q 599 618 582 643 q 615 561 615 593 q 592 479 615 518 l 615 486 q 633 449 631 486 q 637 358 635 426 q 640 246 639 290 q 643 157 642 200 q 646 89 644 114 m 156 64 q 300 119 231 64 q 424 252 369 175 q 546 442 479 329 q 563 532 563 483 q 545 583 563 561 q 499 604 528 604 q 410 557 464 604 q 278 416 347 504 q 163 242 208 328 q 117 106 117 156 q 156 64 117 64 m 572 940 q 548 858 572 907 q 478 773 524 810 q 374 736 433 736 q 281 762 318 736 q 243 832 243 788 q 267 935 243 881 q 331 1031 292 990 q 414 1076 369 1071 q 442 1079 419 1079 q 459 1076 449 1079 q 478 1071 469 1074 q 541 1022 510 1060 q 572 940 572 983 m 415 1033 q 333 956 364 1008 q 301 846 301 903 q 322 806 301 821 q 382 790 343 790 q 450 816 419 790 q 498 876 481 842 q 515 935 515 910 q 495 987 515 964 q 447 1021 475 1010 q 415 1033 422 1031 z "},"ã":{"ha":735,"x_min":43,"x_max":667,"o":"m 646 89 q 657 69 647 79 q 667 51 667 58 q 653 13 667 35 q 625 -8 639 -8 q 589 21 601 -8 q 576 89 576 50 q 581 289 576 122 l 582 342 q 565 388 582 374 q 449 204 503 282 q 311 58 394 126 q 136 -11 228 -11 q 67 17 92 -11 q 43 89 43 44 q 93 241 43 144 q 221 437 143 338 q 376 600 299 536 q 458 656 428 642 q 513 671 489 671 q 558 657 535 671 q 599 618 582 643 q 615 561 615 593 q 592 479 615 518 l 615 486 q 633 449 631 486 q 637 358 635 426 q 640 246 639 290 q 643 157 642 200 q 646 89 644 114 m 156 64 q 300 119 231 64 q 424 252 369 175 q 546 442 479 329 q 563 532 563 483 q 545 583 563 561 q 499 604 528 604 q 410 557 464 604 q 278 416 347 504 q 163 242 208 328 q 117 106 117 156 q 156 64 117 64 m 647 911 q 630 844 647 878 q 584 788 613 810 q 525 765 556 765 q 469 781 493 765 q 410 828 444 797 q 365 864 382 853 q 331 875 349 875 q 228 796 267 875 q 223 781 225 790 q 217 767 221 772 q 208 763 214 763 q 190 770 199 763 q 181 789 181 778 q 199 846 181 817 q 261 911 224 886 q 340 936 299 936 q 385 923 365 936 q 435 881 404 910 q 485 837 464 851 q 532 822 506 822 q 567 837 556 822 q 584 868 578 851 q 592 890 590 885 q 621 924 606 924 q 639 920 631 924 q 647 911 647 917 z "},"æ":{"ha":1089,"x_min":43,"x_max":1056,"o":"m 518 263 q 522 319 518 290 q 426 197 471 247 q 264 44 340 100 q 115 -11 188 -11 q 64 15 85 -11 q 43 78 43 42 q 95 229 43 129 q 233 439 147 329 q 414 629 319 549 q 513 671 463 671 q 567 647 543 671 q 599 585 590 624 q 606 559 601 572 q 611 538 611 546 q 725 654 653 606 q 868 703 797 703 q 951 676 915 703 q 988 608 988 649 q 874 472 988 538 q 601 360 760 406 q 590 263 590 313 q 638 148 590 193 q 761 103 686 103 q 921 172 863 103 q 1017 335 979 242 q 1044 379 1035 379 q 1056 358 1056 379 q 1021 253 1056 336 q 917 100 986 171 q 747 29 849 29 q 640 54 693 29 q 553 132 588 79 q 518 263 518 185 m 851 644 q 756 607 804 644 q 669 515 707 569 q 615 413 632 461 q 760 467 686 433 q 881 538 833 501 q 929 600 929 575 q 907 632 929 619 q 851 644 885 644 m 117 90 q 123 71 117 78 q 139 64 129 64 q 390 231 235 64 q 481 339 436 281 q 557 442 526 397 l 569 471 q 558 483 563 476 q 553 499 553 490 l 554 539 q 540 578 554 558 q 499 599 525 599 q 356 495 446 599 q 191 265 265 392 q 117 90 117 139 z "},"b":{"ha":706,"x_min":69,"x_max":667,"o":"m 667 538 q 572 280 667 419 q 332 33 478 140 q 240 -12 271 -12 q 215 -1 225 -12 q 206 25 206 10 q 219 56 206 40 q 258 82 232 71 q 433 202 354 124 q 557 368 513 281 q 601 522 601 456 q 590 562 601 549 q 551 575 578 575 q 432 528 493 575 q 318 404 371 481 q 240 264 278 346 q 183 90 203 182 q 136 42 172 42 q 115 59 126 42 q 104 90 104 76 q 93 564 104 251 q 78 921 82 876 q 76 937 78 929 q 74 951 75 944 q 71 969 72 960 q 69 986 69 978 q 99 1018 69 1018 q 137 988 122 1018 q 151 921 151 958 l 151 847 q 161 339 151 517 q 172 242 167 251 q 220 344 188 288 q 289 450 253 401 q 431 592 354 539 q 569 646 507 646 q 640 618 613 646 q 667 538 667 590 z "},"c":{"ha":515,"x_min":35,"x_max":492,"o":"m 492 306 q 463 254 492 297 q 406 176 435 211 q 276 42 333 89 q 156 -6 218 -6 q 69 40 103 -6 q 35 146 35 86 q 82 371 35 235 q 201 607 129 507 q 346 707 274 707 q 399 685 376 707 q 422 651 411 672 q 433 614 433 631 q 427 559 433 590 q 414 528 421 528 q 396 543 400 528 q 390 582 392 558 q 382 630 386 618 q 369 642 378 642 q 243 551 304 642 q 143 340 182 460 q 104 154 104 219 q 165 63 104 63 q 247 85 210 63 q 324 147 283 107 q 440 279 399 224 q 456 301 443 283 q 475 318 469 318 q 492 306 492 318 z "},"ç":{"ha":515,"x_min":35,"x_max":492,"o":"m 492 306 q 463 254 492 297 q 406 176 435 211 q 276 42 333 89 q 156 -6 218 -6 q 69 40 103 -6 q 35 146 35 86 q 82 371 35 235 q 201 607 129 507 q 346 707 274 707 q 399 685 376 707 q 422 651 411 672 q 433 614 433 631 q 427 559 433 590 q 414 528 421 528 q 396 543 400 528 q 390 582 392 558 q 382 630 386 618 q 369 642 378 642 q 243 551 304 642 q 143 340 182 460 q 104 154 104 219 q 165 63 104 63 q 247 85 210 63 q 324 147 283 107 q 440 279 399 224 q 456 301 443 283 q 475 318 469 318 q 492 306 492 318 m 247 -75 q 227 -149 247 -118 q 178 -197 207 -181 q 121 -214 149 -214 q 98 -206 107 -214 q 89 -186 89 -199 q 99 -174 89 -181 q 111 -165 110 -167 q 153 -133 138 -150 q 169 -86 169 -117 q 160 -46 169 -64 q 136 -4 151 -28 q 122 24 122 17 q 133 31 122 28 q 156 35 144 35 q 189 15 167 35 q 229 -31 211 -6 q 247 -75 247 -57 z "},"d":{"ha":660,"x_min":47,"x_max":590,"o":"m 568 950 q 565 841 568 922 q 563 678 563 760 q 569 355 563 519 q 581 139 576 190 q 582 121 581 131 q 585 103 583 111 q 590 56 590 64 q 570 29 590 42 q 539 17 550 17 q 519 28 524 17 q 514 61 514 40 q 518 221 514 138 l 519 299 q 518 401 519 338 q 514 507 517 464 q 353 130 443 279 q 160 -19 264 -19 q 80 25 113 -19 q 47 153 47 69 q 122 392 47 263 q 291 614 196 521 q 432 707 386 707 q 476 678 476 707 q 463 633 476 658 q 434 586 450 607 q 415 565 418 565 q 409 567 413 565 q 406 572 406 569 q 413 596 406 579 q 419 618 419 613 q 418 628 419 625 q 410 631 417 631 q 305 551 381 631 q 169 361 229 471 q 110 157 110 251 q 124 94 110 124 q 169 65 138 65 q 358 237 271 65 q 508 626 444 408 l 506 743 q 501 907 501 897 q 508 1026 501 990 q 515 1046 511 1040 q 529 1051 518 1051 q 557 1042 543 1051 q 571 1018 571 1033 l 568 950 z "},"ð":{"ha":594,"x_min":49,"x_max":553,"o":"m 494 1035 q 533 1022 518 1035 q 547 988 547 1008 q 540 965 547 975 q 508 933 532 956 q 385 829 433 865 q 507 619 461 740 q 553 378 553 497 q 498 208 553 296 q 355 62 443 119 q 175 4 267 4 q 90 36 131 4 q 49 132 49 68 q 75 289 49 204 q 133 444 101 374 q 234 578 171 532 q 365 625 297 625 q 388 619 378 625 q 399 603 399 613 q 386 572 399 581 q 344 556 374 564 q 289 538 306 546 q 185 414 221 507 q 134 263 150 325 q 118 143 118 200 q 196 74 118 74 q 330 121 263 74 q 441 240 397 168 q 485 379 485 311 q 444 599 485 488 q 338 794 404 711 q 218 735 251 735 q 196 743 204 735 q 188 763 188 751 q 203 776 188 769 q 242 795 218 783 q 304 833 265 807 q 171 922 238 901 q 147 934 154 928 q 140 951 140 940 q 146 963 140 957 q 164 969 151 969 q 194 963 178 969 q 347 868 275 938 q 428 943 389 901 q 472 1003 468 985 q 481 1024 475 1014 q 494 1035 488 1035 z "},"e":{"ha":644,"x_min":67,"x_max":606,"o":"m 596 354 q 606 333 606 354 q 569 224 606 308 q 458 67 532 139 q 275 -6 383 -6 q 126 50 186 -6 q 67 221 67 106 q 117 435 67 329 q 247 609 167 542 q 414 676 328 676 q 501 653 465 676 q 536 588 536 631 q 481 493 536 539 q 339 413 426 447 q 158 363 251 378 q 142 238 142 299 q 180 113 142 157 q 289 68 218 68 q 463 144 396 68 q 574 317 529 221 q 583 338 576 322 q 596 354 590 354 m 474 572 q 451 607 474 594 q 397 619 428 619 q 296 585 344 619 q 215 501 247 550 q 172 415 182 453 q 307 451 236 422 q 426 515 378 481 q 474 572 474 550 z "},"é":{"ha":644,"x_min":67,"x_max":606,"o":"m 596 354 q 606 333 606 354 q 569 224 606 308 q 458 67 532 139 q 275 -6 383 -6 q 126 50 186 -6 q 67 221 67 106 q 117 435 67 329 q 247 609 167 542 q 414 676 328 676 q 501 653 465 676 q 536 588 536 631 q 481 493 536 539 q 339 413 426 447 q 158 363 251 378 q 142 238 142 299 q 180 113 142 157 q 289 68 218 68 q 463 144 396 68 q 574 317 529 221 q 583 338 576 322 q 596 354 590 354 m 474 572 q 451 607 474 594 q 397 619 428 619 q 296 585 344 619 q 215 501 247 550 q 172 415 182 453 q 307 451 236 422 q 426 515 378 481 q 474 572 474 550 m 560 924 q 515 858 560 906 q 419 768 471 810 q 349 726 367 726 q 328 733 336 726 q 321 751 321 740 q 367 801 321 758 q 444 881 419 849 q 478 931 465 910 q 499 961 493 954 q 515 968 506 968 q 544 953 529 968 q 560 924 560 938 z "},"ê":{"ha":644,"x_min":67,"x_max":606,"o":"m 596 354 q 606 333 606 354 q 569 224 606 308 q 458 67 532 139 q 275 -6 383 -6 q 126 50 186 -6 q 67 221 67 106 q 117 435 67 329 q 247 609 167 542 q 414 676 328 676 q 501 653 465 676 q 536 588 536 631 q 481 493 536 539 q 339 413 426 447 q 158 363 251 378 q 142 238 142 299 q 180 113 142 157 q 289 68 218 68 q 463 144 396 68 q 574 317 529 221 q 583 338 576 322 q 596 354 590 354 m 474 572 q 451 607 474 594 q 397 619 428 619 q 296 585 344 619 q 215 501 247 550 q 172 415 182 453 q 307 451 236 422 q 426 515 378 481 q 474 572 474 550 m 331 961 q 350 974 339 974 q 369 960 356 974 q 386 940 382 946 q 558 789 478 840 q 578 774 571 781 q 586 761 586 768 q 577 740 586 751 q 554 728 568 728 q 496 754 529 728 q 439 804 463 781 l 407 838 l 350 893 l 329 868 q 234 757 267 792 q 181 722 201 722 q 163 730 169 722 q 157 744 157 738 q 215 818 157 756 q 313 933 274 886 l 331 961 z "},"ë":{"ha":644,"x_min":67,"x_max":606,"o":"m 596 354 q 606 333 606 354 q 569 224 606 308 q 458 67 532 139 q 275 -6 383 -6 q 126 50 186 -6 q 67 221 67 106 q 117 435 67 329 q 247 609 167 542 q 414 676 328 676 q 501 653 465 676 q 536 588 536 631 q 481 493 536 539 q 339 413 426 447 q 158 363 251 378 q 142 238 142 299 q 180 113 142 157 q 289 68 218 68 q 463 144 396 68 q 574 317 529 221 q 583 338 576 322 q 596 354 590 354 m 474 572 q 451 607 474 594 q 397 619 428 619 q 296 585 344 619 q 215 501 247 550 q 172 415 182 453 q 307 451 236 422 q 426 515 378 481 q 474 572 474 550 m 553 782 q 538 759 553 769 q 508 749 522 749 q 461 782 485 749 q 438 840 438 815 q 456 869 438 856 q 488 882 474 882 q 515 862 500 882 q 542 817 531 842 q 553 782 553 792 m 293 765 q 257 749 293 749 q 218 768 236 749 q 189 812 200 788 q 178 844 178 836 q 191 864 178 856 q 219 872 204 872 q 268 834 243 872 q 293 765 293 796 z "},"è":{"ha":644,"x_min":67,"x_max":606,"o":"m 596 354 q 606 333 606 354 q 569 224 606 308 q 458 67 532 139 q 275 -6 383 -6 q 126 50 186 -6 q 67 221 67 106 q 117 435 67 329 q 247 609 167 542 q 414 676 328 676 q 501 653 465 676 q 536 588 536 631 q 481 493 536 539 q 339 413 426 447 q 158 363 251 378 q 142 238 142 299 q 180 113 142 157 q 289 68 218 68 q 463 144 396 68 q 574 317 529 221 q 583 338 576 322 q 596 354 590 354 m 474 572 q 451 607 474 594 q 397 619 428 619 q 296 585 344 619 q 215 501 247 550 q 172 415 182 453 q 307 451 236 422 q 426 515 378 481 q 474 572 474 550 m 463 771 q 455 753 463 760 q 435 746 447 746 q 365 788 417 746 q 268 877 313 829 q 224 943 224 925 q 239 972 224 957 q 268 988 254 988 q 284 981 278 988 q 306 950 290 974 q 339 900 318 929 q 417 821 364 868 q 463 771 463 778 z "},"f":{"ha":583,"x_min":19,"x_max":624,"o":"m 624 883 q 616 840 624 867 q 599 813 608 813 q 584 822 589 813 q 575 846 579 831 q 528 926 560 893 q 461 958 497 958 q 322 827 364 958 q 279 519 279 696 q 373 533 321 522 q 442 546 425 543 q 572 567 540 567 q 600 542 600 567 q 592 500 600 522 q 567 478 583 478 q 539 483 553 478 q 486 492 519 492 q 394 478 464 492 l 283 461 q 292 268 283 426 q 306 -122 306 24 q 300 -159 306 -149 q 278 -169 294 -169 q 249 -147 258 -169 q 239 -97 239 -125 q 218 404 239 63 l 215 449 q 144 436 204 447 q 56 425 83 425 q 30 432 40 425 q 19 453 19 439 q 44 489 19 488 q 132 495 81 490 q 211 506 183 500 q 273 876 211 733 q 457 1018 335 1018 q 540 996 501 1018 q 601 942 578 974 q 624 883 624 910 z "},"g":{"ha":753,"x_min":51,"x_max":689,"o":"m 689 14 q 646 -183 689 -94 q 544 -328 603 -272 q 420 -420 485 -385 q 308 -456 356 -456 q 271 -442 282 -456 q 260 -411 260 -429 q 322 -372 260 -394 q 497 -269 417 -342 q 589 -143 560 -214 q 618 1 618 -72 q 608 154 618 85 q 575 325 597 224 q 540 507 550 432 q 467 353 517 443 q 350 179 418 263 q 234 61 286 100 q 133 22 182 22 q 72 55 92 22 q 51 144 51 88 q 110 367 51 239 q 256 586 168 494 q 428 678 343 678 q 473 657 457 678 q 489 607 489 636 q 474 569 489 569 q 463 580 469 569 q 449 599 457 590 q 431 607 440 607 q 287 528 360 607 q 166 342 214 449 q 118 168 118 236 q 128 114 118 131 q 161 97 139 97 q 242 136 194 97 q 354 258 289 175 q 460 430 413 332 q 533 617 508 528 q 542 631 536 625 q 557 636 549 636 q 583 628 569 636 q 596 613 596 621 q 594 601 596 607 q 590 593 592 594 q 636 356 600 517 q 676 165 663 242 q 689 14 689 88 z "},"h":{"ha":776,"x_min":58,"x_max":676,"o":"m 676 -19 q 665 -48 676 -36 q 636 -60 654 -60 q 613 -53 622 -60 q 603 -36 603 -47 l 606 60 q 613 339 613 231 q 590 560 613 497 q 539 624 568 624 q 375 422 474 624 q 185 -19 276 219 q 166 -57 178 -39 q 142 -75 154 -75 q 111 -56 111 -75 q 104 262 111 29 q 93 568 97 494 q 69 875 81 817 q 58 938 58 933 q 74 958 58 951 q 113 965 89 965 q 141 877 132 965 q 154 651 150 789 l 156 613 q 160 366 158 569 q 161 67 161 163 q 281 351 225 226 q 411 585 338 476 q 547 694 485 694 q 636 606 600 694 q 672 343 672 518 q 675 126 672 265 l 676 -19 z "},"i":{"ha":303,"x_min":44,"x_max":197,"o":"m 163 869 q 117 849 163 849 q 69 868 93 849 q 44 900 44 888 q 59 929 44 915 q 89 943 74 943 q 99 940 89 943 q 124 921 110 936 q 149 892 135 910 q 163 869 163 874 m 197 -4 q 185 -26 197 -18 q 158 -32 174 -33 q 130 31 139 -31 q 111 263 121 92 q 101 483 106 375 q 96 649 97 590 q 101 672 96 664 q 119 679 106 679 q 160 653 151 679 q 168 551 168 626 l 167 388 q 175 163 167 247 q 188 74 175 158 q 197 -4 197 15 z "},"í":{"ha":303,"x_min":49,"x_max":288,"o":"m 197 -4 q 185 -26 197 -18 q 158 -32 174 -33 q 130 31 139 -31 q 111 263 121 92 q 96 579 96 507 q 101 602 96 594 q 119 610 106 610 q 160 585 151 610 q 168 489 168 560 l 167 350 q 175 163 167 235 q 188 74 175 158 q 197 -4 197 15 m 288 892 q 243 826 288 874 q 147 736 199 778 q 76 694 94 694 q 56 701 64 694 q 49 719 49 708 q 94 769 49 726 q 172 849 147 817 q 206 899 193 878 q 227 929 221 922 q 243 936 233 936 q 272 921 257 936 q 288 892 288 906 z "},"î":{"ha":303,"x_min":-87,"x_max":342,"o":"m 197 -4 q 185 -26 197 -18 q 158 -32 174 -33 q 130 31 139 -31 q 111 263 121 92 q 96 579 96 507 q 101 602 96 594 q 119 610 106 610 q 160 585 151 610 q 168 489 168 560 l 167 350 q 175 163 167 235 q 188 74 175 158 q 197 -4 197 15 m 86 910 q 106 922 94 922 q 124 908 111 922 q 142 889 138 894 q 314 738 233 789 q 334 723 326 729 q 342 710 342 717 q 333 688 342 700 q 310 676 324 676 q 251 703 285 676 q 194 753 218 729 l 163 786 l 106 842 l 85 817 q -10 706 22 740 q -64 671 -43 671 q -81 678 -75 671 q -87 693 -87 686 q -29 767 -87 704 q 68 882 29 835 l 86 910 z "},"ï":{"ha":303,"x_min":-90,"x_max":285,"o":"m 197 -4 q 185 -26 197 -18 q 158 -32 174 -33 q 130 31 139 -31 q 111 263 121 92 q 96 579 96 507 q 101 602 96 594 q 119 610 106 610 q 160 585 151 610 q 168 489 168 560 l 167 350 q 175 163 167 235 q 188 74 175 158 q 197 -4 197 15 m 285 736 q 269 713 285 724 q 240 703 254 703 q 193 736 217 703 q 169 794 169 769 q 188 823 169 810 q 219 836 206 836 q 247 816 232 836 q 274 771 263 796 q 285 736 285 746 m 25 719 q -11 703 25 703 q -50 722 -32 703 q -79 766 -68 742 q -90 799 -90 790 q -77 818 -90 810 q -49 826 -64 826 q 0 788 -25 826 q 25 719 25 750 z "},"ì":{"ha":303,"x_min":-14,"x_max":225,"o":"m 197 -4 q 185 -26 197 -18 q 158 -32 174 -33 q 130 31 139 -31 q 111 263 121 92 q 96 579 96 507 q 101 602 96 594 q 119 610 106 610 q 160 585 151 610 q 168 489 168 560 l 167 350 q 175 163 167 235 q 188 74 175 158 q 197 -4 197 15 m 225 700 q 217 682 225 689 q 197 675 210 675 q 127 717 179 675 q 31 806 75 758 q -14 872 -14 854 q 1 901 -14 886 q 31 917 17 917 q 47 910 40 917 q 68 879 53 903 q 101 829 81 858 q 179 750 126 797 q 225 700 225 707 z "},"j":{"ha":303,"x_min":-119,"x_max":221,"o":"m 164 928 q 128 904 164 904 q 81 920 101 904 q 47 956 60 936 q 35 985 35 975 q 49 1014 35 1000 q 79 1028 64 1028 q 97 1019 89 1028 q 114 992 104 1010 q 133 963 124 972 q 151 945 138 958 q 164 928 164 932 m 221 -36 q 178 -211 221 -153 q 64 -269 135 -269 q -36 -249 6 -269 q -99 -201 -78 -229 q -119 -149 -119 -174 q -110 -126 -119 -137 q -96 -115 -101 -115 q -83 -122 -87 -115 q -75 -133 -78 -129 q -20 -190 -47 -171 q 46 -210 7 -210 q 131 -169 107 -210 q 154 -43 154 -128 q 148 72 154 3 q 135 201 142 140 q 131 240 133 221 q 126 279 128 260 q 99 500 118 374 q 85 617 85 593 q 89 642 85 636 q 111 649 93 649 q 149 615 136 649 q 168 511 163 581 q 193 271 174 428 q 221 -36 221 15 z "},"k":{"ha":672,"x_min":79,"x_max":703,"o":"m 703 599 q 684 558 703 579 q 649 536 665 536 q 624 548 638 536 q 604 560 610 560 q 485 508 567 560 q 317 388 403 457 q 185 269 231 318 l 186 244 q 421 140 292 196 q 600 75 550 85 q 639 71 619 72 q 667 69 658 69 q 688 68 679 69 q 696 63 696 67 q 670 29 696 46 q 593 13 644 13 q 469 47 547 13 q 283 136 390 81 l 196 179 q 214 -15 214 3 q 199 -40 214 -31 q 165 -50 183 -50 q 147 -17 154 -50 q 131 115 140 17 l 121 200 q 92 220 104 207 q 79 244 79 233 q 107 283 79 261 q 99 497 106 358 q 90 700 93 636 l 83 893 q 93 960 83 932 q 136 988 103 988 q 153 983 149 988 q 157 964 157 978 q 166 667 157 900 q 181 336 175 435 q 633 631 490 631 q 683 620 663 631 q 703 599 703 610 z "},"l":{"ha":278,"x_min":101,"x_max":206,"o":"m 206 38 q 188 15 206 24 q 147 7 169 7 q 116 47 131 7 q 101 167 101 86 q 106 546 103 324 q 113 881 110 768 q 127 956 114 921 q 174 990 140 990 q 188 978 185 990 q 192 933 192 967 q 191 924 192 932 q 190 897 190 917 q 165 185 165 532 q 185 90 165 140 q 206 38 206 40 z "},"m":{"ha":1040,"x_min":90,"x_max":947,"o":"m 947 14 q 936 -15 947 -3 q 907 -26 925 -26 q 882 -1 882 -26 q 864 428 882 279 q 801 578 846 578 q 582 54 726 578 l 582 53 q 571 24 582 36 q 542 13 560 13 q 517 38 517 13 q 522 210 517 93 q 528 415 528 340 q 522 563 528 519 q 494 607 515 607 q 375 434 447 607 q 224 26 303 261 l 211 -10 q 195 -33 206 -24 q 172 -43 185 -43 q 150 -40 156 -43 q 143 -24 144 -37 q 132 158 136 44 q 126 254 129 188 q 101 572 113 489 q 90 664 90 654 q 101 690 90 675 q 122 706 113 706 q 158 674 144 706 q 174 551 165 658 q 188 286 182 444 l 194 74 q 353 502 271 310 q 503 694 435 694 q 565 628 549 694 q 582 435 582 561 q 579 243 582 368 l 578 179 q 691 513 635 378 q 804 647 747 647 q 947 14 947 647 z "},"n":{"ha":639,"x_min":68,"x_max":547,"o":"m 547 -10 q 533 -38 547 -26 q 500 -50 519 -50 q 476 -44 486 -50 q 467 -26 467 -37 q 475 150 467 31 q 483 363 483 278 q 478 497 483 444 q 456 549 474 549 q 352 431 408 549 q 224 122 296 314 l 203 67 q 184 44 197 53 q 157 36 171 36 q 135 39 140 36 q 128 56 129 42 l 117 169 l 96 369 q 72 578 86 489 q 68 610 68 599 q 86 644 68 631 q 128 657 104 657 q 148 590 142 657 q 161 375 154 524 l 167 301 q 179 124 178 161 q 187 142 183 132 q 196 165 190 153 q 337 490 271 360 q 464 619 403 619 q 523 547 507 619 q 543 360 539 474 q 547 -10 547 233 z "},"ñ":{"ha":639,"x_min":68,"x_max":561,"o":"m 547 -10 q 533 -38 547 -26 q 500 -50 519 -50 q 476 -44 486 -50 q 467 -26 467 -37 q 475 150 467 31 q 483 363 483 278 q 478 497 483 444 q 456 549 474 549 q 352 431 408 549 q 224 122 296 314 l 203 67 q 184 44 197 53 q 157 36 171 36 q 135 39 140 36 q 128 56 129 42 l 117 169 l 96 369 q 72 578 86 489 q 68 610 68 599 q 86 644 68 631 q 128 657 104 657 q 148 590 142 657 q 161 375 154 524 l 167 301 q 179 124 178 161 q 187 142 183 132 q 196 165 190 153 q 337 490 271 360 q 464 619 403 619 q 523 547 507 619 q 543 360 539 474 q 547 -10 547 233 m 561 878 q 544 810 561 844 q 498 754 526 776 q 439 732 469 732 q 383 748 407 732 q 324 794 358 764 q 279 831 296 819 q 244 842 263 842 q 142 763 181 842 q 137 748 139 757 q 131 734 135 739 q 122 729 128 729 q 103 737 113 729 q 94 756 94 744 q 113 813 94 783 q 175 878 138 853 q 254 903 213 903 q 299 890 279 903 q 349 847 318 876 q 399 803 378 818 q 446 789 419 789 q 481 803 469 789 q 498 835 492 818 q 506 857 504 851 q 535 890 519 890 q 553 887 544 890 q 561 878 561 883 z "},"o":{"ha":594,"x_min":49,"x_max":553,"o":"m 553 288 q 513 163 553 233 q 399 41 472 92 q 231 -10 325 -10 q 93 42 138 -10 q 49 169 49 93 q 73 335 49 236 q 142 511 97 433 q 165 552 144 517 q 210 606 185 588 q 263 625 235 625 q 285 619 275 625 q 296 603 296 613 q 288 590 296 600 q 276 574 281 579 q 200 461 229 517 q 140 321 161 390 q 118 169 118 251 q 251 60 118 60 q 367 96 314 60 q 453 184 421 132 q 485 279 485 236 q 453 364 485 328 q 365 440 421 400 q 313 483 329 467 q 296 511 296 500 q 319 538 296 528 q 375 549 343 549 q 399 547 393 549 q 404 539 404 544 q 399 530 404 536 q 394 519 394 524 q 422 492 394 515 q 515 399 478 446 q 553 288 553 351 z "},"ó":{"ha":594,"x_min":49,"x_max":553,"o":"m 553 288 q 513 163 553 233 q 399 41 472 92 q 231 -10 325 -10 q 93 42 138 -10 q 49 169 49 93 q 73 335 49 236 q 142 511 97 433 q 165 552 144 517 q 210 606 185 588 q 263 625 235 625 q 285 619 275 625 q 296 603 296 613 q 288 590 296 600 q 276 574 281 579 q 200 461 229 517 q 140 321 161 390 q 118 169 118 251 q 251 60 118 60 q 367 96 314 60 q 453 184 421 132 q 485 279 485 236 q 453 364 485 328 q 365 440 421 400 q 313 483 329 467 q 296 511 296 500 q 319 538 296 528 q 375 549 343 549 q 399 547 393 549 q 404 539 404 544 q 399 530 404 536 q 394 519 394 524 q 422 492 394 515 q 515 399 478 446 q 553 288 553 351 m 490 896 q 446 830 490 878 q 349 740 401 782 q 279 699 297 699 q 259 706 267 699 q 251 724 251 713 q 297 774 251 731 q 375 853 350 821 q 408 903 396 882 q 430 933 424 926 q 446 940 436 940 q 475 925 460 940 q 490 896 490 910 z "},"ô":{"ha":594,"x_min":49,"x_max":553,"o":"m 553 288 q 513 163 553 233 q 399 41 472 92 q 231 -10 325 -10 q 93 42 138 -10 q 49 169 49 93 q 73 335 49 236 q 142 511 97 433 q 165 552 144 517 q 210 606 185 588 q 263 625 235 625 q 285 619 275 625 q 296 603 296 613 q 288 590 296 600 q 276 574 281 579 q 200 461 229 517 q 140 321 161 390 q 118 169 118 251 q 251 60 118 60 q 367 96 314 60 q 453 184 421 132 q 485 279 485 236 q 453 364 485 328 q 365 440 421 400 q 313 483 329 467 q 296 511 296 500 q 319 538 296 528 q 375 549 343 549 q 399 547 393 549 q 404 539 404 544 q 399 530 404 536 q 394 519 394 524 q 422 492 394 515 q 515 399 478 446 q 553 288 553 351 m 297 950 q 317 963 306 963 q 335 949 322 963 q 353 929 349 935 q 525 778 444 829 q 545 763 538 769 q 553 750 553 757 q 544 728 553 740 q 521 717 535 717 q 463 743 496 717 q 406 793 429 769 l 374 826 l 317 882 l 296 857 q 201 746 233 781 q 147 711 168 711 q 130 719 136 711 q 124 733 124 726 q 182 807 124 744 q 279 922 240 875 l 297 950 z "},"ö":{"ha":594,"x_min":49,"x_max":553,"o":"m 553 288 q 513 163 553 233 q 399 41 472 92 q 231 -10 325 -10 q 93 42 138 -10 q 49 169 49 93 q 73 335 49 236 q 142 511 97 433 q 165 552 144 517 q 210 606 185 588 q 263 625 235 625 q 285 619 275 625 q 296 603 296 613 q 288 590 296 600 q 276 574 281 579 q 200 461 229 517 q 140 321 161 390 q 118 169 118 251 q 251 60 118 60 q 367 96 314 60 q 453 184 421 132 q 485 279 485 236 q 453 364 485 328 q 365 440 421 400 q 313 483 329 467 q 296 511 296 500 q 319 538 296 528 q 375 549 343 549 q 399 547 393 549 q 404 539 404 544 q 399 530 404 536 q 394 519 394 524 q 422 492 394 515 q 515 399 478 446 q 553 288 553 351 m 486 742 q 471 719 486 729 q 442 708 456 708 q 394 742 418 708 q 371 800 371 775 q 389 828 371 815 q 421 842 407 842 q 449 822 433 842 q 475 776 464 801 q 486 742 486 751 m 226 725 q 190 708 226 708 q 151 728 169 708 q 122 772 133 747 q 111 804 111 796 q 124 824 111 815 q 153 832 138 832 q 201 794 176 832 q 226 725 226 756 z "},"ò":{"ha":594,"x_min":49,"x_max":553,"o":"m 553 288 q 513 163 553 233 q 399 41 472 92 q 231 -10 325 -10 q 93 42 138 -10 q 49 169 49 93 q 73 335 49 236 q 142 511 97 433 q 165 552 144 517 q 210 606 185 588 q 263 625 235 625 q 285 619 275 625 q 296 603 296 613 q 288 590 296 600 q 276 574 281 579 q 200 461 229 517 q 140 321 161 390 q 118 169 118 251 q 251 60 118 60 q 367 96 314 60 q 453 184 421 132 q 485 279 485 236 q 453 364 485 328 q 365 440 421 400 q 313 483 329 467 q 296 511 296 500 q 319 538 296 528 q 375 549 343 549 q 399 547 393 549 q 404 539 404 544 q 399 530 404 536 q 394 519 394 524 q 422 492 394 515 q 515 399 478 446 q 553 288 553 351 m 408 707 q 401 689 408 696 q 381 682 393 682 q 310 724 363 682 q 214 813 258 765 q 169 879 169 861 q 185 908 169 893 q 214 924 200 924 q 230 917 224 924 q 251 886 236 910 q 285 836 264 865 q 363 757 310 804 q 408 707 408 714 z "},"ø":{"ha":594,"x_min":49,"x_max":553,"o":"m 553 322 q 513 223 553 285 q 406 104 472 161 q 268 21 340 47 q 229 -176 238 -96 q 224 -201 226 -189 q 219 -226 222 -214 q 208 -246 217 -239 q 189 -253 200 -253 q 169 -240 174 -253 q 165 -207 165 -228 q 201 6 165 -139 q 175 4 193 4 q 85 35 121 4 q 49 118 49 65 q 83 300 49 201 q 181 469 117 399 q 332 543 246 539 q 347 547 339 546 q 358 547 356 547 q 429 758 397 681 q 463 782 440 782 q 476 769 472 782 q 481 739 481 756 q 469 698 481 722 q 454 663 458 674 q 442 624 449 642 q 407 504 408 508 q 456 466 415 497 q 524 397 496 435 q 553 322 553 358 m 336 476 q 222 413 272 471 q 145 276 172 356 q 118 129 118 196 q 140 90 118 106 q 196 74 163 74 q 222 75 213 74 q 336 476 289 338 m 286 96 q 382 160 336 119 q 456 244 428 201 q 485 315 485 288 q 454 376 485 339 q 386 442 424 414 q 286 96 328 271 z "},"õ":{"ha":594,"x_min":49,"x_max":569,"o":"m 553 288 q 513 163 553 233 q 399 41 472 92 q 231 -10 325 -10 q 93 42 138 -10 q 49 169 49 93 q 73 335 49 236 q 142 511 97 433 q 165 552 144 517 q 210 606 185 588 q 263 625 235 625 q 285 619 275 625 q 296 603 296 613 q 288 590 296 600 q 276 574 281 579 q 200 461 229 517 q 140 321 161 390 q 118 169 118 251 q 251 60 118 60 q 367 96 314 60 q 453 184 421 132 q 485 279 485 236 q 453 364 485 328 q 365 440 421 400 q 313 483 329 467 q 296 511 296 500 q 319 538 296 528 q 375 549 343 549 q 399 547 393 549 q 404 539 404 544 q 399 530 404 536 q 394 519 394 524 q 422 492 394 515 q 515 399 478 446 q 553 288 553 351 m 569 844 q 552 777 569 811 q 506 721 535 743 q 447 699 478 699 q 391 715 415 699 q 332 761 367 731 q 288 797 304 786 q 253 808 271 808 q 150 729 189 808 q 145 715 147 724 q 140 701 143 706 q 131 696 136 696 q 112 703 121 696 q 103 722 103 711 q 121 779 103 750 q 183 844 146 819 q 263 869 221 869 q 307 856 288 869 q 357 814 326 843 q 407 770 386 785 q 454 756 428 756 q 489 770 478 756 q 506 801 500 785 q 514 824 513 818 q 543 857 528 857 q 561 853 553 857 q 569 844 569 850 z "},"œ":{"ha":1043,"x_min":38,"x_max":1025,"o":"m 492 194 q 351 56 431 113 q 188 0 272 0 q 117 24 153 0 q 60 89 82 47 q 38 181 38 131 q 79 366 38 264 q 181 528 121 468 q 210 558 188 535 q 252 591 232 581 q 293 601 272 601 q 357 585 324 601 q 445 529 397 567 q 524 439 493 492 q 602 571 554 511 q 703 665 650 631 q 800 699 756 699 q 909 681 865 699 q 953 622 953 664 q 844 489 953 546 q 576 385 735 432 q 557 260 557 326 q 581 184 557 221 q 644 124 606 147 q 728 100 683 100 q 854 141 803 100 q 932 229 906 182 q 985 339 958 276 q 1008 376 999 376 q 1025 356 1025 376 q 990 251 1025 335 q 885 97 954 168 q 714 26 815 26 q 577 69 642 26 q 492 194 513 111 m 890 603 q 867 632 890 622 q 806 642 843 642 q 676 576 736 642 q 590 438 617 511 q 788 516 685 465 q 890 603 890 567 m 299 542 q 247 507 271 529 q 144 358 181 446 q 107 181 107 269 q 138 99 107 129 q 208 69 169 69 q 335 115 268 69 q 447 219 401 160 q 493 317 493 279 q 431 467 493 414 q 299 542 368 521 z "},"p":{"ha":724,"x_min":50,"x_max":686,"o":"m 686 333 q 558 181 686 235 q 225 111 431 126 q 222 -43 222 17 q 229 -187 222 -122 q 232 -222 232 -212 q 222 -260 232 -244 q 194 -276 213 -276 q 167 -258 169 -276 q 163 -185 165 -235 q 161 -86 161 -136 l 163 108 q 137 107 156 108 q 100 106 118 106 q 67 151 67 106 q 83 185 67 185 q 117 176 89 185 q 164 168 144 168 l 163 561 q 117 566 151 563 q 66 579 82 569 q 50 607 50 589 q 64 643 50 643 q 101 632 79 643 q 118 624 104 631 q 157 615 132 618 q 173 646 165 638 q 203 654 181 654 q 231 643 231 654 q 226 628 231 639 q 222 608 222 618 q 417 558 308 596 q 606 461 526 519 q 686 333 686 403 m 626 328 q 560 433 626 386 q 399 511 493 481 q 219 556 306 542 q 224 342 222 475 q 225 167 225 210 q 403 188 308 167 q 562 247 497 210 q 626 328 626 283 z "},"þ":{"ha":724,"x_min":50,"x_max":686,"o":"m 169 575 q 174 782 169 665 l 175 811 q 190 886 176 851 q 236 921 203 921 q 253 917 249 921 q 257 900 257 913 q 251 858 257 892 q 232 567 232 753 q 424 524 318 554 q 608 447 531 493 q 686 350 686 401 q 670 291 686 322 q 633 243 654 260 q 514 168 574 194 q 392 131 454 142 q 225 111 329 121 q 222 -43 222 17 q 229 -187 222 -122 q 232 -222 232 -212 q 222 -260 232 -244 q 194 -276 213 -276 q 167 -258 169 -276 q 163 -185 165 -235 q 161 -86 161 -136 l 163 108 q 137 107 156 108 q 100 106 118 106 q 67 151 67 106 q 83 185 67 185 q 117 176 89 185 q 164 168 144 168 l 169 519 q 122 524 158 521 q 67 538 85 528 q 50 565 50 547 q 56 589 50 576 q 69 601 61 601 q 110 592 81 601 q 169 575 142 578 m 626 328 q 503 443 626 396 q 231 514 381 490 q 226 304 228 406 q 225 167 225 203 q 385 180 318 167 q 511 221 453 193 q 588 271 550 240 q 626 328 626 301 z "},"q":{"ha":660,"x_min":47,"x_max":601,"o":"m 571 689 q 567 617 571 657 q 564 580 565 601 q 563 535 563 558 q 573 135 563 321 q 592 -140 583 -51 q 593 -158 592 -149 q 596 -176 594 -168 q 601 -224 601 -215 q 581 -250 601 -237 q 550 -262 561 -262 q 530 -251 535 -262 q 525 -218 525 -239 q 529 -58 525 -142 l 531 19 q 524 232 529 82 q 514 424 519 382 q 353 106 443 232 q 160 -19 264 -19 q 78 22 108 -19 q 47 126 47 64 q 118 347 47 232 q 282 542 189 463 q 431 621 375 621 q 466 609 454 621 q 478 578 478 597 q 469 542 478 553 q 440 532 460 532 q 413 538 428 532 q 393 544 397 544 q 294 478 365 544 q 166 320 222 413 q 110 146 110 228 q 127 90 110 114 q 185 65 144 65 q 362 215 276 65 q 508 551 447 365 q 510 594 510 564 l 508 697 q 529 722 508 722 q 557 713 543 722 q 571 689 571 704 z "},"r":{"ha":575,"x_min":88,"x_max":547,"o":"m 547 585 q 530 556 547 572 q 500 540 513 540 q 481 549 490 540 q 461 572 472 557 q 435 596 451 586 q 403 606 419 606 q 294 499 363 606 q 161 232 226 393 q 166 151 163 200 q 171 79 169 103 l 175 24 q 167 -10 175 4 q 136 -25 158 -25 q 106 38 113 -25 q 97 222 99 101 q 95 310 96 253 q 92 446 94 367 q 88 617 88 565 q 126 649 88 649 q 155 628 150 649 q 160 551 160 608 l 160 331 q 250 515 201 438 q 345 634 299 593 q 428 675 392 675 q 486 661 458 675 q 531 626 514 647 q 547 585 547 604 z "},"s":{"ha":618,"x_min":56,"x_max":571,"o":"m 571 194 q 522 77 571 133 q 392 -13 472 21 q 224 -47 311 -47 q 143 -36 164 -47 q 122 -6 122 -25 q 154 38 122 7 q 197 69 186 69 q 214 63 214 69 q 207 51 214 57 q 200 42 200 46 q 217 31 200 36 q 260 25 235 25 q 377 47 318 25 q 474 103 436 68 q 511 176 511 138 q 488 236 511 214 q 428 269 464 258 q 310 299 393 279 q 167 335 218 319 q 86 376 117 351 q 56 438 56 400 q 121 560 56 504 q 271 647 186 615 q 401 679 356 679 q 449 651 449 679 q 438 615 449 635 q 404 594 426 594 q 386 601 396 594 q 367 607 376 607 q 279 589 339 607 q 171 535 219 571 q 122 447 122 499 q 160 398 122 414 q 303 358 199 382 q 328 352 315 354 q 350 347 340 350 q 514 290 457 322 q 571 194 571 258 z "},"š":{"ha":618,"x_min":53,"x_max":571,"o":"m 571 194 q 522 77 571 133 q 392 -13 472 21 q 224 -47 311 -47 q 143 -36 164 -47 q 122 -6 122 -25 q 154 38 122 7 q 197 69 186 69 q 214 63 214 69 q 207 51 214 57 q 200 42 200 46 q 217 31 200 36 q 260 25 235 25 q 377 47 318 25 q 474 103 436 68 q 511 176 511 138 q 488 236 511 214 q 428 269 464 258 q 310 299 393 279 q 167 335 218 319 q 86 376 117 351 q 56 438 56 400 q 121 560 56 504 q 271 647 186 615 q 401 679 356 679 q 449 651 449 679 q 438 615 449 635 q 404 594 426 594 q 386 601 396 594 q 367 607 376 607 q 279 589 339 607 q 171 535 219 571 q 122 447 122 499 q 160 398 122 414 q 303 358 199 382 q 328 352 315 354 q 350 347 340 350 q 514 290 457 322 q 571 194 571 258 m 308 758 q 289 746 300 746 q 270 760 283 746 q 253 779 257 774 q 81 931 165 876 q 60 945 68 939 q 53 958 53 951 q 62 980 53 968 q 85 992 71 992 q 143 965 110 992 q 200 915 176 939 l 289 826 l 310 851 q 405 963 372 928 q 458 997 438 997 q 476 990 469 997 q 482 975 482 983 q 424 901 482 964 q 326 786 365 833 l 308 758 z "},"ß":{"ha":710,"x_min":104,"x_max":704,"o":"m 704 206 q 669 117 704 165 q 574 37 633 69 q 447 4 515 4 q 367 15 388 4 q 346 46 346 26 q 365 80 346 67 q 400 93 383 93 q 431 84 407 92 q 468 76 456 76 q 549 95 507 76 q 617 142 590 114 q 644 196 644 169 q 601 264 644 232 q 472 343 558 296 q 328 431 378 393 q 279 514 279 468 q 297 566 279 540 q 354 633 315 592 q 438 740 408 692 q 468 846 468 788 q 432 926 468 893 q 354 958 396 958 q 215 798 257 958 q 172 422 172 638 q 174 337 172 385 q 176 261 175 289 q 183 21 183 153 q 178 -10 183 -3 q 156 -18 174 -18 q 127 3 136 -18 q 117 54 118 25 q 104 408 104 257 q 166 849 104 679 q 350 1018 228 1018 q 438 995 396 1018 q 505 937 479 972 q 531 865 531 901 q 501 737 531 790 q 417 622 471 683 q 369 563 385 586 q 354 518 354 540 q 389 467 354 492 q 499 399 424 442 q 651 299 599 342 q 704 206 704 257 z "},"t":{"ha":686,"x_min":0,"x_max":686,"o":"m 686 575 q 666 539 686 551 q 593 519 646 526 q 450 494 465 497 l 360 479 q 362 328 360 407 q 368 189 364 249 q 388 65 374 108 q 403 17 401 22 q 385 -9 403 3 q 353 -21 368 -21 q 339 -16 344 -21 q 329 0 333 -11 q 313 72 321 19 q 301 189 306 125 q 295 322 297 246 q 293 468 293 397 q 133 438 215 456 q 46 422 60 422 q 15 432 29 422 q 0 458 0 442 q 13 482 0 476 q 54 488 25 488 q 115 495 75 488 q 167 506 156 503 q 293 529 260 524 q 290 606 293 558 q 288 703 288 669 q 291 787 288 757 q 304 840 294 817 q 346 868 315 868 q 363 864 358 868 q 367 849 367 860 q 360 800 367 840 q 353 693 353 760 q 356 578 353 642 l 357 540 q 604 592 419 550 q 623 611 615 594 q 639 628 631 628 q 670 610 654 628 q 686 575 686 593 z "},"u":{"ha":693,"x_min":74,"x_max":650,"o":"m 650 24 q 638 -11 650 1 q 603 -24 625 -24 q 552 35 575 -24 q 524 156 529 93 q 515 397 518 215 q 514 456 514 426 q 513 507 514 486 q 403 289 472 411 q 263 79 333 167 q 149 -8 193 -8 q 88 40 103 -8 q 74 194 74 89 q 99 418 74 293 q 158 608 125 543 q 182 648 172 638 q 204 658 192 658 q 239 644 239 658 q 225 613 239 638 q 160 446 188 543 q 132 185 132 349 q 163 75 132 75 q 260 155 199 75 q 383 346 322 235 q 476 539 444 457 q 501 625 488 567 q 510 659 506 649 q 519 669 514 669 q 553 657 535 669 q 571 631 571 644 q 576 402 571 564 q 588 178 581 240 q 608 93 593 124 q 636 45 622 63 q 650 24 650 28 z "},"ú":{"ha":693,"x_min":74,"x_max":650,"o":"m 650 24 q 638 -11 650 1 q 603 -24 625 -24 q 552 35 575 -24 q 524 156 529 93 q 515 397 518 215 q 514 456 514 426 q 513 507 514 486 q 403 289 472 411 q 263 79 333 167 q 149 -8 193 -8 q 88 40 103 -8 q 74 194 74 89 q 99 418 74 293 q 158 608 125 543 q 182 648 172 638 q 204 658 192 658 q 239 644 239 658 q 225 613 239 638 q 160 446 188 543 q 132 185 132 349 q 163 75 132 75 q 260 155 199 75 q 383 346 322 235 q 476 539 444 457 q 501 625 488 567 q 510 659 506 649 q 519 669 514 669 q 553 657 535 669 q 571 631 571 644 q 576 402 571 564 q 588 178 581 240 q 608 93 593 124 q 636 45 622 63 q 650 24 650 28 m 565 938 q 521 872 565 919 q 424 782 476 824 q 354 740 372 740 q 334 747 342 740 q 326 765 326 754 q 372 815 326 772 q 450 894 425 863 q 483 944 471 924 q 505 975 499 968 q 521 982 511 982 q 550 967 535 982 q 565 938 565 951 z "},"û":{"ha":693,"x_min":74,"x_max":650,"o":"m 650 24 q 638 -11 650 1 q 603 -24 625 -24 q 552 35 575 -24 q 524 156 529 93 q 515 397 518 215 q 514 456 514 426 q 513 507 514 486 q 403 289 472 411 q 263 79 333 167 q 149 -8 193 -8 q 88 40 103 -8 q 74 194 74 89 q 99 418 74 293 q 158 608 125 543 q 182 648 172 638 q 204 658 192 658 q 239 644 239 658 q 225 613 239 638 q 160 446 188 543 q 132 185 132 349 q 163 75 132 75 q 260 155 199 75 q 383 346 322 235 q 476 539 444 457 q 501 625 488 567 q 510 659 506 649 q 519 669 514 669 q 553 657 535 669 q 571 631 571 644 q 576 402 571 564 q 588 178 581 240 q 608 93 593 124 q 636 45 622 63 q 650 24 650 28 m 371 1010 q 390 1022 379 1022 q 409 1008 396 1022 q 426 989 422 994 q 599 838 518 889 q 619 823 611 829 q 626 810 626 817 q 617 788 626 800 q 594 776 608 776 q 536 803 569 776 q 479 853 503 829 l 447 886 l 390 942 l 369 917 q 274 806 307 840 q 221 771 242 771 q 203 778 210 771 q 197 793 197 786 q 256 867 197 804 q 353 982 314 935 l 371 1010 z "},"ü":{"ha":693,"x_min":74,"x_max":650,"o":"m 650 24 q 638 -11 650 1 q 603 -24 625 -24 q 552 35 575 -24 q 524 156 529 93 q 515 397 518 215 q 514 456 514 426 q 513 507 514 486 q 403 289 472 411 q 263 79 333 167 q 149 -8 193 -8 q 88 40 103 -8 q 74 194 74 89 q 99 418 74 293 q 158 608 125 543 q 182 648 172 638 q 204 658 192 658 q 239 644 239 658 q 225 613 239 638 q 160 446 188 543 q 132 185 132 349 q 163 75 132 75 q 260 155 199 75 q 383 346 322 235 q 476 539 444 457 q 501 625 488 567 q 510 659 506 649 q 519 669 514 669 q 553 657 535 669 q 571 631 571 644 q 576 402 571 564 q 588 178 581 240 q 608 93 593 124 q 636 45 622 63 q 650 24 650 28 m 560 803 q 544 780 560 790 q 515 769 529 769 q 468 803 492 769 q 444 861 444 836 q 463 890 444 876 q 494 903 481 903 q 522 883 507 903 q 549 838 538 863 q 560 803 560 813 m 300 786 q 264 769 300 769 q 225 789 243 769 q 196 833 207 808 q 185 865 185 857 q 198 885 185 876 q 226 893 211 893 q 275 855 250 893 q 300 786 300 817 z "},"ù":{"ha":693,"x_min":74,"x_max":650,"o":"m 650 24 q 638 -11 650 1 q 603 -24 625 -24 q 552 35 575 -24 q 524 156 529 93 q 515 397 518 215 q 514 456 514 426 q 513 507 514 486 q 403 289 472 411 q 263 79 333 167 q 149 -8 193 -8 q 88 40 103 -8 q 74 194 74 89 q 99 418 74 293 q 158 608 125 543 q 182 648 172 638 q 204 658 192 658 q 239 644 239 658 q 225 613 239 638 q 160 446 188 543 q 132 185 132 349 q 163 75 132 75 q 260 155 199 75 q 383 346 322 235 q 476 539 444 457 q 501 625 488 567 q 510 659 506 649 q 519 669 514 669 q 553 657 535 669 q 571 631 571 644 q 576 402 571 564 q 588 178 581 240 q 608 93 593 124 q 636 45 622 63 q 650 24 650 28 m 492 785 q 484 767 492 774 q 464 760 476 760 q 394 801 446 760 q 297 891 342 843 q 253 957 253 939 q 268 986 253 971 q 297 1001 283 1001 q 313 994 307 1001 q 335 964 319 988 q 368 914 347 943 q 446 835 393 882 q 492 785 492 792 z "},"v":{"ha":743,"x_min":19,"x_max":753,"o":"m 753 704 q 734 685 753 697 q 711 667 715 672 q 576 432 639 585 q 478 101 514 279 q 464 18 474 81 l 457 -31 q 438 -65 453 -53 q 388 -78 424 -78 q 340 6 381 -78 q 256 188 300 90 l 196 318 q 106 503 142 436 q 53 569 69 569 q 44 563 47 569 q 36 556 40 556 q 24 562 29 556 q 19 575 19 568 q 40 622 19 593 q 79 651 60 651 q 100 646 93 651 q 113 633 107 640 q 121 622 118 626 q 236 403 154 581 q 381 76 265 340 l 413 3 q 426 119 413 39 q 518 444 457 283 q 661 714 579 606 q 688 745 678 736 q 715 754 699 754 q 738 733 722 754 q 753 704 753 711 z "},"w":{"ha":990,"x_min":19,"x_max":928,"o":"m 928 550 q 891 280 928 408 q 806 72 854 151 q 728 -8 757 -8 q 649 72 686 -8 q 587 267 611 153 q 557 474 563 381 q 476 310 519 401 q 408 156 433 219 q 342 -36 371 57 q 338 -49 340 -39 q 330 -64 335 -60 q 315 -68 325 -68 q 284 -59 294 -68 q 265 -31 274 -50 l 254 26 q 201 285 229 163 q 139 493 171 411 q 90 575 107 575 q 74 566 85 575 q 53 551 63 557 q 36 549 43 546 q 19 568 19 557 q 36 603 19 579 q 74 645 53 626 q 113 664 96 664 q 134 658 125 664 q 153 639 143 651 q 203 528 171 615 q 261 318 235 442 l 318 75 q 435 370 382 253 q 557 614 489 488 q 613 661 583 661 q 644 647 632 661 q 657 625 657 633 q 650 613 657 619 q 639 599 643 606 q 622 564 628 583 q 615 504 615 544 q 633 352 615 456 q 680 167 650 249 q 744 85 710 85 q 796 154 765 85 q 849 326 826 224 q 872 522 872 428 q 853 567 872 542 q 838 597 838 588 q 851 622 838 606 q 878 638 864 638 q 912 608 896 638 q 928 550 928 579 z "},"x":{"ha":539,"x_min":31,"x_max":525,"o":"m 525 147 q 513 93 525 129 q 483 28 500 57 q 451 0 467 0 q 376 69 424 0 q 256 256 328 138 l 239 283 q 194 199 211 233 q 160 124 176 165 q 132 44 132 57 q 151 25 132 25 q 165 32 156 25 q 179 39 175 39 q 192 35 186 39 q 197 25 197 31 q 176 -3 197 17 q 130 -37 156 -22 q 89 -53 104 -53 q 69 -34 78 -53 q 61 6 61 -15 q 92 110 61 43 q 186 297 124 178 l 208 338 q 134 488 181 397 q 51 638 88 579 q 31 707 31 674 q 34 726 31 721 q 44 732 38 732 q 71 719 57 732 q 104 672 85 706 q 244 404 167 572 q 276 460 250 414 q 361 603 319 538 q 406 658 390 644 q 451 672 422 672 q 492 650 492 672 q 488 641 492 644 q 469 630 483 638 q 439 607 454 622 q 365 506 415 583 q 271 347 315 429 q 342 230 301 289 q 416 133 383 171 q 457 94 449 94 q 489 131 476 94 q 497 151 492 140 q 508 163 501 163 q 525 147 525 163 z "},"y":{"ha":590,"x_min":38,"x_max":531,"o":"m 531 614 q 515 475 531 582 q 497 338 499 353 q 472 77 479 167 q 464 -85 464 -12 q 473 -179 464 -144 q 492 -234 482 -214 q 503 -258 503 -254 q 481 -281 503 -271 q 435 -290 458 -290 q 406 -242 417 -290 q 396 -90 396 -193 q 411 119 396 -12 l 432 311 q 340 173 394 239 q 226 107 285 107 q 129 201 172 107 q 62 415 86 296 q 38 590 38 535 q 58 625 38 625 q 97 568 89 625 q 244 182 150 182 q 310 212 282 182 q 378 304 339 242 q 417 382 396 333 q 449 463 438 431 l 458 603 q 467 648 461 635 q 489 661 472 661 q 517 645 503 661 q 531 614 531 629 z "},"ý":{"ha":590,"x_min":38,"x_max":531,"o":"m 531 614 q 515 475 531 582 q 497 338 499 353 q 472 77 479 167 q 464 -85 464 -12 q 473 -179 464 -144 q 492 -234 482 -214 q 503 -258 503 -254 q 481 -281 503 -271 q 435 -290 458 -290 q 406 -242 417 -290 q 396 -90 396 -193 q 411 119 396 -12 l 432 311 q 340 173 394 239 q 226 107 285 107 q 129 201 172 107 q 62 415 86 296 q 38 590 38 535 q 58 625 38 625 q 97 568 89 625 q 244 182 150 182 q 310 212 282 182 q 378 304 339 242 q 417 382 396 333 q 449 463 438 431 l 458 603 q 467 648 461 635 q 489 661 472 661 q 517 645 503 661 q 531 614 531 629 m 439 893 q 394 827 439 875 q 298 738 350 779 q 228 696 246 696 q 208 703 215 696 q 200 721 200 710 q 246 771 200 728 q 324 850 299 818 q 357 900 344 879 q 378 931 372 924 q 394 938 385 938 q 424 922 408 938 q 439 893 439 907 z "},"ÿ":{"ha":590,"x_min":38,"x_max":531,"o":"m 531 614 q 515 475 531 582 q 497 338 499 353 q 472 77 479 167 q 464 -85 464 -12 q 473 -179 464 -144 q 492 -234 482 -214 q 503 -258 503 -254 q 481 -281 503 -271 q 435 -290 458 -290 q 406 -242 417 -290 q 396 -90 396 -193 q 411 119 396 -12 l 432 311 q 340 173 394 239 q 226 107 285 107 q 129 201 172 107 q 62 415 86 296 q 38 590 38 535 q 58 625 38 625 q 97 568 89 625 q 244 182 150 182 q 310 212 282 182 q 378 304 339 242 q 417 382 396 333 q 449 463 438 431 l 458 603 q 467 648 461 635 q 489 661 472 661 q 517 645 503 661 q 531 614 531 629 m 457 746 q 442 723 457 733 q 413 713 426 713 q 365 746 389 713 q 342 804 342 779 q 360 833 342 819 q 392 846 378 846 q 419 826 404 846 q 446 781 435 806 q 457 746 457 756 m 197 729 q 161 713 197 713 q 122 732 140 713 q 93 776 104 751 q 82 808 82 800 q 95 828 82 819 q 124 836 108 836 q 172 798 147 836 q 197 729 197 760 z "},"z":{"ha":735,"x_min":40,"x_max":701,"o":"m 701 172 q 651 92 701 138 q 520 15 601 47 q 353 -18 439 -18 q 228 -4 289 -18 q 131 33 168 10 q 93 81 93 56 q 119 159 93 114 q 204 289 146 204 q 119 300 168 289 q 94 331 94 307 q 119 340 94 340 l 246 342 q 303 469 278 401 q 329 560 329 536 q 319 571 329 571 q 272 556 304 571 q 229 535 240 540 q 58 494 144 494 q 40 507 40 494 q 81 529 40 517 q 226 597 136 547 q 368 654 329 654 q 403 644 390 654 q 415 619 415 635 q 303 346 415 585 q 407 365 335 347 q 438 372 431 372 q 444 368 442 372 q 447 360 447 364 q 425 328 447 338 q 265 289 368 301 l 236 242 q 176 142 197 181 q 156 85 156 103 q 224 56 156 67 q 358 46 292 46 q 532 75 454 46 q 660 158 610 104 q 674 210 667 171 q 678 233 675 222 q 686 243 681 243 q 698 223 694 243 q 701 172 701 203 z "},"ž":{"ha":735,"x_min":40,"x_max":701,"o":"m 701 172 q 651 92 701 138 q 520 15 601 47 q 353 -18 439 -18 q 228 -4 289 -18 q 131 33 168 10 q 93 81 93 56 q 119 159 93 114 q 204 289 146 204 q 119 300 168 289 q 94 331 94 307 q 119 340 94 340 l 246 342 q 303 469 278 401 q 329 560 329 536 q 319 571 329 571 q 272 556 304 571 q 229 535 240 540 q 58 494 144 494 q 40 507 40 494 q 81 529 40 517 q 226 597 136 547 q 368 654 329 654 q 403 644 390 654 q 415 619 415 635 q 303 346 415 585 q 407 365 335 347 q 438 372 431 372 q 444 368 442 372 q 447 360 447 364 q 425 328 447 338 q 265 289 368 301 l 236 242 q 176 142 197 181 q 156 85 156 103 q 224 56 156 67 q 358 46 292 46 q 532 75 454 46 q 660 158 610 104 q 674 210 667 171 q 678 233 675 222 q 686 243 681 243 q 698 223 694 243 q 701 172 701 203 m 317 714 q 297 701 308 701 q 278 715 292 701 q 261 735 265 729 q 89 886 174 832 q 69 901 76 894 q 61 914 61 907 q 70 935 61 924 q 93 947 79 947 q 151 921 118 947 q 208 871 185 894 l 297 782 l 318 807 q 413 918 381 883 q 467 953 446 953 q 484 946 478 953 q 490 931 490 939 q 432 857 490 919 q 335 742 374 789 l 317 714 z "},"ª":{"ha":524,"x_min":83,"x_max":457,"o":"m 424 664 q 397 684 407 664 q 386 729 386 704 q 389 843 386 779 l 389 874 l 389 890 q 372 864 378 874 q 333 808 339 815 q 232 702 283 742 q 133 663 181 663 q 97 683 110 663 q 83 738 83 703 q 117 835 83 775 q 201 955 151 896 q 297 1046 251 1014 q 360 1071 335 1071 q 396 1047 382 1071 q 410 996 410 1024 l 411 967 l 421 967 q 433 958 429 967 q 438 935 438 949 l 442 804 l 444 731 l 449 725 l 451 722 q 457 708 457 714 q 447 680 457 696 q 424 664 438 664 m 371 963 q 372 974 371 968 q 374 986 374 981 q 368 1002 374 994 q 351 1010 363 1010 q 274 959 325 1010 q 184 844 224 908 q 144 743 144 781 q 148 730 144 735 q 156 725 151 725 q 314 856 218 725 q 343 899 333 882 q 379 947 368 935 q 374 955 378 950 q 371 963 371 960 z "},"º":{"ha":421,"x_min":61,"x_max":364,"o":"m 142 657 q 85 677 108 657 q 61 732 61 697 q 80 825 61 761 q 114 924 99 889 q 124 954 118 932 q 147 1011 136 992 q 179 1031 158 1031 q 198 1024 189 1031 q 207 1007 207 1018 q 193 971 207 999 q 119 739 119 806 q 128 724 119 731 q 154 717 138 717 q 223 740 188 717 q 282 795 258 764 q 306 844 306 826 q 292 867 306 854 q 254 899 279 879 q 214 932 228 918 q 200 956 200 946 q 217 976 200 967 q 254 986 233 986 q 276 982 272 986 q 281 971 281 978 q 276 961 281 965 l 275 960 q 278 958 275 958 q 285 954 282 957 q 342 901 321 925 q 364 849 364 878 q 331 773 364 819 q 246 692 297 726 q 142 657 194 657 z "},"¹":{"ha":443,"x_min":143,"x_max":294,"o":"m 294 351 q 285 331 294 340 q 257 321 276 321 q 228 344 239 321 q 209 410 218 367 q 183 558 200 453 q 172 626 185 551 q 154 768 165 672 q 143 881 143 864 q 151 900 143 893 q 171 907 158 907 q 197 885 188 907 q 213 831 207 863 l 228 733 q 275 440 265 476 q 294 351 294 360 z "},"²":{"ha":622,"x_min":56,"x_max":594,"o":"m 210 376 q 428 417 281 376 q 506 442 476 429 q 535 451 514 444 q 565 457 556 457 q 588 443 581 457 q 594 413 594 429 q 547 377 594 390 q 408 346 500 364 q 164 308 217 308 q 116 324 135 308 q 97 363 97 339 q 106 393 97 378 q 124 417 114 408 q 172 461 118 411 q 213 497 185 472 q 265 546 242 522 q 338 620 314 593 q 378 682 363 647 q 393 761 393 717 q 367 829 393 803 q 297 856 342 856 q 150 803 217 856 q 105 769 124 782 q 76 756 86 756 q 62 764 68 756 q 56 785 56 772 q 64 814 56 800 q 83 838 72 828 q 307 919 179 919 q 425 876 381 919 q 469 771 469 833 q 435 644 469 699 q 333 533 400 590 q 222 431 276 485 q 199 406 211 419 q 188 386 188 393 q 210 376 188 376 z "},"³":{"ha":574,"x_min":63,"x_max":482,"o":"m 482 546 q 424 407 482 464 q 278 322 365 350 q 176 296 236 307 q 89 285 117 285 q 69 296 75 285 q 63 321 63 307 q 68 344 63 335 q 83 356 74 354 q 170 363 131 357 q 271 386 210 368 q 374 448 335 406 q 414 546 414 490 q 310 625 414 625 q 246 618 285 625 q 169 596 207 611 q 146 589 156 589 q 128 596 138 589 q 119 615 119 603 q 125 631 119 625 q 138 640 131 638 l 178 654 q 205 663 190 658 q 233 674 219 668 q 311 722 286 696 q 336 797 336 749 q 313 855 336 836 q 256 874 290 874 q 174 844 214 874 q 149 821 168 840 q 134 806 142 813 q 118 800 126 800 q 105 808 111 800 q 99 831 99 815 q 122 878 99 854 q 185 917 146 901 q 267 932 224 932 q 367 898 331 932 q 404 810 404 864 q 376 727 404 760 q 304 669 349 694 l 304 665 q 311 666 306 665 q 325 667 317 667 q 431 642 379 667 q 482 546 482 618 z "},"½":{"ha":1069,"x_min":76,"x_max":1061,"o":"m 756 965 q 775 958 768 965 q 782 939 782 950 q 733 826 782 900 l 592 619 q 367 290 407 353 q 190 -11 268 139 q 156 -70 165 -58 q 129 -82 146 -82 q 111 -75 118 -82 q 104 -57 104 -68 q 153 74 104 -17 q 235 214 203 165 q 298 308 260 253 q 374 419 336 364 q 514 624 483 576 q 588 743 538 660 q 692 908 651 851 q 756 965 732 965 m 228 351 q 219 331 228 340 q 190 321 210 321 q 162 344 172 321 q 142 410 151 367 q 117 558 133 453 q 106 626 118 551 q 88 768 99 672 q 76 881 76 864 q 84 900 76 893 q 104 907 92 907 q 131 885 121 907 q 146 831 140 863 l 161 733 q 208 440 199 476 q 228 351 228 360 m 676 19 q 894 60 747 19 q 972 85 943 72 q 1001 94 981 88 q 1032 100 1022 100 q 1054 86 1047 100 q 1061 56 1061 72 q 1014 20 1061 33 q 875 -11 967 7 q 631 -49 683 -49 q 583 -33 601 -49 q 564 6 564 -18 q 572 36 564 21 q 590 60 581 51 q 639 104 585 54 q 680 140 651 115 q 732 189 708 165 q 805 263 781 236 q 844 325 829 290 q 860 404 860 360 q 834 472 860 446 q 764 499 808 499 q 617 446 683 499 q 572 412 590 425 q 543 399 553 399 q 528 407 535 399 q 522 428 522 415 q 531 457 522 443 q 550 481 539 471 q 774 563 646 563 q 892 519 847 563 q 936 414 936 476 q 901 288 936 342 q 800 176 867 233 q 689 74 743 128 q 666 49 678 63 q 654 29 654 36 q 676 19 654 19 z "},"¼":{"ha":1050,"x_min":76,"x_max":1015,"o":"m 756 965 q 775 958 768 965 q 782 939 782 950 q 733 826 782 900 l 592 619 q 367 290 407 353 q 190 -11 268 139 q 156 -70 165 -58 q 129 -82 146 -82 q 111 -75 118 -82 q 104 -57 104 -68 q 153 74 104 -17 q 235 214 203 165 q 298 308 260 253 q 374 419 336 364 q 514 624 483 576 q 588 743 538 660 q 692 908 651 851 q 756 965 732 965 m 228 351 q 219 331 228 340 q 190 321 210 321 q 162 344 172 321 q 142 410 151 367 q 117 558 133 453 q 106 626 118 551 q 88 768 99 672 q 76 881 76 864 q 84 900 76 893 q 104 907 92 907 q 131 885 121 907 q 146 831 140 863 l 161 733 q 208 440 199 476 q 228 351 228 360 m 843 -21 q 824 -37 843 -29 q 790 -46 804 -46 q 758 12 772 -46 q 739 149 744 69 l 672 135 l 579 115 q 403 88 435 88 q 386 97 392 88 q 381 118 381 107 q 397 160 381 140 q 540 318 453 229 q 689 481 596 374 l 715 510 q 774 546 747 546 q 801 536 785 546 q 817 515 817 526 q 807 492 817 503 q 803 297 803 408 q 806 218 803 263 q 933 240 867 231 q 945 247 940 242 q 953 260 950 253 q 959 270 956 265 q 968 275 963 275 q 999 258 983 275 q 1015 222 1015 240 q 996 190 1015 199 q 922 175 976 181 l 810 161 q 825 58 815 97 q 836 14 835 19 q 843 -21 843 -11 m 739 454 q 680 387 725 439 q 594 292 635 335 q 460 144 511 203 q 518 157 499 154 l 568 168 l 676 190 q 738 203 710 199 q 735 294 735 244 q 739 454 735 415 z "},"¾":{"ha":1178,"x_min":22,"x_max":1143,"o":"m 883 965 q 903 958 896 965 q 910 939 910 950 q 861 826 910 900 l 719 619 q 494 290 535 353 q 318 -11 396 139 q 283 -70 293 -58 q 257 -82 274 -82 q 239 -75 246 -82 q 232 -57 232 -68 q 281 74 232 -17 q 363 214 331 165 q 426 308 388 253 q 501 419 464 364 q 642 624 611 576 q 715 743 665 660 q 819 908 779 851 q 883 965 860 965 m 971 -21 q 951 -37 971 -29 q 918 -46 932 -46 q 886 12 900 -46 q 867 149 872 69 l 800 135 l 707 115 q 531 88 563 88 q 514 97 519 88 q 508 118 508 107 q 525 160 508 140 q 668 318 581 229 q 817 481 724 374 l 843 510 q 901 546 875 546 q 928 536 913 546 q 944 515 944 526 q 935 492 944 503 q 931 297 931 408 q 933 218 931 263 q 1061 240 994 231 q 1073 247 1068 242 q 1081 260 1078 253 q 1087 270 1083 265 q 1096 275 1090 275 q 1127 258 1111 275 q 1143 222 1143 240 q 1124 190 1143 199 q 1050 175 1104 181 l 938 161 q 953 58 943 97 q 964 14 963 19 q 971 -21 971 -11 m 867 454 q 808 387 853 439 q 722 292 763 335 q 588 144 639 203 q 646 157 626 154 l 696 168 l 804 190 q 865 203 838 199 q 863 294 863 244 q 867 454 863 415 m 442 535 q 383 396 442 453 q 238 311 325 339 q 136 285 196 296 q 49 274 76 274 q 28 285 35 274 q 22 310 22 296 q 28 333 22 324 q 43 344 33 343 q 130 351 90 346 q 231 375 169 357 q 334 437 294 394 q 374 535 374 479 q 269 614 374 614 q 206 607 244 614 q 129 585 167 600 q 106 578 115 578 q 88 585 97 578 q 79 604 79 592 q 85 620 79 614 q 97 629 90 626 l 138 643 q 165 652 150 647 q 193 663 179 657 q 271 711 246 685 q 296 786 296 738 q 273 844 296 825 q 215 863 250 863 q 133 833 174 863 q 108 810 128 829 q 94 795 101 801 q 78 789 86 789 q 65 797 71 789 q 58 819 58 804 q 82 867 58 843 q 144 906 106 890 q 226 921 183 921 q 327 887 290 921 q 364 799 364 853 q 336 716 364 749 q 264 658 308 683 l 264 654 q 271 655 265 654 q 285 656 276 656 q 390 631 339 656 q 442 535 442 607 z "},"*":{"ha":497,"x_min":13,"x_max":483,"o":"m 483 658 q 474 647 483 654 q 460 639 465 639 q 409 663 450 639 q 325 714 368 686 l 286 739 q 278 616 285 681 q 264 517 272 551 q 255 501 263 511 q 243 490 247 490 q 221 504 222 490 q 217 635 217 521 l 214 740 l 174 708 q 94 647 108 656 q 49 635 75 635 q 39 639 44 635 q 33 649 33 643 q 39 683 33 672 q 53 703 44 694 q 67 715 63 711 q 193 800 86 735 l 125 846 q 63 887 92 868 q 32 913 35 906 q 21 932 29 918 q 13 957 13 946 q 23 972 13 963 q 42 981 33 981 q 67 974 56 981 q 140 917 82 965 l 210 863 l 210 999 q 213 1034 210 1022 q 229 1046 217 1046 q 269 1022 258 1046 q 286 860 281 1006 q 378 910 336 889 q 436 931 421 931 q 444 926 442 931 q 447 915 447 921 q 440 899 447 906 q 429 890 432 893 q 297 799 408 869 q 383 743 308 790 q 432 711 393 736 q 475 679 471 686 q 481 671 478 675 q 483 658 483 667 z "},"\\":{"ha":506,"x_min":76,"x_max":451,"o":"m 451 -117 q 435 -169 451 -165 q 424 -171 431 -171 q 401 -162 411 -171 q 388 -140 392 -154 q 375 -79 382 -124 q 292 271 350 71 q 225 492 267 360 q 169 669 183 624 q 93 914 128 797 q 76 1010 76 971 q 96 1053 76 1047 q 107 1054 100 1054 q 138 1033 128 1054 q 181 904 160 978 l 221 757 q 251 640 243 668 q 329 394 283 531 q 406 149 376 251 q 435 17 419 97 q 451 -117 451 -62 z "},"·":{"ha":294,"x_min":97,"x_max":239,"o":"m 239 364 q 193 343 239 343 q 145 373 167 343 q 110 440 124 403 q 97 488 97 476 q 112 517 97 503 q 142 531 126 531 q 157 523 151 531 q 174 497 163 515 q 197 465 188 472 q 227 414 215 451 q 239 364 239 376 z "},"•":{"ha":660,"x_min":74,"x_max":586,"o":"m 303 121 q 192 160 246 121 q 106 260 139 200 q 74 376 74 319 q 117 504 74 444 q 228 599 160 564 q 367 633 296 633 q 485 597 435 633 q 560 502 535 561 q 586 378 586 443 q 544 263 586 324 q 437 162 503 203 q 303 121 371 121 z "},":":{"ha":294,"x_min":97,"x_max":239,"o":"m 229 476 q 183 456 229 456 q 135 501 153 456 q 117 585 117 546 q 131 614 117 600 q 161 628 146 628 q 209 575 189 628 q 229 476 229 522 m 239 -14 q 193 -35 239 -35 q 145 -5 167 -35 q 110 62 124 25 q 97 110 97 99 q 112 139 97 125 q 142 153 126 153 q 177 119 154 153 q 219 45 200 86 q 239 -14 239 4 z "},",":{"ha":294,"x_min":61,"x_max":256,"o":"m 256 103 q 223 13 256 82 q 151 -115 190 -57 q 93 -174 113 -174 q 70 -166 79 -174 q 61 -146 61 -158 q 77 -106 61 -137 q 97 -68 93 -75 l 136 7 l 161 71 q 186 133 176 113 q 206 153 196 153 q 238 135 221 153 q 256 103 256 118 z "},"…":{"ha":883,"x_min":97,"x_max":828,"o":"m 239 -14 q 193 -35 239 -35 q 145 -5 167 -35 q 110 62 124 25 q 97 110 97 99 q 112 139 97 125 q 142 153 126 153 q 157 145 151 153 q 174 119 163 138 q 197 88 188 94 q 227 36 215 74 q 239 -14 239 -1 m 533 -14 q 488 -35 533 -35 q 440 -5 461 -35 q 405 62 418 25 q 392 110 392 99 q 406 139 392 125 q 436 153 421 153 q 451 145 446 153 q 468 119 457 138 q 492 88 482 94 q 522 36 510 74 q 533 -14 533 -1 m 828 -14 q 782 -35 828 -35 q 734 -5 756 -35 q 699 62 713 25 q 686 110 686 99 q 701 139 686 125 q 731 153 715 153 q 746 145 740 153 q 763 119 751 138 q 786 88 776 94 q 816 36 804 74 q 828 -14 828 -1 z "},"!":{"ha":278,"x_min":101,"x_max":239,"o":"m 192 864 q 186 793 192 860 q 165 385 165 589 q 171 294 165 340 q 176 240 176 249 q 149 207 176 207 q 128 230 139 207 q 109 290 117 253 q 101 367 101 326 q 113 811 101 478 q 127 886 114 851 q 174 921 140 921 q 188 909 185 921 q 192 864 192 897 m 239 -14 q 193 -35 239 -35 q 150 -19 167 -35 q 126 17 133 -3 q 119 49 119 38 q 134 78 119 64 q 164 92 149 92 q 179 83 174 92 q 192 60 185 75 q 214 26 203 35 q 232 5 225 18 q 239 -14 239 -8 z "},"¡":{"ha":278,"x_min":42,"x_max":179,"o":"m 42 650 q 88 671 42 671 q 131 655 114 671 q 154 619 147 639 q 161 588 161 599 q 147 558 161 572 q 117 544 132 544 q 101 553 107 544 q 89 576 96 561 q 67 610 78 601 q 49 631 56 618 q 42 650 42 644 m 89 -228 q 94 -157 89 -224 q 115 251 115 49 q 110 342 115 296 q 104 396 104 388 q 132 429 104 429 q 153 406 142 429 q 172 347 164 383 q 179 269 179 310 q 168 -175 179 158 q 153 -250 167 -215 q 107 -285 140 -285 q 92 -273 96 -285 q 89 -228 89 -261 z "},"#":{"ha":844,"x_min":32,"x_max":890,"o":"m 890 733 q 889 719 890 725 q 833 690 885 697 q 714 678 782 683 l 632 674 l 604 457 q 749 476 683 467 q 782 481 767 478 q 807 483 797 483 l 808 483 q 824 461 824 483 q 821 447 824 458 q 651 389 811 400 q 596 386 618 386 l 594 371 q 567 153 579 231 q 563 124 564 138 q 549 98 561 108 q 522 86 538 88 l 521 86 q 500 151 500 86 q 506 240 500 179 q 517 333 515 315 q 524 382 522 368 l 492 381 q 396 377 460 379 q 293 372 332 375 q 253 79 260 203 q 249 32 250 38 q 233 7 246 17 q 204 -3 221 -3 q 178 82 178 -1 q 185 182 178 126 q 196 258 192 238 l 210 326 l 218 367 q 115 356 129 357 q 93 353 106 354 q 65 351 81 351 q 40 357 49 351 q 32 376 32 363 l 33 390 q 64 424 39 414 q 114 436 89 435 q 235 439 172 439 q 283 649 269 582 q 224 643 288 649 q 171 639 186 639 q 122 668 122 639 q 124 678 122 675 q 160 712 129 701 q 224 724 192 722 l 299 726 l 307 782 l 329 911 q 358 1024 342 976 q 373 1042 363 1036 q 396 1049 383 1049 l 397 1049 q 424 997 424 1049 q 417 938 424 976 l 378 763 l 369 728 q 421 729 404 728 q 569 733 503 729 l 574 786 q 582 901 579 875 q 601 1017 589 963 q 615 1037 604 1029 q 638 1044 625 1044 l 640 1044 q 669 976 669 1046 q 667 936 669 958 q 642 738 663 885 l 772 747 l 875 756 l 876 756 q 890 733 890 756 m 564 669 q 372 658 478 665 q 354 657 361 658 l 307 440 q 474 446 426 443 q 535 451 513 449 q 542 494 536 468 q 551 567 546 524 q 564 669 557 610 z "},".":{"ha":294,"x_min":97,"x_max":239,"o":"m 239 -14 q 193 -35 239 -35 q 145 -5 167 -35 q 110 62 124 25 q 97 110 97 99 q 112 139 97 125 q 142 153 126 153 q 157 145 151 153 q 174 119 163 138 q 197 88 188 94 q 227 36 215 74 q 239 -14 239 -1 z "},"?":{"ha":693,"x_min":32,"x_max":650,"o":"m 650 744 q 618 651 650 696 q 531 557 586 606 l 490 521 q 448 483 485 515 q 389 419 411 451 q 365 350 365 388 q 381 278 365 318 q 388 261 383 272 q 393 243 393 250 q 382 217 393 226 q 357 207 371 207 q 317 243 332 207 q 289 350 289 311 q 311 425 289 386 q 357 482 328 454 q 431 547 386 510 l 481 590 q 543 662 521 629 q 565 731 565 694 q 485 796 565 796 q 360 772 432 796 q 226 711 289 747 q 135 646 163 675 q 108 624 121 633 q 86 614 94 614 q 51 628 69 614 q 32 661 32 642 q 40 675 32 668 q 59 688 49 682 q 79 701 69 694 q 285 815 171 763 q 494 868 399 868 q 608 835 565 868 q 650 744 650 803 m 468 85 q 454 45 468 69 q 419 3 440 21 q 379 -14 399 -14 q 324 40 324 -14 q 353 95 324 67 q 414 124 383 124 q 468 85 468 124 z "},"¿":{"ha":693,"x_min":33,"x_max":651,"o":"m 257 563 q 274 599 257 575 q 312 642 290 622 q 346 661 333 661 q 401 607 401 661 q 374 553 401 582 q 324 524 347 524 q 257 563 257 524 m 33 -172 q 66 -62 33 -117 q 175 85 99 -7 q 242 201 221 139 q 272 354 263 263 q 292 413 275 385 q 326 440 310 440 q 341 434 338 440 q 344 414 344 428 q 326 258 344 342 q 275 119 307 174 q 204 26 254 85 q 139 -60 160 -28 q 118 -124 118 -93 q 128 -141 118 -133 q 150 -149 139 -149 q 331 -85 224 -149 q 517 42 439 -22 q 603 86 572 86 q 635 78 619 86 q 651 56 651 69 q 643 42 651 49 q 624 28 635 35 q 604 15 614 22 q 335 -156 471 -90 q 100 -221 200 -221 q 53 -208 74 -221 q 33 -172 33 -196 z "},"\"":{"ha":471,"x_min":99,"x_max":369,"o":"m 193 850 q 186 748 193 792 q 167 697 179 704 q 149 692 157 692 q 125 706 135 692 q 119 792 119 715 l 117 876 q 107 946 115 900 q 99 1013 99 996 q 107 1038 99 1032 q 125 1040 111 1040 q 154 1034 139 1040 q 175 1018 169 1028 q 188 953 182 1003 q 193 850 193 904 m 369 850 q 363 747 369 790 q 344 697 357 704 q 326 692 335 692 q 303 706 313 692 q 297 792 297 715 l 294 876 q 285 946 293 900 q 276 1013 276 996 q 285 1038 276 1032 q 301 1040 289 1040 q 332 1034 317 1040 q 353 1018 347 1028 q 365 955 360 1004 q 369 850 369 906 z "},"'":{"ha":294,"x_min":99,"x_max":193,"o":"m 193 850 q 186 748 193 792 q 167 697 179 704 q 149 692 157 692 q 125 706 135 692 q 119 792 119 715 l 117 876 q 107 946 115 900 q 99 1013 99 996 q 107 1038 99 1032 q 125 1040 111 1040 q 154 1034 139 1040 q 175 1018 169 1028 q 188 953 182 1003 q 193 850 193 904 z "},";":{"ha":294,"x_min":61,"x_max":256,"o":"m 229 492 q 216 463 229 469 q 183 456 203 456 q 135 499 153 456 q 117 585 117 543 q 131 614 117 600 q 161 628 146 628 q 195 603 179 628 q 220 545 211 578 q 229 492 229 513 m 256 103 q 223 13 256 82 q 151 -115 190 -57 q 93 -174 113 -174 q 70 -166 79 -174 q 61 -146 61 -158 q 77 -106 61 -137 q 97 -68 93 -75 l 136 7 l 161 71 q 186 133 176 113 q 206 153 196 153 q 238 135 221 153 q 256 103 256 118 z "},"/":{"ha":506,"x_min":76,"x_max":451,"o":"m 451 1010 q 435 914 451 971 q 353 650 413 832 q 236 271 271 389 q 153 -79 178 71 q 140 -140 146 -124 q 126 -162 136 -154 q 104 -171 117 -171 q 93 -169 97 -171 q 76 -117 76 -165 q 94 25 76 -62 q 124 149 113 113 q 200 394 153 251 q 233 495 208 421 q 276 640 257 569 q 307 757 285 668 l 347 904 q 390 1033 368 978 q 421 1054 401 1054 q 432 1053 428 1054 q 451 1010 451 1047 z "},"_":{"ha":656,"x_min":-1,"x_max":656,"o":"m 656 -110 l 656 -169 l -1 -169 l -1 -110 l 656 -110 z "},"{":{"ha":565,"x_min":139,"x_max":518,"o":"m 518 -165 q 495 -192 518 -178 q 436 -217 472 -207 q 364 -226 400 -226 q 250 -191 301 -226 q 169 -97 199 -156 q 139 25 139 -39 q 173 167 139 104 q 261 289 207 231 q 290 318 274 303 q 317 342 306 333 q 206 390 253 363 q 158 435 158 417 q 183 467 158 450 q 261 511 208 483 q 307 536 286 524 q 328 556 328 549 q 300 594 328 564 q 251 656 269 628 q 233 717 233 685 q 259 811 233 764 q 310 890 285 858 q 399 988 336 921 q 410 1003 404 994 q 420 1015 415 1011 q 433 1019 425 1019 q 456 1009 447 1019 q 464 985 464 999 q 459 964 464 972 q 448 948 454 956 q 438 936 442 940 l 417 915 q 331 822 365 868 q 296 721 296 775 q 311 672 296 694 q 357 615 326 649 q 392 574 381 590 q 403 543 403 558 q 324 490 403 524 q 270 464 289 475 q 251 443 251 453 q 277 417 251 429 q 331 397 303 404 q 374 388 333 396 q 413 378 401 382 q 425 364 425 374 q 376 314 425 353 q 318 261 335 281 q 247 159 276 214 q 217 26 217 104 q 238 -68 217 -25 q 292 -135 258 -111 q 364 -160 326 -160 q 456 -140 397 -160 q 492 -131 482 -131 q 509 -140 500 -131 q 518 -165 518 -150 z "},"}":{"ha":565,"x_min":119,"x_max":458,"o":"m 458 832 q 410 683 458 746 q 289 565 363 621 q 360 532 301 547 q 426 506 404 518 q 447 472 447 493 q 423 434 447 457 q 357 381 399 411 q 315 347 333 363 q 297 325 297 332 q 309 291 297 311 q 343 238 321 271 q 393 156 375 189 q 411 93 411 122 q 358 -38 411 31 q 221 -185 306 -107 q 187 -207 210 -196 q 151 -218 164 -218 q 128 -210 136 -218 q 119 -189 119 -203 q 131 -169 119 -178 q 159 -151 143 -160 q 183 -136 175 -142 q 297 -24 244 -87 q 349 89 349 39 q 335 138 349 113 q 288 208 321 163 q 239 281 256 253 q 222 338 222 310 q 292 404 222 357 q 339 441 324 428 q 354 464 354 454 q 326 488 354 478 q 258 508 299 497 q 208 531 221 518 q 194 560 194 543 q 208 579 194 567 q 240 606 222 592 q 292 647 274 631 q 355 724 332 685 q 378 831 378 764 q 324 925 378 897 q 178 968 271 953 q 159 976 168 969 q 150 994 150 982 q 162 1014 150 1007 q 189 1021 174 1021 q 250 1014 219 1021 q 399 958 339 997 q 458 832 458 918 z "},"[":{"ha":563,"x_min":140,"x_max":513,"o":"m 513 -151 q 497 -184 513 -171 q 458 -197 481 -197 q 339 -210 414 -197 q 307 -215 329 -212 q 219 -230 250 -224 q 182 -236 189 -236 q 167 -227 171 -236 q 165 -192 164 -218 l 167 214 q 143 726 167 447 l 140 765 q 190 811 140 790 q 272 863 193 813 q 422 913 351 913 q 453 881 453 913 q 440 860 453 865 q 403 850 428 854 q 354 838 367 844 q 262 787 304 813 q 211 747 219 761 q 223 522 217 690 q 229 218 229 353 l 226 -165 q 255 -162 232 -165 q 317 -149 278 -158 q 423 -123 388 -131 q 488 -115 458 -115 q 508 -126 503 -115 q 513 -151 513 -136 z "},"]":{"ha":563,"x_min":50,"x_max":408,"o":"m 408 -108 q 405 -137 408 -126 q 389 -149 401 -147 q 304 -161 317 -156 q 247 -189 269 -174 q 193 -228 224 -204 q 166 -249 176 -243 q 144 -256 156 -256 q 114 -244 128 -256 q 100 -221 100 -233 q 107 -191 100 -203 q 133 -171 114 -179 q 200 -140 156 -162 q 279 -106 251 -117 q 338 -90 307 -94 q 326 135 332 -33 q 319 439 319 304 l 322 822 l 232 806 q 145 790 183 796 q 83 783 107 783 q 58 794 67 783 q 50 819 50 806 q 59 847 50 839 q 90 854 68 854 q 210 867 135 854 q 242 872 219 869 q 329 887 299 881 q 367 893 360 893 q 380 884 376 893 q 383 849 383 875 l 382 443 q 406 -69 382 210 l 408 -108 z "},"(":{"ha":563,"x_min":167,"x_max":513,"o":"m 513 -171 q 497 -203 513 -190 q 458 -217 481 -217 q 348 -184 415 -217 q 224 -56 281 -151 q 167 214 167 40 q 215 588 167 393 q 337 912 264 782 q 476 1042 410 1042 q 507 1010 507 1042 q 489 994 507 1000 q 456 979 471 988 q 426 949 440 971 q 292 647 353 829 q 232 218 232 464 q 254 22 232 94 q 328 -87 276 -50 q 472 -140 379 -125 q 501 -151 490 -143 q 513 -171 513 -160 z "},")":{"ha":563,"x_min":58,"x_max":428,"o":"m 428 263 q 365 -21 428 89 q 226 -180 303 -131 q 113 -229 150 -229 q 74 -216 90 -229 q 58 -183 58 -203 q 69 -164 58 -172 q 99 -153 81 -156 q 363 267 363 -108 q 246 940 363 753 q 222 969 235 960 q 189 989 208 978 q 173 998 179 993 q 167 1010 167 1003 q 197 1042 167 1042 q 315 926 263 1042 q 398 631 368 811 q 428 263 428 450 z "},"—":{"ha":1389,"x_min":68,"x_max":1311,"o":"m 1311 360 q 1291 326 1311 336 q 1218 313 1271 315 q 886 299 1118 307 l 589 286 q 361 274 519 282 q 114 264 203 267 q 82 271 96 264 q 68 294 68 278 q 81 318 68 313 q 122 324 93 324 q 351 334 258 331 q 485 339 444 338 l 586 343 q 775 351 643 346 q 997 362 822 354 q 1229 378 1172 369 q 1253 390 1240 379 q 1275 401 1267 401 q 1301 390 1290 401 q 1311 360 1311 378 z "},"–":{"ha":694,"x_min":26,"x_max":672,"o":"m 672 360 q 653 327 672 336 q 579 313 633 318 q 481 303 526 307 q 419 299 435 300 l 388 294 l 321 283 q 190 265 286 278 q 72 253 93 253 q 40 260 54 253 q 26 283 26 267 q 39 307 26 301 q 81 313 51 313 q 278 336 157 322 l 407 353 l 526 368 q 590 378 529 368 q 609 396 601 379 q 625 413 617 413 q 656 395 640 413 q 672 360 672 378 z "},"-":{"ha":472,"x_min":47,"x_max":413,"o":"m 413 360 q 393 327 413 336 q 319 313 374 318 l 226 301 q 164 295 193 297 q 93 293 135 293 q 61 300 75 293 q 47 324 47 307 q 60 347 47 342 q 101 353 72 353 q 176 353 154 353 q 214 358 197 354 q 246 365 219 360 q 331 378 272 369 q 349 396 342 379 q 365 413 357 413 q 397 395 381 413 q 413 360 413 378 z "},"­":{"ha":472,"x_min":47,"x_max":413,"o":"m 413 360 q 393 327 413 336 q 319 313 374 318 l 226 301 q 164 295 193 297 q 93 293 135 293 q 61 300 75 293 q 47 324 47 307 q 60 347 47 342 q 101 353 72 353 q 176 353 154 353 q 214 358 197 354 q 246 365 219 360 q 331 378 272 369 q 349 396 342 379 q 365 413 357 413 q 397 395 381 413 q 413 360 413 378 z "},"«":{"ha":718,"x_min":97,"x_max":624,"o":"m 111 278 q 97 299 97 286 q 113 319 97 304 q 135 339 129 335 q 301 531 243 438 q 319 555 313 549 q 333 561 325 561 q 358 551 344 561 q 371 526 371 542 q 285 397 371 483 l 186 299 q 334 174 292 213 q 376 111 376 135 q 368 92 376 99 q 351 85 360 85 q 327 100 346 85 q 293 128 308 115 q 271 147 278 142 q 142 257 196 214 l 111 278 m 358 278 q 344 299 344 286 q 360 319 344 304 q 382 339 376 335 q 549 531 490 438 q 566 555 560 549 q 581 561 572 561 q 605 551 592 561 q 618 526 618 542 q 532 397 618 483 l 433 299 q 581 174 539 213 q 624 111 624 135 q 615 92 624 99 q 599 85 607 85 q 574 100 593 85 q 540 128 556 115 q 518 147 525 142 q 389 257 443 214 l 358 278 z "},"»":{"ha":718,"x_min":99,"x_max":625,"o":"m 364 369 q 378 349 378 361 q 362 328 378 343 q 340 308 346 313 q 174 117 232 210 q 156 92 163 99 q 142 86 150 86 q 117 96 131 86 q 104 121 104 106 q 190 250 104 164 l 289 349 q 141 474 183 435 q 99 536 99 513 q 107 556 99 549 q 124 563 115 563 q 148 547 129 563 q 182 519 167 532 q 204 500 197 506 q 333 390 279 433 l 364 369 m 611 369 q 625 349 625 361 q 609 328 625 343 q 588 308 593 313 q 421 117 479 210 q 403 92 410 99 q 389 86 397 86 q 365 96 378 86 q 351 121 351 106 q 438 250 351 164 l 536 349 q 388 474 431 435 q 346 536 346 513 q 354 556 346 549 q 371 563 363 563 q 395 547 376 563 q 429 519 414 532 q 451 500 444 506 q 581 390 526 433 l 611 369 z "},"‹":{"ha":471,"x_min":97,"x_max":376,"o":"m 111 278 q 97 299 97 286 q 113 319 97 304 q 135 339 129 335 q 301 531 243 438 q 319 555 313 549 q 333 561 325 561 q 358 551 344 561 q 371 526 371 542 q 285 397 371 483 l 186 299 q 334 174 292 213 q 376 111 376 135 q 368 92 376 99 q 351 85 360 85 q 327 100 346 85 q 293 128 308 115 q 271 147 278 142 q 142 257 196 214 l 111 278 z "},"›":{"ha":471,"x_min":96,"x_max":375,"o":"m 361 367 q 375 346 375 358 q 359 325 375 340 q 338 306 343 310 q 171 114 229 207 q 153 90 160 96 q 139 83 147 83 q 115 93 128 83 q 101 118 101 103 q 188 247 101 161 l 286 346 q 138 471 181 432 q 96 533 96 510 q 104 553 96 546 q 121 560 113 560 q 145 544 126 560 q 179 516 164 529 q 201 497 194 503 q 331 388 276 431 l 361 367 z "},"„":{"ha":543,"x_min":61,"x_max":478,"o":"m 256 103 q 223 13 256 82 q 151 -115 190 -57 q 93 -174 113 -174 q 70 -166 79 -174 q 61 -146 61 -158 q 77 -106 61 -137 q 97 -68 93 -75 l 136 7 l 161 71 q 186 133 176 113 q 206 153 196 153 q 238 135 221 153 q 256 103 256 118 m 478 103 q 445 13 478 82 q 374 -115 413 -57 q 315 -174 335 -174 q 292 -166 301 -174 q 283 -146 283 -158 q 299 -106 283 -137 q 319 -68 315 -75 l 358 7 l 383 71 q 408 133 399 113 q 428 153 418 153 q 460 135 443 153 q 478 103 478 118 z "},"“":{"ha":543,"x_min":107,"x_max":524,"o":"m 329 711 q 362 801 329 732 q 433 929 394 871 q 492 988 472 988 q 515 980 506 988 q 524 960 524 972 q 508 920 524 951 q 488 882 492 889 l 449 807 l 424 743 q 399 681 408 701 q 379 661 389 661 q 347 678 364 661 q 329 711 329 696 m 107 669 q 140 760 107 690 q 211 888 172 829 q 269 946 250 946 q 292 938 283 946 q 301 918 301 931 q 285 878 301 910 q 265 840 269 847 l 226 765 l 201 701 q 176 640 186 660 q 157 619 167 619 q 124 637 142 619 q 107 669 107 654 z "},"”":{"ha":543,"x_min":61,"x_max":478,"o":"m 478 936 q 445 846 478 915 q 374 718 413 776 q 315 660 335 660 q 292 667 301 660 q 283 688 283 675 q 299 727 283 696 q 319 765 315 758 l 358 840 l 383 904 q 408 966 399 946 q 428 986 418 986 q 460 969 443 986 q 478 936 478 951 m 256 894 q 223 804 256 874 q 151 676 190 735 q 93 618 113 618 q 70 626 79 618 q 61 646 61 633 q 77 685 61 654 q 97 724 93 717 l 136 799 l 161 863 q 186 924 176 904 q 206 944 196 944 q 238 927 221 944 q 256 894 256 910 z "},"‘":{"ha":321,"x_min":107,"x_max":301,"o":"m 107 669 q 140 760 107 690 q 211 888 172 829 q 269 946 250 946 q 292 938 283 946 q 301 918 301 931 q 285 878 301 910 q 265 840 269 847 l 226 765 l 201 701 q 176 640 186 660 q 157 619 167 619 q 124 637 142 619 q 107 669 107 654 z "},"’":{"ha":321,"x_min":61,"x_max":256,"o":"m 256 894 q 223 804 256 874 q 151 676 190 735 q 93 618 113 618 q 70 626 79 618 q 61 646 61 633 q 77 685 61 654 q 97 724 93 717 l 136 799 l 161 863 q 186 924 176 904 q 206 944 196 944 q 238 927 221 944 q 256 894 256 910 z "},"‚":{"ha":294,"x_min":61,"x_max":256,"o":"m 256 103 q 223 13 256 82 q 151 -115 190 -57 q 93 -174 113 -174 q 70 -166 79 -174 q 61 -146 61 -158 q 77 -106 61 -137 q 97 -68 93 -75 l 136 7 l 161 71 q 186 133 176 113 q 206 153 196 153 q 238 135 221 153 q 256 103 256 118 z "}," ":{"ha":399,"x_min":0,"x_max":0,"o":""},"":{"ha":0,"x_min":0,"x_max":0,"o":""},"€":{"ha":761,"x_min":8,"x_max":722,"o":"m 299 232 q 456 247 356 235 q 539 254 518 254 q 567 248 557 254 q 576 232 576 242 q 557 205 576 211 q 486 193 538 199 q 308 179 429 186 l 211 172 q 274 22 217 82 q 422 -39 331 -39 q 553 -17 497 -39 q 660 63 608 4 l 681 90 q 695 112 688 103 q 708 121 703 121 q 719 117 717 121 q 722 101 722 113 q 715 74 722 92 q 697 43 707 57 q 634 -33 663 -4 q 556 -82 606 -61 q 429 -103 506 -103 q 228 -34 307 -103 q 146 169 149 35 q 64 168 118 168 q 26 174 43 168 q 8 196 8 181 q 21 219 8 214 q 63 225 33 225 q 147 226 115 225 q 164 336 151 281 l 61 333 q 29 340 43 333 q 15 364 15 347 q 28 388 15 382 q 69 393 40 393 l 107 393 q 135 392 118 393 q 178 393 151 392 q 257 607 208 513 q 363 757 303 697 q 485 817 424 817 q 577 774 544 817 q 610 667 610 731 q 601 619 610 643 q 581 578 592 594 q 564 561 569 561 q 553 574 553 561 q 558 592 553 578 q 563 617 563 607 q 554 682 563 651 q 526 726 547 708 q 481 743 506 743 q 293 550 381 743 q 239 396 260 475 l 251 397 q 361 406 300 400 q 472 418 422 413 q 526 424 514 424 q 554 400 554 424 q 535 369 554 376 q 461 356 517 361 q 308 344 385 349 l 226 340 q 213 228 214 275 l 299 232 z "},"¢":{"ha":515,"x_min":58,"x_max":493,"o":"m 325 147 q 347 165 346 164 q 411 233 389 204 q 458 299 433 263 q 482 325 475 325 q 492 323 490 325 q 493 314 493 321 q 472 263 493 304 q 424 189 450 222 q 326 83 378 131 l 331 -15 l 335 -75 q 338 -110 338 -100 q 333 -143 338 -132 q 318 -154 329 -154 q 287 -93 303 -154 q 268 38 271 -32 q 179 13 222 13 q 92 58 126 13 q 58 164 58 104 q 121 462 58 308 q 269 708 183 615 q 274 790 271 721 q 288 908 278 860 q 311 957 297 957 q 331 946 326 957 q 336 899 336 935 l 333 824 l 332 760 q 380 782 350 771 q 426 793 410 793 q 444 778 438 793 q 450 742 450 763 q 444 698 450 725 q 432 671 439 671 q 413 687 424 671 q 397 703 403 703 q 365 696 383 703 q 331 678 346 689 q 326 577 329 656 q 324 421 324 499 l 325 147 m 264 392 q 265 526 264 463 q 268 611 267 589 q 167 401 207 528 q 128 172 128 274 q 189 81 128 81 q 265 101 224 81 l 264 392 z "},"¤":{"ha":761,"x_min":8,"x_max":722,"o":"m 299 232 q 456 247 356 235 q 539 254 518 254 q 567 248 557 254 q 576 232 576 242 q 557 205 576 211 q 486 193 538 199 q 308 179 429 186 l 211 172 q 274 22 217 82 q 422 -39 331 -39 q 553 -17 497 -39 q 660 63 608 4 l 681 90 q 695 112 688 103 q 708 121 703 121 q 719 117 717 121 q 722 101 722 113 q 715 74 722 92 q 697 43 707 57 q 634 -33 663 -4 q 556 -82 606 -61 q 429 -103 506 -103 q 228 -34 307 -103 q 146 169 149 35 q 64 168 118 168 q 26 174 43 168 q 8 196 8 181 q 21 219 8 214 q 63 225 33 225 q 147 226 115 225 q 164 336 151 281 l 61 333 q 29 340 43 333 q 15 364 15 347 q 28 388 15 382 q 69 393 40 393 l 107 393 q 135 392 118 393 q 178 393 151 392 q 257 607 208 513 q 363 757 303 697 q 485 817 424 817 q 577 774 544 817 q 610 667 610 731 q 601 619 610 643 q 581 578 592 594 q 564 561 569 561 q 553 574 553 561 q 558 592 553 578 q 563 617 563 607 q 554 682 563 651 q 526 726 547 708 q 481 743 506 743 q 293 550 381 743 q 239 396 260 475 l 251 397 q 361 406 300 400 q 472 418 422 413 q 526 424 514 424 q 554 400 554 424 q 535 369 554 376 q 461 356 517 361 q 308 344 385 349 l 226 340 q 213 228 214 275 l 299 232 z "},"$":{"ha":764,"x_min":46,"x_max":710,"o":"m 710 243 q 665 168 710 211 q 549 85 621 125 q 401 25 476 46 l 408 -89 q 399 -128 408 -114 q 375 -143 389 -143 q 356 -96 365 -143 q 347 15 347 -49 q 286 10 319 10 q 183 24 221 10 q 146 65 146 39 q 176 113 146 78 q 217 149 206 149 q 233 142 233 149 q 219 130 233 138 q 204 117 204 122 q 216 104 204 113 q 251 89 228 96 q 307 82 274 82 q 344 85 319 82 l 344 126 q 346 356 344 268 q 126 440 206 400 q 46 526 46 479 q 139 672 46 590 q 354 826 232 753 l 356 947 q 367 1062 357 1013 q 408 1111 378 1111 q 428 1093 428 1111 q 426 1078 428 1086 q 424 1063 425 1069 q 415 1000 415 1026 l 413 925 l 410 858 q 499 897 443 876 q 583 918 556 918 q 625 908 606 918 q 644 882 644 897 q 648 858 646 872 q 651 832 650 843 q 647 817 651 824 q 636 811 642 811 q 626 822 631 811 q 612 839 622 832 q 571 846 601 846 q 503 830 547 846 q 407 786 458 814 q 394 407 397 546 q 628 322 547 358 q 710 243 710 285 m 353 756 q 188 638 256 699 q 121 535 121 578 q 179 483 121 510 q 347 422 238 457 q 353 756 350 663 m 635 233 q 576 281 635 257 q 393 342 517 304 q 394 235 392 307 q 397 143 397 174 l 399 92 q 512 131 457 106 q 601 184 567 156 q 635 233 635 213 z "},"ƒ":{"ha":583,"x_min":7,"x_max":685,"o":"m 685 894 q 675 838 685 863 q 646 813 665 813 q 628 846 631 813 q 594 926 619 893 q 533 958 569 958 q 393 805 450 958 q 296 422 336 651 q 456 450 360 429 q 510 460 467 451 q 579 469 554 469 q 599 463 592 469 q 606 447 606 457 q 594 397 606 419 q 557 375 583 375 q 527 382 542 375 q 479 389 513 389 q 401 376 467 389 q 351 368 381 374 q 289 358 322 363 q 199 -311 260 204 q 189 -349 194 -339 q 163 -358 183 -358 q 141 -350 147 -358 q 135 -322 135 -342 l 140 -262 q 179 65 154 -137 q 218 346 204 267 q 118 331 178 339 q 36 322 58 322 q 15 330 24 322 q 7 350 7 338 q 15 378 7 367 q 38 392 24 390 q 137 398 76 393 q 225 408 197 403 q 350 858 278 699 q 540 1018 422 1018 q 615 999 582 1018 q 667 950 649 979 q 685 894 685 921 z "},"£":{"ha":783,"x_min":93,"x_max":771,"o":"m 771 43 q 752 3 771 18 q 707 -12 733 -12 q 663 -4 693 -12 q 563 11 617 11 q 353 -5 449 11 q 168 -43 257 -21 l 140 -50 q 93 0 93 -50 q 97 12 93 7 q 111 22 101 17 q 129 35 121 28 q 186 225 161 100 q 211 439 211 350 q 177 431 204 438 q 133 425 150 425 q 108 435 119 425 q 97 458 97 444 q 122 494 97 493 l 178 499 q 211 501 200 501 q 274 871 211 724 q 457 1018 336 1018 q 540 996 501 1018 q 601 942 578 974 q 624 883 624 910 q 616 840 624 867 q 599 813 608 813 q 584 822 589 813 q 575 846 579 831 q 528 926 560 893 q 461 958 497 958 q 354 885 394 958 q 297 710 314 813 q 279 515 279 608 q 372 525 347 522 q 469 534 399 528 q 572 540 539 540 q 600 515 600 540 q 592 470 600 494 q 567 446 583 446 q 539 451 553 446 q 486 460 519 460 q 281 451 349 460 q 271 331 281 414 q 244 165 261 247 q 207 44 228 83 q 368 71 260 57 q 560 85 476 85 q 690 79 636 85 l 721 76 q 759 66 747 74 q 771 43 771 58 z "},"¥":{"ha":764,"x_min":19,"x_max":732,"o":"m 732 126 q 713 99 732 106 q 642 88 693 93 q 453 69 581 81 q 451 7 451 40 q 462 -25 451 -10 q 472 -44 472 -40 q 454 -74 472 -53 q 414 -114 436 -96 q 378 -132 392 -132 q 350 -108 350 -132 q 371 64 350 -82 q 224 60 296 60 q 183 67 203 60 q 164 90 164 75 q 176 114 164 108 q 218 119 189 119 q 379 122 288 119 q 397 233 392 203 q 161 228 269 228 q 129 235 143 228 q 115 258 115 242 q 128 282 115 276 q 169 288 140 288 q 407 292 313 288 q 443 483 425 410 q 425 458 436 475 q 390 417 407 431 q 338 404 372 404 q 205 519 285 404 q 78 732 125 633 q 39 801 58 772 q 19 835 19 831 q 30 845 19 842 q 53 849 40 849 q 135 761 99 849 q 196 641 157 710 q 282 520 235 572 q 369 468 329 468 q 403 487 389 468 q 428 524 418 506 q 440 547 438 543 q 477 631 456 576 q 510 719 499 685 q 558 874 554 853 q 571 915 565 903 q 589 926 576 926 q 618 916 604 926 q 632 892 632 906 q 624 842 632 868 q 596 764 615 815 q 557 660 581 728 q 474 296 511 519 q 628 313 549 303 q 647 331 639 314 q 663 347 654 347 q 694 330 678 347 q 710 294 710 313 q 690 262 710 271 q 617 247 671 253 q 464 236 540 240 l 460 206 q 454 126 457 189 l 571 138 q 650 144 629 144 q 732 126 732 144 z "},"+":{"ha":656,"x_min":32,"x_max":619,"o":"m 619 406 q 604 373 619 383 q 554 356 589 363 q 372 329 475 340 q 371 267 371 307 q 375 155 371 193 q 388 74 379 117 q 393 42 393 49 q 382 26 393 32 q 356 21 371 21 q 315 75 324 21 q 307 182 307 129 l 307 321 q 78 304 147 304 q 47 313 61 304 q 32 335 32 322 q 44 358 32 353 q 86 364 57 364 q 308 382 164 364 l 308 461 q 312 586 308 515 q 318 675 315 657 q 343 694 321 694 q 376 672 368 694 q 385 625 385 650 q 379 489 385 597 q 374 390 376 457 q 538 424 472 407 q 556 442 549 426 q 572 458 564 458 q 603 441 588 458 q 619 406 619 424 z "},"×":{"ha":656,"x_min":96,"x_max":586,"o":"m 581 225 q 572 199 581 211 q 552 181 563 188 q 539 172 542 174 q 467 208 518 172 q 338 306 417 243 q 171 114 229 207 q 153 90 160 96 q 139 83 147 83 q 115 93 128 83 q 101 118 101 103 q 188 247 101 161 l 286 346 q 138 471 181 432 q 96 533 96 510 q 104 553 96 546 q 121 560 113 560 q 145 544 126 560 q 179 516 164 529 q 201 497 194 503 q 331 388 276 431 q 477 528 407 464 q 558 593 547 593 q 578 583 569 593 q 586 561 586 574 q 557 506 586 538 q 461 418 528 475 l 382 347 q 419 321 381 349 q 490 271 461 289 q 533 253 518 253 q 548 256 539 253 q 563 258 557 258 q 576 249 571 258 q 581 225 581 239 z "},"÷":{"ha":656,"x_min":32,"x_max":619,"o":"m 378 528 q 332 507 378 507 q 288 527 306 507 q 263 572 271 547 q 254 607 254 596 q 269 636 254 622 q 299 650 283 650 q 322 645 313 650 q 340 632 331 640 q 353 619 349 624 q 370 585 363 611 q 378 528 378 560 m 374 390 q 538 424 454 401 q 556 442 549 426 q 572 458 564 458 q 603 441 588 458 q 619 406 619 424 q 604 373 619 383 q 554 356 589 363 q 443 338 518 349 q 307 321 368 328 q 78 304 147 304 q 47 313 61 304 q 32 335 32 322 q 44 358 32 353 q 86 364 57 364 q 215 372 124 364 q 374 390 306 381 m 419 69 q 374 49 419 49 q 330 69 347 49 q 304 113 313 89 q 296 149 296 138 q 310 178 296 164 q 340 192 325 192 q 363 187 354 192 q 381 174 372 182 q 394 161 390 165 q 412 127 404 153 q 419 69 419 101 z "},"=":{"ha":686,"x_min":47,"x_max":664,"o":"m 642 507 q 622 474 642 483 q 549 460 603 465 q 320 445 460 450 q 93 440 181 440 q 61 447 75 440 q 47 471 47 454 q 60 494 47 489 q 101 500 72 500 q 332 504 224 500 q 560 525 440 508 q 578 543 571 526 q 594 560 586 560 q 626 542 610 560 q 642 507 642 525 m 664 268 q 644 241 664 247 q 574 229 625 235 q 156 201 333 201 q 115 209 135 201 q 96 232 96 217 q 108 256 96 250 q 150 261 121 261 q 510 281 351 261 q 582 286 571 286 q 664 268 664 286 z "},">":{"ha":672,"x_min":63,"x_max":617,"o":"m 617 243 q 582 203 617 226 q 486 163 547 181 q 357 115 457 156 q 214 61 272 81 q 118 42 156 42 q 74 50 85 42 q 63 72 63 58 q 119 110 63 100 q 385 199 211 126 q 433 218 421 215 q 490 236 458 226 q 535 250 522 246 l 317 403 q 224 465 293 418 q 125 535 154 513 q 99 559 106 550 q 92 583 92 568 q 110 604 92 596 q 147 613 129 613 q 224 558 151 613 q 342 469 297 503 q 513 340 410 417 q 583 291 550 318 q 617 243 617 264 z "},"<":{"ha":672,"x_min":47,"x_max":651,"o":"m 651 565 q 635 527 651 539 q 593 515 618 515 q 501 485 561 515 q 390 421 442 454 q 324 376 339 388 l 129 250 q 174 236 142 246 q 231 218 206 226 q 279 199 243 215 q 544 110 453 126 q 601 72 601 100 q 590 50 601 58 q 546 42 579 42 q 450 61 508 42 q 307 115 392 81 q 178 163 207 156 q 82 203 117 181 q 47 243 47 226 q 146 332 47 275 q 408 508 272 425 q 606 592 544 592 q 641 585 631 592 q 651 565 651 579 z "},"±":{"ha":656,"x_min":32,"x_max":619,"o":"m 578 399 q 563 366 578 376 q 513 349 547 356 q 372 329 460 338 q 371 267 371 307 q 380 110 371 154 q 390 60 389 67 q 538 90 461 71 q 556 109 549 93 q 572 125 564 125 q 603 108 588 125 q 619 72 619 90 q 604 40 619 50 q 554 22 589 29 q 443 5 518 15 q 307 -12 368 -6 q 78 -29 147 -29 q 47 -20 61 -29 q 32 1 32 -11 q 44 25 32 19 q 86 31 57 31 q 189 36 118 31 q 324 50 260 42 q 307 182 307 89 l 307 321 q 78 304 147 304 q 47 313 61 304 q 32 335 32 322 q 44 358 32 353 q 86 364 57 364 q 308 382 164 364 l 308 461 q 312 586 308 515 q 318 675 315 657 q 343 694 321 694 q 376 672 368 694 q 385 625 385 650 q 379 489 385 597 q 374 390 376 457 q 496 417 432 400 q 515 435 507 419 q 531 451 522 451 q 562 434 546 451 q 578 399 578 417 z "},"~":{"ha":797,"x_min":28,"x_max":775,"o":"m 775 518 q 750 406 775 463 q 683 311 725 349 q 590 274 640 274 q 492 309 533 274 q 401 408 450 344 q 342 477 365 456 q 294 499 319 499 q 174 449 228 499 q 86 324 121 399 q 79 301 83 318 q 70 274 75 283 q 56 265 65 265 q 28 313 28 265 q 61 411 28 361 q 167 519 101 474 q 290 564 233 564 q 365 535 332 564 q 442 450 397 507 q 520 363 486 393 q 597 333 554 333 q 667 376 643 333 q 708 483 692 419 q 751 540 724 540 q 775 518 775 540 z "},"¬":{"ha":656,"x_min":32,"x_max":610,"o":"m 521 208 q 522 292 521 247 q 524 354 524 336 q 413 347 486 354 q 269 333 340 340 q 169 324 235 331 q 78 318 104 318 q 47 327 61 318 q 32 349 32 336 q 44 372 32 367 q 86 378 57 378 q 288 390 151 378 q 510 424 424 401 q 560 432 542 432 q 583 426 574 432 q 592 406 592 421 q 588 386 592 394 l 588 326 q 592 215 588 253 q 604 133 596 176 q 610 101 610 108 q 599 86 610 92 q 572 81 588 81 q 531 124 540 81 q 521 208 521 168 z "},"µ":{"ha":726,"x_min":-32,"x_max":683,"o":"m 110 265 q 182 607 122 407 q 228 658 196 658 q 272 644 272 658 q 267 626 272 640 q 257 601 261 611 q 192 421 219 518 q 165 192 165 324 q 180 112 165 144 q 217 79 194 79 q 309 157 253 79 q 421 344 365 235 q 510 539 476 453 q 535 625 521 567 q 543 659 539 649 q 553 669 547 669 q 586 657 568 669 q 604 631 604 644 q 609 402 604 564 q 621 178 614 240 q 641 93 626 124 q 669 45 656 63 q 683 24 683 28 q 671 -11 683 1 q 636 -24 658 -24 q 585 35 608 -24 q 557 156 563 93 q 549 397 551 215 q 547 456 547 426 q 546 507 547 486 q 372 159 471 326 q 210 -8 274 -8 q 124 68 151 -8 l 94 -82 q 60 -212 79 -162 q 15 -261 42 -261 q -19 -249 -7 -261 q -32 -214 -32 -236 q -18 -185 -32 -208 q 17 -118 3 -149 q 39 -49 31 -87 l 60 36 q 110 265 94 163 z "},"%":{"ha":1369,"x_min":69,"x_max":1307,"o":"m 856 800 q 789 507 856 722 q 731 347 771 449 q 694 248 724 329 q 646 97 664 167 q 588 69 638 69 q 565 114 565 69 q 606 214 565 121 q 732 527 682 388 q 782 769 782 667 q 776 799 782 790 q 761 807 771 807 q 634 783 708 807 q 489 717 560 758 q 399 583 454 651 q 278 469 344 515 q 147 424 211 424 q 93 453 117 424 q 69 536 69 482 q 109 671 69 593 q 199 807 149 749 q 275 865 250 865 q 313 855 300 865 q 325 831 325 844 q 303 808 325 828 q 190 685 238 749 q 142 546 142 622 q 153 512 142 524 q 182 500 164 500 q 259 535 208 500 q 349 618 310 571 q 388 700 388 665 q 374 726 388 708 q 361 756 361 744 q 380 791 361 776 q 428 806 399 806 q 483 790 450 806 q 647 853 550 825 q 778 882 743 882 q 840 863 825 882 q 856 800 856 843 m 1307 304 q 1281 152 1307 228 q 1205 26 1256 76 q 1081 -24 1154 -24 q 935 37 985 -24 q 886 182 886 97 q 903 286 886 235 q 942 370 919 338 q 981 403 965 403 q 1018 383 1006 403 q 1031 342 1031 364 q 1024 322 1031 335 q 1007 294 1017 308 q 970 230 983 258 q 957 168 957 201 q 985 81 957 118 q 1072 44 1014 44 q 1167 85 1128 44 q 1227 188 1207 126 q 1247 306 1247 249 q 1222 406 1247 365 q 1164 447 1196 447 q 1089 426 1135 447 q 1035 413 1057 413 q 1014 422 1022 413 q 1006 442 1006 431 q 1047 492 1006 471 q 1139 514 1089 514 q 1265 456 1224 514 q 1307 304 1307 397 z "},"‰":{"ha":1858,"x_min":69,"x_max":1790,"o":"m 856 800 q 789 507 856 722 q 731 347 771 449 q 694 248 724 329 q 646 97 664 167 q 588 69 638 69 q 565 114 565 69 q 606 214 565 121 q 732 527 682 388 q 782 769 782 667 q 776 799 782 790 q 761 807 771 807 q 634 783 708 807 q 489 717 560 758 q 399 583 454 651 q 278 469 344 515 q 147 424 211 424 q 93 453 117 424 q 69 536 69 482 q 109 671 69 593 q 199 807 149 749 q 275 865 250 865 q 313 855 300 865 q 325 831 325 844 q 303 808 325 828 q 190 685 238 749 q 142 546 142 622 q 153 512 142 524 q 182 500 164 500 q 259 535 208 500 q 349 618 310 571 q 388 700 388 665 q 374 726 388 708 q 361 756 361 744 q 380 791 361 776 q 428 806 399 806 q 483 790 450 806 q 647 853 550 825 q 778 882 743 882 q 840 863 825 882 q 856 800 856 843 m 1307 304 q 1281 152 1307 228 q 1205 26 1256 76 q 1081 -24 1154 -24 q 935 37 985 -24 q 886 182 886 97 q 903 286 886 235 q 942 370 919 338 q 981 403 965 403 q 1018 383 1006 403 q 1031 342 1031 364 q 1024 322 1031 335 q 1007 294 1017 308 q 970 230 983 258 q 957 168 957 201 q 985 81 957 118 q 1072 44 1014 44 q 1167 85 1128 44 q 1227 188 1207 126 q 1247 306 1247 249 q 1222 406 1247 365 q 1164 447 1196 447 q 1089 426 1135 447 q 1035 413 1057 413 q 1014 422 1022 413 q 1006 442 1006 431 q 1047 492 1006 471 q 1139 514 1089 514 q 1265 456 1224 514 q 1307 304 1307 397 m 1790 292 q 1761 142 1790 218 q 1677 15 1732 65 q 1549 -36 1622 -36 q 1416 22 1463 -36 q 1369 164 1369 81 q 1409 350 1369 272 q 1500 457 1449 428 q 1551 489 1517 476 q 1622 501 1586 501 q 1749 443 1707 501 q 1790 292 1790 385 m 1544 404 q 1510 367 1539 397 q 1460 283 1481 338 q 1440 156 1440 229 q 1472 70 1440 108 q 1556 32 1504 32 q 1651 73 1611 32 q 1710 175 1690 114 q 1731 293 1731 236 q 1705 394 1731 353 q 1647 435 1679 435 q 1613 431 1624 435 q 1595 422 1603 428 q 1583 413 1588 415 q 1564 407 1578 408 q 1544 404 1550 406 z "},"@":{"ha":1389,"x_min":90,"x_max":1333,"o":"m 1333 178 q 1268 6 1333 76 q 1100 -101 1203 -65 q 885 -136 997 -136 q 716 -92 797 -136 q 580 39 635 -47 q 515 244 525 125 q 364 14 451 114 q 193 -86 276 -86 q 118 -51 146 -86 q 90 36 90 -15 q 203 329 90 192 q 460 552 317 467 q 671 638 604 638 q 688 632 683 638 q 692 615 692 626 q 678 594 692 607 q 648 570 664 581 q 628 557 632 560 q 636 545 631 554 q 642 528 642 536 q 613 442 642 503 q 582 292 582 375 q 626 101 582 182 q 743 -22 671 21 q 896 -65 815 -65 q 1072 -37 986 -65 q 1214 46 1158 -10 q 1269 182 1269 101 q 1102 556 1269 407 q 700 776 935 706 q 256 856 465 847 q 197 865 219 857 q 174 897 174 874 q 188 926 174 918 q 228 933 201 933 q 708 853 450 933 q 1150 603 967 774 q 1333 178 1333 432 m 546 521 q 401 428 490 500 q 242 257 311 356 q 174 57 174 158 q 183 15 174 29 q 208 0 193 0 q 355 94 276 0 q 490 315 433 189 q 536 453 526 393 q 546 521 546 508 z "},"&":{"ha":889,"x_min":46,"x_max":954,"o":"m 954 328 q 937 221 954 286 q 873 102 919 156 q 747 49 826 49 q 564 94 656 49 q 279 -24 449 -24 q 109 32 172 -24 q 46 183 46 88 q 94 316 46 260 q 201 405 142 372 q 332 468 260 438 q 374 637 336 550 q 469 781 411 724 q 589 838 526 838 q 653 815 629 838 q 676 753 676 793 q 592 589 676 674 q 397 443 508 504 q 444 288 399 360 q 560 172 489 217 q 608 242 586 201 q 644 320 628 279 q 665 379 661 361 q 669 401 667 388 q 676 421 672 414 q 685 428 679 428 q 700 415 693 428 q 707 390 707 401 q 686 298 707 360 q 640 192 665 236 q 610 142 622 160 q 751 111 685 111 q 865 170 826 111 q 922 311 903 229 q 930 334 926 325 q 938 343 933 343 q 949 338 943 343 q 954 328 954 333 m 624 750 q 615 776 624 765 q 589 786 607 786 q 498 734 543 786 q 424 612 453 682 q 394 497 394 542 q 548 617 472 542 q 624 750 624 693 m 510 126 q 390 250 439 176 q 333 408 342 324 q 276 385 329 407 q 176 309 224 364 q 129 186 129 254 q 169 85 129 122 q 290 47 208 47 q 412 69 360 47 q 510 126 464 90 z "},"¶":{"ha":958,"x_min":68,"x_max":924,"o":"m 924 369 q 914 356 924 363 q 883 347 904 350 l 844 343 l 846 244 q 850 -39 850 51 q 844 -168 850 -128 q 828 -195 842 -183 q 799 -207 815 -207 q 775 -190 775 -207 q 781 -142 775 -183 q 788 -62 788 -100 l 785 338 q 631 328 696 329 q 635 -92 635 39 q 633 -152 635 -131 q 629 -190 632 -174 q 610 -234 625 -218 q 578 -250 596 -250 q 564 -242 569 -250 q 558 -225 558 -235 q 564 -190 558 -215 q 569 -162 565 -183 q 572 -115 572 -140 l 569 325 l 526 325 q 330 348 436 325 q 146 422 224 371 q 68 553 68 472 q 255 860 68 731 q 794 1060 442 990 q 807 1083 799 1075 q 832 1090 815 1090 q 849 1081 843 1090 q 856 1058 856 1072 l 851 1028 q 838 910 838 951 q 843 413 838 788 q 868 419 853 415 q 892 424 883 424 q 913 406 903 424 q 924 369 924 388 m 785 401 q 781 901 781 725 q 782 981 781 960 q 688 965 738 975 q 624 953 639 956 l 631 390 q 785 401 724 394 m 565 849 q 567 938 565 917 q 369 861 468 911 q 202 738 271 811 q 133 574 133 664 q 200 461 133 503 q 357 403 267 419 q 528 386 447 386 q 568 388 554 386 l 565 849 z "},"§":{"ha":618,"x_min":56,"x_max":571,"o":"m 571 228 q 521 115 571 174 q 390 18 471 57 q 224 -21 308 -21 q 143 -10 164 -21 q 122 21 122 1 q 161 67 122 33 q 213 100 200 100 q 229 93 229 100 q 215 81 229 89 q 200 68 200 74 q 215 57 200 63 q 244 51 231 51 q 372 77 310 51 q 472 142 433 103 q 511 222 511 182 q 463 269 511 251 q 317 310 415 288 q 181 344 232 329 q 92 386 129 360 q 56 450 56 413 q 102 548 56 499 q 211 633 149 597 q 315 679 274 669 q 122 733 189 706 q 56 810 56 760 q 93 868 56 826 q 188 957 131 910 q 303 1039 246 1004 q 353 1065 335 1057 q 401 1072 372 1072 q 449 1044 449 1072 q 440 1017 449 1036 q 418 983 432 997 q 389 968 404 968 q 380 978 381 968 q 377 994 379 988 q 367 1000 375 1000 q 289 964 349 1000 q 180 883 229 928 q 131 814 131 839 q 174 773 131 788 q 313 739 218 758 q 447 708 396 722 q 534 669 497 693 q 571 608 571 644 q 501 466 571 536 q 319 363 431 396 q 501 313 431 342 q 571 228 571 285 m 400 661 q 282 617 346 650 q 174 540 218 583 q 131 457 131 496 q 156 414 131 433 q 219 388 181 394 q 357 426 289 390 q 468 511 425 463 q 511 599 511 560 q 482 634 511 619 q 400 661 453 649 z "},"©":{"ha":1303,"x_min":83,"x_max":1240,"o":"m 1240 664 q 1181 417 1240 539 q 1013 193 1121 294 q 740 2 874 64 q 457 -60 607 -60 q 278 -18 365 -60 q 138 91 192 24 q 83 231 83 158 q 135 514 83 365 q 288 808 186 663 q 538 1076 390 954 q 569 1096 554 1090 q 601 1101 583 1101 q 647 1039 647 1101 q 654 1042 649 1040 q 668 1044 660 1043 q 683 1046 674 1044 q 706 1047 692 1047 q 726 1046 718 1047 q 1099 933 957 1025 q 1240 664 1240 840 m 1189 658 q 1041 905 1189 829 q 685 988 893 981 q 649 998 658 989 q 639 1035 639 1007 q 547 1008 578 1035 q 333 773 422 907 q 199 505 244 639 q 153 263 153 371 q 195 133 153 193 q 308 39 238 74 q 461 4 379 4 q 651 31 568 4 q 801 101 733 57 q 961 225 868 146 q 1124 432 1058 308 q 1189 658 1189 556 m 874 490 q 831 415 874 481 q 751 303 789 349 q 624 172 679 217 q 507 126 569 126 q 420 172 454 126 q 386 278 386 218 q 438 514 386 367 q 567 772 490 661 q 715 882 643 882 q 768 860 746 882 q 786 837 781 847 q 792 810 792 826 q 782 746 792 746 q 765 753 769 746 q 758 778 761 761 q 751 808 754 799 q 739 817 747 817 q 608 715 674 817 q 499 483 543 614 q 456 286 456 351 q 517 194 456 194 q 598 217 561 194 q 675 279 635 239 q 752 364 718 322 q 828 463 786 406 q 844 484 831 467 q 863 501 857 501 q 872 499 871 501 q 874 490 874 497 z "},"®":{"ha":1303,"x_min":83,"x_max":1240,"o":"m 1240 664 q 1181 417 1240 539 q 1013 193 1121 294 q 740 2 874 64 q 457 -60 607 -60 q 278 -18 365 -60 q 138 91 192 24 q 83 231 83 158 q 135 514 83 365 q 288 808 186 663 q 538 1076 390 954 q 569 1096 554 1090 q 601 1101 583 1101 q 647 1039 647 1101 q 654 1042 649 1040 q 668 1044 660 1043 q 683 1046 674 1044 q 706 1047 692 1047 q 726 1046 718 1047 q 1099 933 957 1025 q 1240 664 1240 840 m 329 767 q 440 800 375 785 q 537 814 478 808 q 647 819 596 819 q 795 797 732 819 q 892 738 858 774 q 925 663 925 701 q 872 525 925 583 q 753 432 819 467 q 586 356 688 397 q 771 308 660 340 q 908 265 867 281 q 974 236 953 250 q 1128 440 1067 321 q 1189 658 1189 560 q 1041 905 1189 829 q 685 988 893 981 q 649 998 658 989 q 639 1035 639 1007 q 547 1008 578 1035 q 329 767 424 908 m 867 651 q 842 706 867 679 q 765 751 817 733 q 640 768 714 768 q 576 767 592 768 q 574 696 574 742 l 581 413 q 643 433 596 415 q 810 538 753 482 q 867 651 867 593 m 897 196 q 760 255 835 231 q 586 303 685 279 l 592 196 q 601 144 593 183 q 604 133 604 136 q 592 111 604 119 q 567 103 579 103 q 543 128 546 103 q 538 185 538 156 l 535 253 l 532 324 l 531 325 l 526 328 q 518 340 521 333 q 513 372 513 353 q 525 393 513 386 l 526 394 l 521 685 l 522 763 q 456 751 456 751 q 326 707 369 731 q 307 696 321 704 q 281 686 293 688 q 185 465 218 576 q 153 263 153 353 q 195 133 153 193 q 308 39 238 74 q 461 4 379 4 q 701 48 601 4 q 915 186 800 92 l 897 196 z "},"™":{"ha":1072,"x_min":-3,"x_max":972,"o":"m 940 644 q 913 656 919 644 q 871 821 901 671 l 863 867 q 846 949 853 928 q 807 821 822 878 q 781 733 788 753 q 765 704 774 713 q 749 694 758 699 q 733 690 740 690 q 719 694 724 690 q 711 707 714 697 q 695 764 706 724 q 674 847 685 804 q 653 915 664 889 q 626 810 636 881 q 608 654 617 740 q 595 635 607 643 q 574 628 583 628 q 550 656 556 628 q 534 745 547 679 q 513 839 521 811 q 482 926 503 872 q 361 917 401 924 q 365 742 365 813 q 361 646 365 667 q 349 628 360 635 q 328 622 338 622 q 313 629 318 622 q 307 644 307 636 q 309 688 307 653 q 311 768 311 722 q 308 908 311 844 q 115 871 213 892 q 40 856 61 856 q 12 868 26 856 q -3 894 -3 881 q 6 911 -3 906 q 29 917 15 917 q 82 919 40 917 q 304 960 107 924 q 310 987 306 976 q 319 997 315 997 q 349 985 336 997 q 354 968 351 982 l 403 974 q 513 985 483 985 q 532 968 525 985 q 539 940 539 940 q 576 775 561 860 l 590 858 q 620 951 601 917 q 672 985 639 985 q 693 942 676 985 q 718 868 710 900 q 743 772 738 788 l 763 835 q 792 932 771 864 q 821 1018 813 1000 q 860 1040 833 1040 q 876 1017 865 1040 q 893 961 886 993 l 904 911 q 958 694 944 706 q 972 669 972 685 q 963 652 972 660 q 940 644 953 644 z "},"°":{"ha":594,"x_min":49,"x_max":553,"o":"m 553 899 q 515 772 553 847 q 408 641 478 697 q 247 585 339 585 q 106 624 163 585 q 49 732 49 663 q 85 890 49 806 q 182 1035 122 974 q 307 1107 242 1097 q 353 1111 317 1111 q 376 1108 364 1111 q 407 1097 388 1104 q 472 1057 438 1086 q 529 986 506 1028 q 553 899 553 944 m 315 1060 q 173 927 228 1017 q 118 743 118 838 q 154 676 118 701 q 258 650 190 650 q 373 692 321 650 q 455 793 425 735 q 485 892 485 851 q 450 981 485 940 q 367 1039 415 1021 q 315 1060 338 1049 z "},"|":{"ha":506,"x_min":211,"x_max":307,"o":"m 307 -236 q 297 -267 307 -256 q 269 -278 286 -278 q 224 -137 238 -278 q 211 93 211 4 q 218 350 211 215 q 224 607 224 511 q 219 746 224 669 l 217 881 q 225 1081 217 1024 q 235 1103 226 1096 q 258 1111 244 1111 q 292 1069 283 1111 q 300 978 300 1026 q 294 682 300 929 q 286 242 286 376 q 303 -161 286 19 q 307 -236 307 -210 z "},"¦":{"ha":506,"x_min":214,"x_max":297,"o":"m 269 533 q 265 517 269 522 q 246 513 260 513 q 221 565 228 513 q 214 732 214 617 q 218 922 214 792 l 221 993 q 226 1096 221 1071 q 237 1107 228 1103 q 258 1111 246 1111 q 289 1090 281 1111 q 297 1043 297 1068 q 292 939 297 1017 q 285 779 285 821 q 272 572 285 657 l 269 533 m 269 -257 q 265 -273 269 -268 q 246 -278 260 -278 q 221 -226 228 -278 q 214 -58 214 -174 q 218 132 214 1 l 221 203 q 226 306 221 281 q 237 317 228 313 q 258 321 246 321 q 289 299 281 321 q 297 253 297 278 q 292 149 297 226 q 285 -11 285 31 q 272 -218 285 -133 l 269 -257 z "},"†":{"ha":717,"x_min":124,"x_max":599,"o":"m 599 682 q 578 647 599 658 q 506 629 558 635 q 388 615 467 625 l 388 444 q 375 46 388 321 q 374 11 375 21 q 374 0 374 1 q 373 -30 374 -7 q 368 -63 372 -53 q 354 -74 364 -74 q 344 -67 349 -74 q 340 -53 340 -61 l 336 65 q 326 371 326 318 q 321 604 326 432 q 269 596 290 600 q 236 590 249 592 q 169 583 196 583 q 138 593 153 583 q 124 619 124 603 q 139 644 124 640 q 199 649 154 649 q 238 652 213 649 q 318 665 264 656 l 315 797 q 331 937 315 869 q 376 1004 347 1004 q 391 996 388 1004 q 394 967 394 988 q 389 901 394 958 q 383 792 383 843 q 385 676 383 721 q 467 690 414 676 l 517 700 q 535 718 528 701 q 551 735 543 735 q 583 717 567 735 q 599 682 599 700 z "},"‡":{"ha":717,"x_min":124,"x_max":610,"o":"m 610 335 q 590 315 610 321 q 511 304 569 310 q 385 289 469 300 q 375 47 381 171 q 374 11 375 21 q 374 0 374 1 q 373 -30 374 -7 q 368 -63 372 -53 q 354 -74 364 -74 q 344 -67 349 -74 q 340 -53 340 -61 l 328 282 q 275 273 294 276 q 244 268 256 269 q 178 261 204 261 q 147 271 161 261 q 132 297 132 281 q 144 321 132 315 q 186 326 157 326 l 229 325 q 326 335 265 325 l 326 371 q 321 604 326 432 q 269 596 290 600 q 236 590 249 592 q 169 583 196 583 q 138 593 153 583 q 124 619 124 603 q 136 643 124 638 q 178 649 149 649 l 204 649 q 318 665 221 649 l 315 797 q 331 937 315 869 q 376 1004 347 1004 q 391 996 388 1004 q 394 967 394 988 q 389 901 394 958 q 383 792 383 843 q 385 676 383 721 q 467 690 414 676 l 517 700 q 535 718 528 701 q 551 735 543 735 q 583 717 567 735 q 599 682 599 700 q 578 647 599 658 q 506 629 558 635 q 388 615 467 625 l 388 444 q 386 344 388 382 q 546 363 518 363 q 590 355 569 363 q 610 335 610 347 z "},"^":{"ha":672,"x_min":74,"x_max":625,"o":"m 625 543 q 617 499 625 510 q 594 488 608 488 q 557 544 567 488 q 526 658 547 599 q 468 810 506 717 q 449 858 451 846 q 431 915 440 883 q 417 960 421 947 l 290 765 q 246 699 279 750 q 182 588 213 647 q 151 496 151 528 q 140 454 151 471 q 101 438 128 438 q 81 448 88 438 q 74 483 74 458 q 157 681 74 544 q 333 943 240 817 q 422 1042 390 1042 q 462 1007 439 1042 q 503 911 485 972 q 527 838 508 885 q 550 781 546 790 q 606 638 586 694 q 625 543 625 581 z "},"´":{"ha":639,"x_min":200,"x_max":439,"o":"m 439 1026 q 394 960 439 1008 q 298 871 350 913 q 228 829 246 829 q 208 836 215 829 q 200 854 200 843 q 246 904 200 861 q 324 983 299 951 q 357 1033 344 1013 q 378 1064 372 1057 q 394 1071 385 1071 q 424 1056 408 1071 q 439 1026 439 1040 z "},"¸":{"ha":694,"x_min":267,"x_max":425,"o":"m 425 -124 q 405 -198 425 -167 q 356 -246 385 -229 q 299 -262 326 -262 q 276 -255 285 -262 q 267 -235 267 -247 q 277 -222 267 -229 q 289 -214 288 -215 q 331 -182 315 -199 q 347 -135 347 -165 q 338 -94 347 -112 q 314 -53 329 -76 q 300 -25 300 -32 q 311 -17 300 -21 q 333 -14 322 -14 q 367 -34 344 -14 q 407 -80 389 -54 q 425 -124 425 -106 z "},"ˆ":{"ha":694,"x_min":147,"x_max":576,"o":"m 321 1024 q 340 1036 329 1036 q 359 1022 346 1036 q 376 1003 372 1008 q 549 851 468 903 q 569 837 561 843 q 576 824 576 831 q 567 802 576 814 q 544 790 558 790 q 486 817 519 790 q 429 867 453 843 l 397 900 l 340 956 l 319 931 q 224 819 257 854 q 171 785 192 785 q 153 792 160 785 q 147 807 147 800 q 206 881 147 818 q 303 996 264 949 l 321 1024 z "},"¨":{"ha":639,"x_min":125,"x_max":500,"o":"m 500 863 q 485 840 500 850 q 456 829 469 829 q 408 863 432 829 q 385 921 385 896 q 403 949 385 936 q 435 963 421 963 q 463 942 447 963 q 489 897 478 922 q 500 863 500 872 m 240 846 q 204 829 240 829 q 165 849 183 829 q 136 892 147 868 q 125 925 125 917 q 138 944 125 936 q 167 953 151 953 q 215 915 190 953 q 240 846 240 876 z "},"`":{"ha":639,"x_min":200,"x_max":439,"o":"m 439 854 q 431 836 439 843 q 411 829 424 829 q 341 871 393 829 q 244 960 289 913 q 200 1026 200 1008 q 215 1056 200 1040 q 244 1071 231 1071 q 260 1064 254 1071 q 282 1033 267 1057 q 315 983 294 1013 q 393 904 340 951 q 439 854 439 861 z "},"˜":{"ha":797,"x_min":168,"x_max":635,"o":"m 635 947 q 617 880 635 914 q 572 824 600 846 q 513 801 543 801 q 456 817 481 801 q 397 864 432 833 q 353 900 369 889 q 318 911 336 911 q 215 832 254 911 q 210 817 213 826 q 205 803 208 808 q 196 799 201 799 q 177 806 186 799 q 168 825 168 814 q 186 882 168 853 q 249 947 211 922 q 328 972 286 972 q 372 959 353 972 q 422 917 392 946 q 472 873 451 888 q 519 858 493 858 q 554 873 543 858 q 572 904 565 888 q 579 926 578 921 q 608 960 593 960 q 626 956 618 960 q 635 947 635 953 z "},"¯":{"ha":656,"x_min":-1,"x_max":656,"o":"m 656 1093 l 656 1033 l -1 1033 l -1 1093 l 656 1093 z "},"Ą":{"ha":864,"x_min":3,"x_max":814,"o":"m 796 396 q 756 381 786 388 q 714 374 725 375 q 725 322 725 321 q 746 226 735 288 q 797 -12 771 86 q 804 -50 804 -44 q 793 -74 804 -64 q 767 -83 782 -83 q 742 -69 753 -83 q 726 -43 731 -54 q 703 63 714 4 q 679 203 693 121 q 661 292 674 239 q 644 363 649 346 q 363 318 563 351 l 282 304 l 253 222 l 214 111 q 144 -122 165 -40 q 128 -155 140 -142 q 97 -168 115 -168 q 72 -160 82 -168 q 61 -136 61 -151 q 78 -72 61 -121 q 97 -12 94 -22 q 119 51 103 1 q 166 183 138 106 q 204 285 194 260 q 99 258 133 268 q 33 244 46 244 q 10 256 18 244 q 3 282 3 268 q 11 305 3 299 q 39 317 19 311 q 151 342 92 329 q 232 358 210 354 q 253 426 246 399 q 267 472 258 444 q 288 539 276 499 l 308 610 q 369 822 361 796 q 383 853 376 842 q 400 864 389 864 q 450 856 428 864 q 459 867 453 858 q 473 880 465 876 q 493 883 481 883 q 551 826 518 883 q 614 692 583 769 q 660 555 632 646 q 696 435 688 464 q 731 442 717 438 q 750 449 746 447 q 765 458 757 451 q 781 469 774 465 q 796 468 788 472 q 814 433 814 460 q 809 413 814 424 q 796 396 804 401 m 561 658 q 511 764 542 710 q 460 832 481 818 l 444 796 q 404 700 418 743 q 299 369 371 600 l 461 397 l 594 418 l 632 424 q 603 528 625 449 q 561 658 581 608 m 792 0 q 781 -33 788 -17 q 768 -66 775 -50 q 753 -94 761 -82 q 739 -111 744 -106 q 667 -148 699 -126 q 635 -211 635 -169 q 644 -238 635 -228 q 666 -256 653 -249 q 694 -267 679 -262 q 722 -274 710 -271 q 740 -299 740 -278 q 728 -323 740 -312 q 701 -333 717 -333 q 601 -291 633 -322 q 569 -219 569 -260 q 580 -171 569 -193 q 607 -131 590 -149 q 644 -100 624 -112 q 686 -79 665 -87 q 714 -28 704 -54 q 724 11 724 -3 q 747 17 735 17 q 792 0 768 17 z "},"ą":{"ha":735,"x_min":43,"x_max":667,"o":"m 667 51 q 653 13 667 35 q 625 -8 639 -8 q 589 21 601 -8 q 576 89 576 50 q 581 289 576 122 l 582 342 q 565 388 582 374 q 449 204 503 282 q 311 58 394 126 q 136 -11 228 -11 q 67 17 92 -11 q 43 89 43 44 q 93 241 43 144 q 221 437 143 338 q 376 600 299 536 q 458 656 428 642 q 513 671 489 671 q 558 657 535 671 q 599 618 582 643 q 615 561 615 593 q 592 479 615 518 l 615 486 q 633 449 631 486 q 637 358 635 426 q 640 246 639 290 q 643 157 642 200 q 646 89 644 114 q 657 69 647 79 q 667 51 667 58 m 546 442 q 563 532 563 483 q 545 583 563 561 q 499 604 528 604 q 410 557 464 604 q 278 416 347 504 q 163 242 208 328 q 117 106 117 156 q 156 64 117 64 q 300 119 231 64 q 424 252 369 175 q 546 442 479 329 m 664 56 q 653 22 660 39 q 640 -10 647 6 q 625 -38 633 -26 q 611 -56 617 -50 q 539 -92 571 -71 q 507 -156 507 -114 q 516 -183 507 -172 q 538 -200 525 -193 q 567 -211 551 -207 q 594 -218 582 -215 q 613 -243 613 -222 q 601 -267 613 -257 q 574 -278 589 -278 q 474 -235 506 -267 q 442 -164 442 -204 q 452 -115 442 -137 q 479 -75 463 -93 q 517 -44 496 -57 q 558 -24 538 -32 q 586 27 576 1 q 596 67 596 53 q 619 72 607 72 q 664 56 640 72 z "},"Ć":{"ha":761,"x_min":117,"x_max":799,"o":"m 774 199 q 617 45 715 119 q 400 -29 518 -29 q 196 42 275 -29 q 117 254 117 114 q 150 471 117 350 q 228 681 183 592 q 334 831 274 771 q 456 890 394 890 q 548 847 515 890 q 581 740 581 804 q 572 692 581 717 q 551 651 563 668 q 535 635 540 635 q 524 647 524 635 q 528 666 524 651 q 533 690 533 681 q 525 756 533 725 q 497 799 518 782 q 451 817 476 817 q 264 624 351 817 q 206 449 229 546 q 182 261 182 351 q 208 147 182 199 q 281 65 233 96 q 393 35 329 35 q 577 83 494 35 q 740 208 660 132 q 760 240 743 211 q 785 268 776 268 q 796 264 793 268 q 799 249 799 260 q 774 199 799 235 m 379 957 q 359 964 367 957 q 351 982 351 971 q 397 1032 351 989 q 475 1111 450 1079 q 508 1161 496 1140 q 530 1192 524 1185 q 546 1199 536 1199 q 575 1183 560 1199 q 590 1154 590 1168 q 546 1088 590 1136 q 449 999 501 1040 q 379 957 397 957 z "},"ć":{"ha":515,"x_min":35,"x_max":492,"o":"m 406 176 q 276 42 333 89 q 156 -6 218 -6 q 69 40 103 -6 q 35 146 35 86 q 82 371 35 235 q 201 607 129 507 q 346 707 274 707 q 399 685 376 707 q 422 651 411 672 q 433 614 433 631 q 427 559 433 590 q 414 528 421 528 q 396 543 400 528 q 390 582 392 558 q 382 630 386 618 q 369 642 378 642 q 243 551 304 642 q 143 340 182 460 q 104 154 104 219 q 165 63 104 63 q 247 85 210 63 q 324 147 283 107 q 440 279 399 224 q 456 301 443 283 q 475 318 469 318 q 492 306 492 318 q 463 254 492 297 q 406 176 435 211 m 275 738 q 255 744 263 738 q 247 763 247 751 q 293 813 247 769 q 371 892 346 860 q 404 942 392 921 q 426 972 419 965 q 442 979 432 979 q 471 964 456 979 q 486 935 486 949 q 442 869 486 917 q 345 779 397 821 q 275 738 293 738 z "},"Ę":{"ha":822,"x_min":53,"x_max":790,"o":"m 767 857 q 649 813 729 836 q 518 779 569 789 q 356 755 438 764 q 251 744 275 746 q 256 578 253 664 q 260 461 258 493 q 422 488 314 468 l 475 496 q 610 551 563 511 q 646 571 635 571 q 662 560 656 571 q 668 539 668 550 q 612 484 668 514 q 488 440 556 454 q 360 417 431 428 q 267 403 289 406 q 315 50 275 165 q 394 30 356 36 q 494 24 433 24 q 611 40 556 24 q 701 79 667 56 q 735 124 735 103 q 731 145 735 135 q 719 167 726 156 q 710 180 717 171 q 704 194 704 189 q 735 208 704 208 q 773 190 757 208 q 789 149 789 171 q 749 61 789 104 q 641 -9 710 18 q 489 -36 572 -36 q 350 -27 404 -36 q 268 8 296 -18 q 222 139 235 46 q 199 388 208 232 q 140 376 172 381 q 90 371 107 371 q 63 381 74 371 q 53 407 53 392 q 56 424 53 417 q 67 432 60 431 q 133 439 113 438 l 193 446 q 182 738 188 625 q 149 736 161 738 l 85 735 q 65 742 72 735 q 58 757 58 749 q 103 801 58 790 q 145 808 119 804 q 179 811 171 811 q 238 840 206 840 q 247 831 243 840 q 250 818 250 822 q 468 839 342 822 q 725 892 551 850 l 776 903 q 790 886 790 903 q 767 857 790 869 m 585 0 q 574 -33 581 -17 q 561 -66 568 -50 q 546 -94 554 -82 q 532 -111 538 -106 q 460 -148 492 -126 q 428 -211 428 -169 q 437 -238 428 -228 q 459 -256 446 -249 q 488 -267 472 -262 q 515 -274 503 -271 q 533 -299 533 -278 q 522 -323 533 -312 q 494 -333 510 -333 q 394 -291 426 -322 q 363 -219 363 -260 q 373 -171 363 -193 q 400 -131 383 -149 q 438 -100 417 -112 q 479 -79 458 -87 q 507 -28 497 -54 q 517 11 517 -3 q 540 17 528 17 q 585 0 561 17 z "},"ę":{"ha":644,"x_min":67,"x_max":606,"o":"m 606 333 q 569 224 606 308 q 458 67 532 139 q 275 -6 383 -6 q 126 50 186 -6 q 67 221 67 106 q 117 435 67 329 q 247 609 167 542 q 414 676 328 676 q 501 653 465 676 q 536 588 536 631 q 481 493 536 539 q 339 413 426 447 q 158 363 251 378 q 142 238 142 299 q 180 113 142 157 q 289 68 218 68 q 463 144 396 68 q 574 317 529 221 q 583 338 576 322 q 596 354 590 354 q 606 333 606 354 m 397 619 q 296 585 344 619 q 215 501 247 550 q 172 415 182 453 q 307 451 236 422 q 426 515 378 481 q 474 572 474 550 q 451 607 474 594 q 397 619 428 619 m 414 56 q 403 22 410 39 q 390 -10 397 6 q 375 -38 383 -26 q 361 -56 367 -50 q 289 -92 321 -71 q 257 -156 257 -114 q 266 -183 257 -172 q 288 -200 275 -193 q 317 -211 301 -207 q 344 -218 332 -215 q 363 -243 363 -222 q 351 -267 363 -257 q 324 -278 339 -278 q 224 -235 256 -267 q 192 -164 192 -204 q 202 -115 192 -137 q 229 -75 213 -93 q 267 -44 246 -57 q 308 -24 288 -32 q 336 27 326 1 q 346 67 346 53 q 369 72 357 72 q 414 56 390 72 z "},"Ł":{"ha":799,"x_min":38,"x_max":750,"o":"m 490 576 q 565 613 544 613 q 588 602 578 613 q 599 578 599 592 q 593 553 599 561 q 579 543 588 546 q 560 539 571 540 q 540 532 550 538 q 485 500 485 500 l 274 367 q 273 277 274 321 q 272 197 272 233 q 271 133 271 160 q 271 93 271 106 l 446 106 q 522 117 476 110 q 610 132 567 125 q 686 144 653 139 q 726 150 719 150 q 746 136 742 150 q 750 103 750 122 q 734 74 750 85 q 696 61 718 63 l 292 29 l 206 22 q 185 36 194 22 q 176 63 176 50 q 190 81 176 78 q 207 88 203 85 q 208 179 207 115 q 208 325 208 243 q 114 263 154 289 q 63 238 74 238 q 46 247 54 238 q 38 265 38 256 q 40 282 38 275 q 53 298 42 289 q 90 322 65 307 q 158 365 114 338 q 185 381 172 374 q 208 396 197 389 l 208 438 q 203 618 208 539 q 192 752 199 697 q 181 838 186 807 q 176 872 176 868 q 191 903 176 892 q 221 914 206 914 q 244 879 233 914 q 260 783 254 844 q 270 635 267 721 q 274 444 274 549 l 274 435 l 358 486 q 408 519 371 493 q 490 576 446 546 z "},"ł":{"ha":278,"x_min":-68,"x_max":344,"o":"m 147 7 q 116 47 131 7 q 101 167 101 86 l 104 442 q 8 379 49 406 q -43 353 -32 353 q -60 362 -51 353 q -68 381 -68 371 q -66 397 -68 390 q -52 413 -64 404 q -16 438 -40 422 q 53 481 8 453 q 81 498 68 490 q 104 514 93 506 l 104 881 q 113 921 108 901 q 126 956 118 940 q 145 981 133 971 q 174 990 157 990 q 188 978 185 990 q 192 933 192 967 q 191 924 192 932 q 190 897 190 917 q 179 727 183 811 q 172 558 175 643 l 236 603 q 311 639 290 639 q 334 628 324 639 q 344 604 344 618 q 339 580 344 588 q 325 569 333 572 q 306 565 317 567 q 286 558 296 564 q 231 526 231 526 l 169 483 q 165 185 165 333 q 185 90 165 142 q 206 38 206 40 q 188 15 206 24 q 147 7 169 7 z "},"Ń":{"ha":958,"x_min":169,"x_max":811,"o":"m 757 -7 q 627 142 747 -7 q 429 397 507 292 q 358 499 418 413 q 250 653 271 626 l 247 546 l 246 442 q 244 228 246 343 q 239 44 242 113 q 224 14 238 28 q 197 0 211 0 q 176 9 182 0 q 169 44 169 18 q 175 147 169 61 q 188 415 188 307 q 190 578 188 501 q 193 674 193 656 l 194 714 l 194 718 q 199 742 194 733 q 219 751 204 751 l 226 751 q 287 697 242 751 q 401 547 332 642 q 431 509 417 528 q 457 474 444 490 q 540 367 536 372 q 756 81 738 115 q 746 132 753 92 q 733 238 739 172 q 726 372 726 303 q 703 699 726 496 q 696 781 696 765 q 756 833 696 833 q 776 805 769 833 q 786 685 783 776 q 789 392 789 593 q 794 267 789 328 q 803 158 799 206 q 810 60 810 93 l 811 10 q 757 -7 811 -7 m 401 860 q 381 867 389 860 q 374 885 374 874 q 419 935 374 892 q 497 1014 472 982 q 531 1064 518 1043 q 552 1094 546 1088 q 568 1101 558 1101 q 597 1086 582 1101 q 613 1057 613 1071 q 568 991 613 1039 q 472 901 524 943 q 401 860 419 860 z "},"ń":{"ha":639,"x_min":68,"x_max":547,"o":"m 500 -50 q 476 -44 486 -50 q 467 -26 467 -37 q 475 150 467 31 q 483 363 483 278 q 478 497 483 444 q 456 549 474 549 q 352 431 408 549 q 224 122 296 314 l 203 67 q 184 44 197 53 q 157 36 171 36 q 135 39 140 36 q 128 56 129 42 l 117 169 l 96 369 q 72 578 86 489 q 68 610 68 599 q 86 644 68 631 q 128 657 104 657 q 148 590 142 657 q 161 375 154 524 l 167 301 q 179 124 178 161 q 187 142 183 132 q 196 165 190 153 q 337 490 271 360 q 464 619 403 619 q 523 547 507 619 q 543 360 539 474 q 547 -10 547 233 q 533 -38 547 -26 q 500 -50 519 -50 m 278 738 q 258 744 265 738 q 250 763 250 751 q 296 813 250 769 q 374 892 349 860 q 407 942 394 921 q 428 972 422 965 q 444 979 435 979 q 474 964 458 979 q 489 935 489 949 q 444 869 489 917 q 348 779 400 821 q 278 738 296 738 z "},"Ś":{"ha":764,"x_min":50,"x_max":710,"o":"m 342 -46 q 199 -31 251 -46 q 146 10 146 -17 q 166 56 146 24 q 197 89 186 89 q 214 82 214 89 q 209 72 214 78 q 204 61 204 67 q 222 49 204 57 q 275 33 239 40 q 363 26 311 26 q 506 58 444 26 q 601 139 568 90 q 635 233 635 188 q 577 336 635 293 q 392 418 519 379 q 201 485 268 458 q 92 552 133 513 q 50 649 50 592 q 136 799 50 725 q 349 920 222 874 q 583 967 475 967 q 643 944 639 967 q 647 894 647 922 q 632 874 647 874 q 616 878 625 874 q 600 886 607 883 q 581 892 592 889 q 549 894 569 894 q 375 857 476 894 q 199 764 274 819 q 125 657 125 708 q 159 585 125 615 q 250 533 193 554 q 411 479 307 511 q 637 379 564 435 q 710 243 710 324 q 663 106 710 174 q 533 -3 617 39 q 342 -46 449 -46 m 290 996 q 270 1003 278 996 q 263 1021 263 1010 q 308 1071 263 1028 q 386 1150 361 1118 q 419 1200 407 1179 q 441 1231 435 1224 q 457 1238 447 1238 q 486 1222 471 1238 q 501 1193 501 1207 q 457 1127 501 1175 q 360 1038 413 1079 q 290 996 308 996 z "},"ś":{"ha":618,"x_min":56,"x_max":571,"o":"m 224 -47 q 143 -36 164 -47 q 122 -6 122 -25 q 154 38 122 7 q 197 69 186 69 q 214 63 214 69 q 207 51 214 57 q 200 42 200 46 q 217 31 200 36 q 260 25 235 25 q 377 47 318 25 q 474 103 436 68 q 511 176 511 138 q 488 236 511 214 q 428 269 464 258 q 310 299 393 279 q 167 335 218 319 q 86 376 117 351 q 56 438 56 400 q 121 560 56 504 q 271 647 186 615 q 401 679 356 679 q 449 651 449 679 q 438 615 449 635 q 404 594 426 594 q 386 601 396 594 q 367 607 376 607 q 279 589 339 607 q 171 535 219 571 q 122 447 122 499 q 160 398 122 414 q 303 358 199 382 q 328 352 315 354 q 350 347 340 350 q 514 290 457 322 q 571 194 571 258 q 522 77 571 133 q 392 -13 472 21 q 224 -47 311 -47 m 176 718 q 156 725 164 718 q 149 743 149 732 q 194 793 149 750 q 272 872 247 840 q 306 922 293 901 q 327 953 321 946 q 343 960 333 960 q 372 944 357 960 q 388 915 388 929 q 343 849 388 897 q 247 760 299 801 q 176 718 194 718 z "},"Ź":{"ha":831,"x_min":129,"x_max":785,"o":"m 622 589 q 566 562 603 571 q 444 538 529 553 q 333 316 413 485 q 254 126 254 147 q 333 90 254 103 q 482 76 411 76 q 592 81 531 76 q 669 90 654 86 q 741 124 715 103 q 772 144 767 144 q 782 135 779 144 q 785 100 785 126 q 492 8 785 8 q 282 35 382 8 q 182 106 182 61 q 245 272 182 138 q 374 529 308 406 q 311 515 343 525 q 272 501 279 504 q 231 486 251 494 q 206 478 210 478 q 174 496 189 478 q 158 531 158 514 q 170 545 158 540 q 214 556 182 550 l 410 589 q 494 748 457 671 q 532 846 532 825 q 510 854 532 854 q 393 840 488 854 l 342 833 q 158 808 182 808 q 129 819 129 808 q 148 847 129 833 q 201 868 167 861 l 236 875 q 351 896 331 893 q 458 911 446 908 q 542 921 526 921 q 587 913 567 921 q 607 890 607 904 q 566 777 607 872 q 478 596 525 682 q 608 640 544 611 q 636 650 633 650 q 644 646 640 650 q 649 638 649 642 q 640 612 649 626 q 622 589 632 597 m 324 996 q 303 1003 311 996 q 296 1021 296 1010 q 342 1071 296 1028 q 419 1150 394 1118 q 453 1200 440 1179 q 474 1231 468 1224 q 490 1238 481 1238 q 519 1222 504 1238 q 535 1193 535 1207 q 490 1127 535 1175 q 394 1038 446 1079 q 324 996 342 996 z "},"ź":{"ha":735,"x_min":40,"x_max":701,"o":"m 353 -18 q 228 -4 289 -18 q 131 33 168 10 q 93 81 93 56 q 119 159 93 114 q 204 289 146 204 q 119 300 168 289 q 94 331 94 307 q 119 340 94 340 l 246 342 q 303 469 278 401 q 329 560 329 536 q 319 571 329 571 q 272 556 304 571 q 229 535 240 540 q 58 494 144 494 q 40 507 40 494 q 81 529 40 517 q 226 597 136 547 q 368 654 329 654 q 403 644 390 654 q 415 619 415 635 q 303 346 415 585 q 407 365 335 347 q 438 372 431 372 q 444 368 442 372 q 447 360 447 364 q 425 328 447 338 q 265 289 368 301 l 236 242 q 176 142 197 181 q 156 85 156 103 q 224 56 156 67 q 358 46 292 46 q 532 75 454 46 q 660 158 610 104 q 674 210 667 171 q 678 233 675 222 q 686 243 681 243 q 698 223 694 243 q 701 172 701 203 q 651 92 701 138 q 520 15 601 47 q 353 -18 439 -18 m 178 690 q 158 697 165 690 q 150 715 150 704 q 196 765 150 722 q 274 844 249 813 q 307 894 294 874 q 328 925 322 918 q 344 932 335 932 q 374 917 358 932 q 389 888 389 901 q 344 822 389 869 q 248 732 300 774 q 178 690 196 690 z "},"Ż":{"ha":831,"x_min":129,"x_max":785,"o":"m 622 589 q 566 562 603 571 q 444 538 529 553 q 333 316 413 485 q 254 126 254 147 q 333 90 254 103 q 482 76 411 76 q 592 81 531 76 q 669 90 654 86 q 741 124 715 103 q 772 144 767 144 q 782 135 779 144 q 785 100 785 126 q 492 8 785 8 q 282 35 382 8 q 182 106 182 61 q 245 272 182 138 q 374 529 308 406 q 311 515 343 525 q 272 501 279 504 q 231 486 251 494 q 206 478 210 478 q 174 496 189 478 q 158 531 158 514 q 170 545 158 540 q 214 556 182 550 l 410 589 q 494 748 457 671 q 532 846 532 825 q 510 854 532 854 q 393 840 488 854 l 342 833 q 158 808 182 808 q 129 819 129 808 q 148 847 129 833 q 201 868 167 861 l 236 875 q 351 896 331 893 q 458 911 446 908 q 542 921 526 921 q 587 913 567 921 q 607 890 607 904 q 566 777 607 872 q 478 596 525 682 q 608 640 544 611 q 636 650 633 650 q 644 646 640 650 q 649 638 649 642 q 640 612 649 626 q 622 589 632 597 m 456 1086 q 434 1036 456 1058 q 389 1014 413 1014 q 358 1027 369 1014 q 346 1064 346 1040 q 347 1079 347 1071 q 349 1100 347 1093 q 373 1147 357 1128 q 413 1165 389 1165 q 431 1158 424 1165 q 443 1140 439 1151 q 453 1120 450 1132 q 456 1086 456 1108 z "},"ż":{"ha":735,"x_min":40,"x_max":701,"o":"m 353 -18 q 228 -4 289 -18 q 131 33 168 10 q 93 81 93 56 q 119 159 93 114 q 204 289 146 204 q 119 300 168 289 q 94 331 94 307 q 119 340 94 340 l 246 342 q 303 469 278 401 q 329 560 329 536 q 319 571 329 571 q 272 556 304 571 q 229 535 240 540 q 58 494 144 494 q 40 507 40 494 q 81 529 40 517 q 226 597 136 547 q 368 654 329 654 q 403 644 390 654 q 415 619 415 635 q 303 346 415 585 q 407 365 335 347 q 438 372 431 372 q 444 368 442 372 q 447 360 447 364 q 425 328 447 338 q 265 289 368 301 l 236 242 q 176 142 197 181 q 156 85 156 103 q 224 56 156 67 q 358 46 292 46 q 532 75 454 46 q 660 158 610 104 q 674 210 667 171 q 678 233 675 222 q 686 243 681 243 q 698 223 694 243 q 701 172 701 203 q 651 92 701 138 q 520 15 601 47 q 353 -18 439 -18 m 311 794 q 290 744 311 767 q 244 722 268 722 q 213 735 225 722 q 201 772 201 749 q 203 788 203 779 q 204 808 203 801 q 228 855 213 836 q 268 874 244 874 q 287 867 279 874 q 299 849 294 860 q 308 828 306 840 q 311 794 311 817 z "},"Ě":{"ha":822,"x_min":53,"x_max":790,"o":"m 767 857 q 649 813 729 836 q 518 779 569 789 q 356 755 438 764 q 251 744 275 746 q 256 578 253 664 q 260 461 258 493 q 422 488 314 468 l 475 496 q 610 551 563 511 q 646 571 635 571 q 662 560 656 571 q 668 539 668 550 q 612 484 668 514 q 488 440 556 454 q 360 417 431 428 q 267 403 289 406 q 315 50 275 165 q 394 30 356 36 q 494 24 433 24 q 611 40 556 24 q 701 79 667 56 q 735 124 735 103 q 731 145 735 135 q 719 167 726 156 q 710 180 717 171 q 704 194 704 189 q 735 208 704 208 q 773 190 757 208 q 789 149 789 171 q 749 61 789 104 q 641 -9 710 18 q 489 -36 572 -36 q 350 -27 404 -36 q 268 8 296 -18 q 222 139 235 46 q 199 388 208 232 q 140 376 172 381 q 90 371 107 371 q 63 381 74 371 q 53 407 53 392 q 56 424 53 417 q 67 432 60 431 q 133 439 113 438 l 193 446 q 182 738 188 625 q 149 736 161 738 l 85 735 q 65 742 72 735 q 58 757 58 749 q 103 801 58 790 q 145 808 119 804 q 179 811 171 811 q 238 840 206 840 q 247 831 243 840 q 250 818 250 822 q 468 839 342 822 q 725 892 551 850 l 776 903 q 790 886 790 903 q 767 857 790 869 m 633 1171 q 615 1142 633 1158 q 568 1093 596 1125 q 521 1035 544 1065 q 478 974 497 1004 q 448 940 460 946 q 431 935 436 935 q 413 949 425 935 q 394 968 400 964 q 331 1030 358 1003 q 265 1083 303 1057 q 238 1113 238 1101 q 247 1133 238 1122 q 269 1144 256 1144 q 328 1118 296 1144 q 358 1090 344 1104 q 383 1065 372 1076 l 435 1015 q 449 1037 440 1024 q 467 1063 458 1050 q 483 1085 476 1075 q 492 1096 490 1094 q 537 1149 519 1129 q 566 1180 554 1169 q 587 1193 578 1190 q 606 1196 596 1196 q 625 1188 617 1196 q 633 1171 633 1179 z "},"ě":{"ha":644,"x_min":67,"x_max":606,"o":"m 606 333 q 569 224 606 308 q 458 67 532 139 q 275 -6 383 -6 q 126 50 186 -6 q 67 221 67 106 q 117 435 67 329 q 247 609 167 542 q 414 676 328 676 q 501 653 465 676 q 536 588 536 631 q 481 493 536 539 q 339 413 426 447 q 158 363 251 378 q 142 238 142 299 q 180 113 142 157 q 289 68 218 68 q 463 144 396 68 q 574 317 529 221 q 583 338 576 322 q 596 354 590 354 q 606 333 606 354 m 397 619 q 296 585 344 619 q 215 501 247 550 q 172 415 182 453 q 307 451 236 422 q 426 515 378 481 q 474 572 474 550 q 451 607 474 594 q 397 619 428 619 m 576 1004 q 558 975 576 992 q 511 926 539 958 q 464 868 488 899 q 421 807 440 838 q 391 774 403 779 q 374 768 379 768 q 356 783 368 768 q 338 801 343 797 q 274 863 301 836 q 208 917 246 890 q 181 946 181 935 q 190 967 181 956 q 213 978 199 978 q 271 951 239 978 q 301 924 288 938 q 326 899 315 910 l 378 849 q 392 870 383 857 q 410 896 401 883 q 426 918 419 908 q 435 929 433 928 q 480 983 463 963 q 509 1013 497 1003 q 530 1026 521 1024 q 549 1029 539 1029 q 568 1021 560 1029 q 576 1004 576 1013 z "},"Č":{"ha":761,"x_min":117,"x_max":799,"o":"m 774 199 q 617 45 715 119 q 400 -29 518 -29 q 196 42 275 -29 q 117 254 117 114 q 150 471 117 350 q 228 681 183 592 q 334 831 274 771 q 456 890 394 890 q 548 847 515 890 q 581 740 581 804 q 572 692 581 717 q 551 651 563 668 q 535 635 540 635 q 524 647 524 635 q 528 666 524 651 q 533 690 533 681 q 525 756 533 725 q 497 799 518 782 q 451 817 476 817 q 264 624 351 817 q 206 449 229 546 q 182 261 182 351 q 208 147 182 199 q 281 65 233 96 q 393 35 329 35 q 577 83 494 35 q 740 208 660 132 q 760 240 743 211 q 785 268 776 268 q 796 264 793 268 q 799 249 799 260 q 774 199 799 235 m 661 1171 q 642 1142 661 1158 q 596 1093 624 1125 q 549 1035 572 1065 q 506 974 525 1004 q 476 940 488 946 q 458 935 464 935 q 440 949 453 935 q 422 968 428 964 q 358 1030 386 1003 q 293 1083 331 1057 q 265 1113 265 1101 q 274 1133 265 1122 q 297 1144 283 1144 q 356 1118 324 1144 q 386 1090 372 1104 q 411 1065 400 1076 l 463 1015 q 477 1037 468 1024 q 495 1063 486 1050 q 511 1085 504 1075 q 519 1096 518 1094 q 565 1149 547 1129 q 594 1180 582 1169 q 615 1193 606 1190 q 633 1196 624 1196 q 653 1188 644 1196 q 661 1171 661 1179 z "},"č":{"ha":515,"x_min":35,"x_max":508,"o":"m 406 176 q 276 42 333 89 q 156 -6 218 -6 q 69 40 103 -6 q 35 146 35 86 q 82 371 35 235 q 201 607 129 507 q 346 707 274 707 q 399 685 376 707 q 422 651 411 672 q 433 614 433 631 q 427 559 433 590 q 414 528 421 528 q 396 543 400 528 q 390 582 392 558 q 382 630 386 618 q 369 642 378 642 q 243 551 304 642 q 143 340 182 460 q 104 154 104 219 q 165 63 104 63 q 247 85 210 63 q 324 147 283 107 q 440 279 399 224 q 456 301 443 283 q 475 318 469 318 q 492 306 492 318 q 463 254 492 297 q 406 176 435 211 m 508 1004 q 490 975 508 992 q 443 926 471 958 q 396 868 419 899 q 353 807 372 838 q 323 774 335 779 q 306 768 311 768 q 288 783 300 768 q 269 801 275 797 q 206 863 233 836 q 140 917 178 890 q 113 946 113 935 q 122 967 113 956 q 144 978 131 978 q 203 951 171 978 q 233 924 219 938 q 258 899 247 910 l 310 849 q 324 870 315 857 q 342 896 333 883 q 358 918 351 908 q 367 929 365 928 q 412 983 394 963 q 441 1013 429 1003 q 462 1026 453 1024 q 481 1029 471 1029 q 500 1021 492 1029 q 508 1004 508 1013 z "}}}
